<?xml version="1.0" encoding="UTF-8" standalone="no"?>
<!-- Created with Inkscape (http://www.inkscape.org/) -->

<svg
   xmlns:dc="http://purl.org/dc/elements/1.1/"
   xmlns:cc="http://creativecommons.org/ns#"
   xmlns:rdf="http://www.w3.org/1999/02/22-rdf-syntax-ns#"
   xmlns:svg="http://www.w3.org/2000/svg"
   xmlns="http://www.w3.org/2000/svg"
   xmlns:xlink="http://www.w3.org/1999/xlink"
   xmlns:sodipodi="http://sodipodi.sourceforge.net/DTD/sodipodi-0.dtd"
   xmlns:inkscape="http://www.inkscape.org/namespaces/inkscape"
   id="svg2"
   height="407.5372"
   width="466.22379"
   version="1.1"
   inkscape:version="0.48.4 r9939"
   sodipodi:docname="logo-OFD.svg">
  <sodipodi:namedview
     pagecolor="#ffffff"
     bordercolor="#666666"
     borderopacity="1"
     objecttolerance="10"
     gridtolerance="10"
     guidetolerance="10"
     inkscape:pageopacity="0"
     inkscape:pageshadow="2"
     inkscape:window-width="1920"
     inkscape:window-height="1004"
     id="namedview92"
     showgrid="false"
     fit-margin-top="0"
     fit-margin-left="0"
     fit-margin-right="0"
     fit-margin-bottom="0"
     inkscape:zoom="1.0419426"
     inkscape:cx="259.47319"
     inkscape:cy="184.3406"
     inkscape:window-x="0"
     inkscape:window-y="24"
     inkscape:window-maximized="1"
     inkscape:current-layer="svg2" />
  <metadata
     id="metadata11">
    <rdf:RDF>
      <cc:Work
         rdf:about="">
        <dc:format>image/svg+xml</dc:format>
        <dc:type
           rdf:resource="http://purl.org/dc/dcmitype/StillImage" />
        <dc:title />
      </cc:Work>
    </rdf:RDF>
  </metadata>
  <defs
     id="defs4">
    <linearGradient
       inkscape:collect="always"
       id="linearGradient4043">
      <stop
         style="stop-color:#424242;stop-opacity:1;"
         offset="0"
         id="stop4045" />
      <stop
         style="stop-color:#424242;stop-opacity:0;"
         offset="1"
         id="stop4047" />
    </linearGradient>
    <linearGradient
       inkscape:collect="always"
       id="linearGradient4031">
      <stop
         style="stop-color:#013397;stop-opacity:1;"
         offset="0"
         id="stop4033" />
      <stop
         style="stop-color:#013397;stop-opacity:0;"
         offset="1"
         id="stop4035" />
    </linearGradient>
    <linearGradient
       id="linearGradient4017">
      <stop
         style="stop-color:#424242;stop-opacity:1;"
         offset="0"
         id="stop4019" />
      <stop
         style="stop-color:#424242;stop-opacity:0;"
         offset="1"
         id="stop4021" />
    </linearGradient>
    <linearGradient
       id="linearGradient4009">
      <stop
         style="stop-color:#0000ff;stop-opacity:1;"
         offset="0"
         id="stop4011" />
      <stop
         style="stop-color:#0000ff;stop-opacity:0;"
         offset="1"
         id="stop4013" />
    </linearGradient>
    <linearGradient
       id="linearGradient5248"
       y2="333.31"
       gradientUnits="userSpaceOnUse"
       x2="648.41998"
       y1="333.31"
       x1="449.42999"
       gradientTransform="translate(182.9803,188.05322)">
      <stop
         id="stop5242"
         stop-color="#e2011c"
         offset="0" />
      <stop
         id="stop5244"
         stop-color="#e2011c"
         stop-opacity="0"
         offset="1" />
    </linearGradient>
    <linearGradient
       id="linearGradient5256"
       y2="338.26001"
       gradientUnits="userSpaceOnUse"
       x2="183.05"
       y1="334.01999"
       x1="393.95001"
       gradientTransform="translate(182.9803,188.05322)">
      <stop
         id="stop5252"
         stop-color="#003189"
         offset="0" />
      <stop
         id="stop5254"
         stop-color="#003189"
         stop-opacity="0"
         offset="1" />
    </linearGradient>
    <radialGradient
       id="radialGradient5292"
       gradientUnits="userSpaceOnUse"
       cy="208.74001"
       cx="415.67999"
       gradientTransform="matrix(-1.2658473,-0.00429847,0.00591384,-1.741556,1124.418,741.62317)"
       r="232.64">
      <stop
         id="stop5260"
         stop-color="#495050"
         offset="0" />
      <stop
         id="stop5262"
         stop-color="#505050"
         stop-opacity="0"
         offset="1" />
    </radialGradient>
    <radialGradient
       id="radialGradient5294"
       gradientUnits="userSpaceOnUse"
       cy="561.90997"
       cx="380.67001"
       gradientTransform="matrix(0.00590969,-1.7373216,1.2614789,0.00429106,-111.62241,1443.7602)"
       r="233.03999">
      <stop
         id="stop5268"
         stop-color="#505050"
         offset="0" />
      <stop
         id="stop5270"
         stop-color="#505050"
         stop-opacity="0"
         offset="1" />
    </radialGradient>
    <radialGradient
       inkscape:collect="always"
       xlink:href="#linearGradient4017"
       id="radialGradient4029"
       cx="233.1147"
       cy="33.431"
       fx="233.1147"
       fy="33.431"
       r="233.035"
       gradientTransform="matrix(0.99998655,-0.00518576,0.00411846,0.79417611,-0.1345498,8.0897761)"
       gradientUnits="userSpaceOnUse" />
    <linearGradient
       inkscape:collect="always"
       xlink:href="#linearGradient4031"
       id="linearGradient4037"
       x1="213.3112"
       y1="155.81619"
       x2="1.7838358"
       y2="155.81621"
       gradientUnits="userSpaceOnUse" />
    <radialGradient
       inkscape:collect="always"
       xlink:href="#linearGradient5248"
       id="radialGradient4039"
       cx="268.04819"
       cy="156.18379"
       fx="268.04819"
       fy="156.18379"
       r="99.495003"
       gradientTransform="matrix(1.9935606,0.00848921,-0.01347052,3.1633523,-264.21822,-342.4466)"
       gradientUnits="userSpaceOnUse" />
    <radialGradient
       inkscape:collect="always"
       xlink:href="#linearGradient4043"
       id="radialGradient4049"
       cx="233.06985"
       cy="378.7562"
       fx="233.06985"
       fy="378.7562"
       r="233.06985"
       gradientTransform="matrix(0.99997588,0.00694485,-0.00411785,0.59292103,1.5652803,152.56505)"
       gradientUnits="userSpaceOnUse" />
  </defs>
  <text
     id="text3007"
     style="font-size:4.83944416px;font-style:normal;font-variant:normal;font-weight:normal;font-stretch:normal;line-height:125%;letter-spacing:0px;word-spacing:0px;fill:#000000;font-family:Arial"
     font-weight="normal"
     xml:space="preserve"
     font-size="4.83944416px"
     font-stretch="normal"
     line-height="125%"
     font-variant="normal"
     y="439.25305"
     x="373.49182"
     font-style="normal"
     sodipodi:linespacing="125%"><tspan
       id="tspan3009"
       x="373.49182"
       y="439.25305" /></text>
  <rect
     style="fill:#ffffff"
     id="rect6"
     height="157.28"
     width="465.19"
     y="66.616776"
     x="0.24969573" />
  <path
     style="fill:url(#radialGradient4039);fill-opacity:1"
     inkscape:connector-curvature="0"
     id="path10"
     d="m 266.4497,223.89678 0.70568,-1.8248 c 1.1958,-3.2966 2.436,-5.8125 4.2258,-8.5727 1.896,-2.924 6.0695,-7.231 7.8056,-8.0554 2.1337,-1.0132 4.7862,-1.3699 8.0664,-1.0848 2.8168,0.24483 11.471,1.66 14.963,2.4468 2.6579,0.59883 6.5497,0.65613 8.381,0.1234 3.5285,-1.0265 5.619,-3.0107 6.611,-6.2751 0.76103,-2.5043 0.75377,-4.7802 -0.02,-6.2981 -1.0394,-2.0388 -0.86242,-2.569 1.6636,-4.9844 1.2477,-1.1931 2.2702,-2.2962 2.2722,-2.4514 0.0106,-0.80753 -1.718,-4.0501 -2.1631,-4.0574 -0.2727,-0.004 -0.81142,-0.26388 -1.1972,-0.57646 l -0.70139,-0.56832 1.4996,-0.76665 c 2.0477,-1.0468 3.5665,-2.6747 3.5665,-3.8226 0,-0.49592 -0.43143,-1.7117 -0.95872,-2.7017 -1.0119,-1.8998 -1.2826,-3.7151 -0.71291,-4.7804 0.37645,-0.70382 1.0256,-0.99981 4.2143,-1.9215 2.6795,-0.77453 3.6483,-1.5597 4.0303,-3.2664 0.32682,-1.4601 0.16624,-2.3985 -0.71055,-4.1527 -0.71384,-1.4283 -5.3629,-8.5506 -6.717,-10.291 -1.8198,-2.3382 -4.0366,-6.3779 -4.6923,-8.5506 -0.64631,-2.1417 -0.65063,-2.263 -0.17906,-5.0315 0.9969,-5.8523 0.41399,-10.704 -2.4226,-20.165 -2.1081,-7.0312 -2.6742,-8.7381 -3.3344,-10.054 -1.1935,-2.3783 -1.034,-2.935 1.4146,-4.9396 1.172,-0.95953 2.2609,-1.9875 2.4197,-2.2844 0.73941,-1.3825 -0.087,-4.0463 -1.488,-4.7966 -0.88918,-0.47621 -1.3842,-0.14929 -2.2869,1.5105 -0.68402,1.2576 -0.95216,1.4957 -1.6842,1.4957 -1.1916,0 -1.4005,-0.49983 -0.63954,-1.5298 0.88726,-1.2009 0.81699,-1.3934 -0.57677,-1.5805 -1.0433,-0.14002 -1.5947,-0.5477 -3.8564,-2.851 -3.0323,-3.088 -5.0693,-4.511 -9.13,-6.3781 -1.8615,-0.8559 -2.5098,-1.261 -1.8269,-1.1415 0.58224,0.10186 2.6409,0.26464 4.5748,0.36172 5.6116,0.28169 6.9756,-0.45969 8.2834,-4.5022 0.88791,-2.7447 1.3138,-4.0141 -0.72368,-5.9304 l -7.4783,-7.0335 h 167.79 v 157.28 h -198.99 z" />
  <path
     style="fill:url(#linearGradient4037);fill-opacity:1"
     inkscape:connector-curvature="0"
     id="path12"
     d="m 123.3597,223.89678 c -1.2178,-0.12782 -2.2737,-0.18336 -2.3464,-0.25618 -0.12805,-0.12814 1.2473,-1.0123 7.5463,-4.8512 2.0204,-1.2313 2.8516,-1.8913 2.5709,-2.0414 -0.22812,-0.12198 -1.9917,-0.31534 -3.919,-0.4297 -2.8634,-0.16991 -3.6932,-0.12115 -4.537,0.26657 -0.56797,0.26097 -2.8346,0.94739 -5.037,1.5254 -5.4624,1.4335 -7.3006,2.4176 -9.0545,4.8477 l -0.65535,0.93879 h -107.68 v -157.28 h 213.64 l -4.1395,2.7021 c -2.2789,1.1314 -4.9273,2.7028 -5.8853,3.492 -3.2496,2.6771 -7.6255,8.7671 -8.7182,12.133 -0.40161,1.2372 -0.76621,1.701 -1.9985,2.542 -1.8804,1.2834 -4.1328,3.7307 -5.9979,6.517 -2.5325,3.7833 -7.3596,12.31 -8.3081,14.675 -1.4714,3.6693 -1.3377,6.4633 0.83377,17.429 0.95597,4.8275 1.9904,9.7307 2.2987,10.896 0.3083,1.1653 0.64574,3.1402 0.74986,4.3887 0.1859,2.2292 0.3308,2.7118 1.6358,5.448 0.35727,0.7491 0.6492,1.5992 0.64874,1.8891 -6e-4,0.2899 0.27138,0.69721 0.60409,0.90513 0.34506,0.21564 0.60493,0.70583 0.60493,1.1411 0,0.52433 0.68887,1.5194 2.202,3.1808 3.4616,3.8009 5.9646,7.364 5.9646,8.491 0,0.92551 -1.3576,1.1647 -3.545,0.62456 -2.5566,-0.63132 -4.6479,-1.9949 -7.873,-5.1334 -1.3724,-1.3356 -2.4953,-2.2335 -2.4953,-1.9954 0,0.2381 0.94098,1.4798 2.0911,2.7594 2.2873,2.5448 2.6461,3.2392 2.1514,4.164 -0.4327,0.80905 -1.4855,1.0446 -2.9097,0.65114 -1.6436,-0.45411 -2.6066,0.17889 -2.3355,1.5351 0.16629,0.83202 0.12067,0.9299 -0.34933,0.74942 -0.92911,-0.35677 -2.9623,-0.76544 -4.7906,-0.96291 -1.6795,-0.18139 -1.8038,-0.25504 -2.8204,-1.6711 -0.77044,-1.0731 -1.3699,-1.5674 -2.1751,-1.7935 -3.0013,-0.84281 -10.466,-2.1419 -15.479,-2.6937 -8.8103,-0.96986 -10.932,-1.046 -15.153,-0.54373 -3.2414,0.38571 -4.1228,0.61207 -5.8981,1.5147 -3.1426,1.5979 -8.5902,6.6049 -8.5902,7.8955 0,0.60547 1.1998,0.39186 2.571,-0.45771 4.1609,-2.5782 18.414,-6.2169 25.407,-6.4864 3.4654,-0.13352 3.2775,0.0325 -0.88034,0.77782 -1.1496,0.20609 -3.8718,0.9035 -6.0493,1.5498 -2.1775,0.64632 -5.9327,1.6422 -8.3448,2.2132 -2.4122,0.57091 -5.1343,1.3069 -6.0493,1.6356 l -1.6636,0.59756 2.571,0.0281 c 13.1,0.14315 28.033,4.302 34.11,9.4997 2.6149,2.2364 3.5724,2.5078 7.4188,2.1028 5.2713,-0.55511 12.094,-3.0717 15.086,-5.5645 1.2984,-1.0818 2.3666,-1.5119 2.3647,-0.95216 -0.003,0.98861 -1.7234,6.3032 -2.4667,7.6217 -0.82872,1.4699 -0.87579,1.6815 -0.44427,1.9973 0.26546,0.19424 0.40646,0.42941 0.31333,0.5226 -0.0931,0.0932 0.11315,0.25915 0.4584,0.3688 0.99265,0.31527 0.74286,0.61994 -0.8414,1.0262 -1.5445,0.3961 -2.7654,1.0896 -2.7654,1.5708 0,0.15703 0.2122,0.28551 0.47155,0.28551 0.77684,0 0.19713,0.54322 -0.81775,0.76628 -0.69488,0.15272 -0.83373,0.27752 -0.52585,0.47265 0.30183,0.19128 0.31304,0.26642 0.0403,0.26976 -0.20794,0.002 -0.37808,0.31189 -0.37808,0.68742 0,0.46755 -0.28603,0.80948 -0.90739,1.0847 -1.5144,0.67078 -1.0899,1.033 0.98301,0.83883 1.0397,-0.0974 1.6862,-0.0965 1.4367,0.002 -0.24954,0.0986 -1.9509,0.86875 -3.7808,1.7115 -1.8299,0.84269 -4.2118,1.843 -5.2931,2.223 -1.224,0.43011 -2.0059,0.88309 -2.0716,1.2003 -0.10557,0.50952 0.46274,0.49261 1.8922,-0.0563 0.26499,-0.10175 0.47848,-0.0683 0.47443,0.0744 -0.004,0.14266 -3.1543,1.9619 -7.0005,4.0427 -3.8462,2.0808 -7.4453,4.226 -7.9979,4.767 -0.55257,0.54101 -1.2596,0.98366 -1.5711,0.98366 -0.3135,0 -0.72321,0.34426 -0.91747,0.77091 -0.5875,1.2903 -0.46596,1.4472 0.93445,1.2066 2.0806,-0.35743 3.0342,-0.33774 3.1723,0.0655 0.0747,0.21813 -0.12153,0.37833 -0.46349,0.37833 -0.32621,0 -0.75584,0.19621 -0.95473,0.43603 -0.19891,0.23982 -0.72414,0.47817 -1.1672,0.52967 -0.51549,0.0599 -1.0248,0.4405 -1.4146,1.057 -0.33496,0.52983 -0.88123,1.0333 -1.2139,1.1188 -0.33271,0.0855 0.14367,0.0998 1.0586,0.0317 13.605,-1.0125 16.14,-1.5163 21.626,-4.2985 4.6808,-2.3735 9.5399,-5.902 12.996,-9.4375 0.99292,-1.0156 1.9117,-1.8465 2.0416,-1.8465 0.47001,0 0.21503,1.6977 -0.47895,3.189 -1.2011,2.581 -3.7211,4.9585 -8.901,8.3975 -2.6129,1.7348 -5.4313,3.3686 -6.2631,3.6307 -2.5988,0.8189 -6.7942,1.6912 -11.192,2.3272 -14.329,2.0718 -19.812,3.6433 -25.244,7.2345 -0.90905,0.60104 -1.8633,1.0571 -2.1206,1.0135 -0.25726,-0.0436 -0.94264,0.32681 -1.523,0.82317 -1.6325,1.396 -0.44976,1.1599 2.936,-0.58626 3.4696,-1.7894 5.0962,-2.0714 2.3604,-0.40918 -3.3546,2.0381 -5.9118,3.3153 -8.4153,3.3153 h -13.459 z m -17.8,-17.54 c 0.54382,-0.22737 2.3429,-1.2353 3.9979,-2.2398 1.655,-1.0045 3.6217,-2.1043 4.3703,-2.444 0.7486,-0.33965 2.8583,-1.2932 4.6882,-2.1191 3.8354,-1.731 9.4641,-3.3643 9.7878,-2.8402 0.11372,0.18411 0.95238,0.38687 1.8637,0.45058 1.2755,0.0892 1.5003,0.17117 0.97641,0.35618 -0.3743,0.13219 -0.68055,0.36065 -0.68055,0.50771 0,0.54755 2.8307,0.38329 4.0224,-0.23342 0.46723,-0.24178 1.5227,-0.51938 2.3456,-0.6169 1.023,-0.12124 1.4961,-0.31592 1.4961,-0.61575 0,-0.34221 0.25979,-0.39452 1.1836,-0.23833 1.2712,0.21491 4.0054,-0.3023 11.369,-2.1505 4.9866,-1.2517 8.7633,-2.5114 12.08,-4.0293 l 2.4016,-1.099 -2.4016,-1.539 c -5.8534,-3.7512 -11.731,-6.0546 -24.633,-9.6536 -2.2458,-0.62647 -4.2194,-1.2744 -4.3857,-1.4398 -0.20062,-0.19947 -0.0988,-0.22763 0.30247,-0.0837 1.2882,0.46225 2.2685,0.55085 2.2685,0.20503 0,-0.44856 -0.9741,-0.81017 -2.8879,-1.072 -1.7504,-0.23952 -2.8802,-0.76205 -1.6642,-0.76966 1.882,-0.0118 -1.3534,-1.2052 -4.9755,-1.8352 -2.6816,-0.46648 -2.8361,-0.56632 -1.716,-1.1091 0.97609,-0.47306 2.026,-2.2631 1.7497,-2.9834 -0.23447,-0.61144 -0.52692,-0.54837 -1.9773,0.42639 -2.7964,1.8793 -5.3613,4.9568 -6.8027,8.1622 -0.82224,1.8285 -0.53755,1.9962 3.6946,2.1772 3.4655,0.14817 3.5205,0.16151 2.632,0.6389 -0.49907,0.26816 -1.5002,0.57851 -2.2246,0.68966 -2.4606,0.37749 -3.8273,1.5458 -2.6075,2.2288 0.36225,0.20286 0.2185,0.37388 -0.671,0.79834 -0.99704,0.47577 -1.0672,0.57649 -0.5881,0.84477 0.29915,0.16752 1.169,0.25484 1.933,0.19403 1.0618,-0.0845 1.5466,0.0299 2.0577,0.48547 l 0.6687,0.59602 -1.3418,0.85153 c -0.738,0.46834 -1.5728,1.2882 -1.855,1.8219 -0.28226,0.53372 -1.2958,1.8035 -2.2524,2.8218 -0.95654,1.0183 -1.7392,2.0715 -1.7392,2.3405 0,0.269 -1.3951,1.6058 -3.1003,2.9707 -4.5856,3.6706 -6.5786,5.6881 -6.5786,6.6595 0,0.51401 -0.25912,0.97689 -0.71372,1.275 -1.4316,0.93862 -2.1787,2.023 -1.3938,2.023 0.17169,0 0.75712,-0.18603 1.3009,-0.41341 z m 35.382,-3.5366 c 1.1333,-0.15153 2.4457,-0.50314 2.9163,-0.78136 l 0.85575,-0.50584 -1.4595,-0.7278 -1.4595,-0.7278 -1.4568,0.59051 c -0.80123,0.32478 -1.9107,0.76239 -2.4656,0.97246 -2.2315,0.84489 -2.5227,1.9806 -0.42793,1.669 0.79018,-0.11753 2.364,-0.33768 3.4973,-0.48921 z m -51.211,-13.763 c 6.7404,-7.0523 11.497,-11.236 17.534,-15.423 2.0517,-1.4228 3.4971,-2.2454 3.5685,-2.031 0.19599,0.58835 1.0749,0.41514 2.5058,-0.49383 1.6442,-1.0445 2.4668,-2.1016 4.5193,-5.8078 2.1293,-3.845 2.9338,-4.8058 6.0075,-7.1743 1.4377,-1.1079 3.5548,-2.762 4.7047,-3.6757 1.657,-1.3167 2.055,-1.5249 1.9187,-1.0033 -0.10557,0.40396 -0.0327,0.65803 0.18876,0.65803 0.68719,0 3.9249,-1.3828 4.0389,-1.725 0.17819,-0.53491 -3.1113,-1.0873 -5.5446,-0.93101 -1.868,0.11997 -2.5296,0.33683 -4.8476,1.589 -5.4469,2.9424 -9.3816,6.1161 -16.895,13.628 -5.4069,5.4056 -9.6663,9.0301 -11.819,10.057 -0.70112,0.33456 -1.2291,1.0358 -2.0797,2.7621 -1.653,3.3551 -4.6044,8.1702 -7.406,12.083 -2.6478,3.6977 -3.216,4.9768 -1.1584,2.6073 0.70701,-0.81416 2.8507,-3.118 4.7638,-5.1196 z m 67.45,33.112 c 8.0951,-1.6836 8.9887,-1.809 14.67,-2.0579 6.3789,-0.2795 7.1918,-0.44535 11.029,-2.25 1.2295,-0.57822 1.7116,-0.68336 1.8825,-0.41051 0.29741,0.47495 2.3787,-0.65931 6.446,-3.513 1.6636,-1.1672 4.016,-2.6587 5.2277,-3.3146 1.8259,-0.98832 2.3845,-1.1584 3.2627,-0.99354 0.93776,0.17604 1.2154,0.0618 2.413,-0.99304 3.3192,-2.9236 6.1533,-4.2751 8.9837,-4.2841 0.84162,-0.003 1.1342,0.12188 1.1342,0.48278 0,0.30799 0.16641,0.42248 0.4537,0.31217 0.84325,-0.3238 0.46127,0.0465 -1.7073,1.6552 -2.5108,1.8625 -2.264,2.4218 0.28856,0.65391 2.4711,-1.7116 2.4773,-1.7141 2.4773,-1.0219 0,0.39439 -0.93017,1.3846 -2.6466,2.8175 -3.9051,3.26 -6.6703,5.9562 -10.88,10.608 l -3.7658,4.0411 h -47.889 l 8.6202,-1.7325 z m 0.0756,-61.613 c 0.29113,-0.0761 0.76751,-0.0761 1.0586,0 0.29112,0.0761 0.0529,0.13842 -0.52931,0.13842 -0.58225,0 -0.82044,-0.0623 -0.52932,-0.13842 z" />
  <path
     style="fill:#7f7f7f"
     inkscape:connector-curvature="0"
     id="path14"
     d="m 298.3597,149.04678 c -1.321,-0.19979 -0.63929,-0.69071 0.95911,-0.69071 1.6035,0 2.4488,-0.61598 2.4488,-1.7846 0,-0.54944 -0.11947,-0.63962 -0.63182,-0.4769 -0.44199,0.14038 -0.75667,0.0223 -1.0474,-0.39312 -0.27155,-0.38794 -0.92814,-0.66183 -1.894,-0.79003 -1.7253,-0.22902 -4.5193,-1.8959 -4.0183,-2.3972 0.17107,-0.17119 1.0593,-0.37336 1.9738,-0.44925 1.5761,-0.13079 1.6804,-0.1913 2.0002,-1.1609 0.23934,-0.72575 0.57217,-1.0782 1.1456,-1.2131 0.44454,-0.1046 1.1486,-0.50389 1.5644,-0.8873 0.41589,-0.38342 1.777,-1.3634 3.0246,-2.1778 2.0976,-1.3692 3.3971,-2.8286 2.9325,-3.2935 -0.48945,-0.48979 -5.0311,-1.0228 -7.167,-0.84112 -2.4813,0.21106 -6.7566,1.113 -8.5446,1.8026 -1.8354,0.70783 -1.2988,0.0914 1.2228,-1.4049 3.4041,-2.02 9.9571,-3.9034 13.581,-3.9034 1.406,0 6.1106,1.1119 6.671,1.5766 1.0977,0.91028 -0.0996,4.1058 -2.1357,5.7 l -0.85026,0.66572 0.69903,0.74588 0.699,0.74588 -0.71406,0.57962 c -0.39272,0.31879 -0.93069,0.57962 -1.1955,0.57962 -0.26477,0 -0.92034,0.42574 -1.4568,0.94608 -0.82573,0.80085 -0.93238,1.0594 -0.69491,1.6845 0.1839,0.484 0.1659,0.95277 -0.0522,1.3606 -0.20374,0.38091 -0.25477,1.247 -0.13163,2.2333 0.25141,2.0135 -0.1114,2.7348 -1.5809,3.1432 -1.0897,0.30282 -5.0794,0.36162 -6.807,0.10031 z" />
  <g
     id="text3115"
     style="font-size:50.75975418px;font-style:normal;font-variant:normal;font-weight:normal;font-stretch:normal;line-height:125%;letter-spacing:0px;word-spacing:0px;fill:#000000;font-family:Arial"
     font-weight="normal"
     transform="matrix(0.99237834,0,0,1.0076802,-182.9803,-188.05322)"
     font-stretch="normal"
     line-height="125%"
     font-size="50.75975418px"
     font-variant="normal"
     font-style="normal">
    <path
       inkscape:connector-curvature="0"
       id="path3941"
       d="m 200.21,484.7 0,14.899 1.0432,0 c 1.605,2e-5 2.9157,-0.24072 3.9322,-0.72223 1.0165,-0.48148 1.8724,-1.2929 2.568,-2.4342 0.7133,-1.1413 1.177,-2.6838 1.391,-4.6277 h 0.93623 v 18.216 h -0.93623 c -0.33886,-3.4418 -1.2662,-5.7066 -2.782,-6.7944 -1.498,-1.1056 -3.201,-1.6584 -5.1092,-1.6585 H 200.21 v 11.101 c -2e-5,1.8546 0.0981,3.0138 0.29424,3.4774 0.21398,0.46366 0.61523,0.87382 1.2037,1.2305 0.60631,0.33883 1.4177,0.50824 2.4342,0.50824 h 1.2037 v 0.98973 h -18.965 v -0.98973 h 1.2037 c 1.0522,0 1.8992,-0.18724 2.5412,-0.56174 0.46365,-0.24966 0.82031,-0.67765 1.07,-1.284 0.19616,-0.42799 0.29424,-1.5515 0.29425,-3.3704 v -23.861 c -1e-5,-1.8546 -0.0981,-3.0138 -0.29425,-3.4774 -0.19617,-0.46363 -0.59741,-0.86487 -1.2037,-1.2037 -0.58849,-0.35663 -1.391,-0.53496 -2.4075,-0.53499 h -1.2037 v -0.98974 h 30.601 v 10.406 h -1.0967 c -0.24969,-2.4431 -0.89168,-4.2532 -1.926,-5.4302 -1.0165,-1.177 -2.4966,-2.0062 -4.4404,-2.4877 -1.07,-0.26746 -3.0495,-0.40121 -5.9384,-0.40124 h -3.3704" />
    <path
       inkscape:connector-curvature="0"
       id="path3943"
       d="m 235.97,505.11 0,8.4707 c -1e-5,1.6347 0.0966,2.6675 0.28978,3.0985 0.20804,0.4161 0.5647,0.75047 1.07,1.0031 0.50525,0.25263 1.4489,0.37895 2.831,0.37895 v 0.82477 h -15.47 v -0.82477 c 1.3969,0 2.3406,-0.12632 2.831,-0.37895 0.50527,-0.2675 0.8545,-0.6093 1.0477,-1.0254 0.20805,-0.4161 0.31207,-1.4415 0.31208,-3.0762 v -19.616 c -1e-5,-1.6347 -0.10403,-2.6601 -0.31208,-3.0762 -0.19319,-0.43093 -0.54242,-0.77273 -1.0477,-1.0254 -0.50527,-0.2526 -1.4489,-0.37892 -2.831,-0.37895 v -0.82478 h 14.044 c 3.6558,3e-5 6.3307,0.25267 8.0249,0.75791 1.6941,0.5053 3.0762,1.4415 4.1462,2.8087 1.07,1.3524 1.6049,2.9425 1.605,4.7703 -3e-5,2.2292 -0.80251,4.0719 -2.4075,5.5282 -1.0254,0.92139 -2.4595,1.6124 -4.3022,2.0731 l 7.267,10.232 c 0.95107,1.3226 1.6272,2.1474 2.0285,2.4743 0.60926,0.46069 1.3152,0.71333 2.1177,0.75791 v 0.82477 h -9.5184 l -9.7413,-13.776 h -1.9839 m 0,-14.824 0,13.241 1.2706,0 c 2.0656,2e-5 3.6112,-0.18574 4.6366,-0.55728 1.0254,-0.38637 1.8279,-1.07 2.4075,-2.0508 0.59441,-0.99566 0.89163,-2.2886 0.89165,-3.8787 -2e-5,-2.3034 -0.54244,-4.005 -1.6273,-5.1047 -1.07,-1.0997 -2.8013,-1.6495 -5.1939,-1.6496 h -2.3852" />
    <path
       inkscape:connector-curvature="0"
       id="path3945"
       d="m 281.03,510.28 -10.678,0 -1.2706,2.9424 c -0.41611,0.98082 -0.62416,1.7907 -0.62416,2.4298 0,0.84707 0.3418,1.4712 1.0254,1.8725 0.40124,0.23777 1.3895,0.4161 2.9647,0.53499 v 0.82477 h -10.053 v -0.82477 c 1.0848,-0.16347 1.9765,-0.6093 2.675,-1.3375 0.69846,-0.74304 1.5604,-2.2663 2.5858,-4.5697 l 10.811,-24.119 h 0.42354 l 10.9,24.788 c 1.0402,2.348 1.8947,3.8267 2.5635,4.436 0.50524,0.46069 1.2186,0.72818 2.14,0.80249 v 0.82477 h -14.623 v -0.82477 h 0.60187 c 1.174,0 1.9988,-0.16347 2.4743,-0.49041 0.32692,-0.23777 0.49039,-0.57957 0.49041,-1.0254 -2e-5,-0.26749 -0.0446,-0.54242 -0.13375,-0.82478 -0.0297,-0.13374 -0.25266,-0.69102 -0.66874,-1.6718 l -1.605,-3.7672 m -0.75791,-1.6496 -4.5028,-10.41 -4.6366,10.41 9.1394,0" />
    <path
       inkscape:connector-curvature="0"
       id="path3947"
       d="m 311.6,488.65 14.913,18.747 0,-12.996 c -3e-5,-1.813 -0.26009,-3.039 -0.7802,-3.6781 -0.71334,-0.8619 -1.9096,-1.278 -3.5889,-1.2483 v -0.82478 h 9.9865 v 0.82478 c -1.2781,0.1635 -2.14,0.37898 -2.5858,0.64645 -0.43099,0.25266 -0.77279,0.6762 -1.0254,1.2706 -0.2378,0.5796 -0.35669,1.5827 -0.35666,3.0093 v 25.167 h -0.7579 l -20.441,-25.167 v 19.215 c -10e-6,1.7387 0.39381,2.9127 1.1814,3.522 0.80248,0.6093 1.7164,0.91395 2.7418,0.91395 h 0.71332 v 0.82477 h -10.722 v -0.82477 c 1.6644,-0.0149 2.8236,-0.35666 3.4774,-1.0254 0.65387,-0.66874 0.98081,-1.8056 0.98082,-3.4106 v -21.333 l -0.64645,-0.80248 c -0.63902,-0.80246 -1.2037,-1.33 -1.6941,-1.5827 -0.49041,-0.25261 -1.1963,-0.39379 -2.1177,-0.42354 v -0.82478 h 10.722" />
    <path
       inkscape:connector-curvature="0"
       id="path3949"
       d="m 368.9,487.96 0,10.477 -0.86936,0 c -0.65391,-2.7344 -1.8725,-4.8298 -3.6558,-6.2861 -1.7833,-1.4563 -3.8044,-2.1845 -6.0632,-2.1846 -1.8874,3e-5 -3.6186,0.54245 -5.1939,1.6273 -1.5753,1.0849 -2.727,2.5041 -3.4552,4.2576 -0.93624,2.244 -1.4044,4.7406 -1.4044,7.4899 -1e-5,2.7047 0.34179,5.1716 1.0254,7.4007 0.68359,2.2143 1.7536,3.8935 3.21,5.0378 1.4563,1.1294 3.3437,1.6941 5.662,1.6941 1.9022,10e-6 3.6409,-0.4161 5.2162,-1.2483 1.5901,-0.8322 3.2619,-2.2663 5.0155,-4.3022 v 2.6081 c -1.6942,1.7684 -3.4626,3.0539 -5.3053,3.8564 -1.8279,0.78762 -3.9679,1.1814 -6.4199,1.1814 -3.2248,0 -6.093,-0.64644 -8.6044,-1.9393 -2.4966,-1.2929 -4.4285,-3.1505 -5.7957,-5.5728 -1.3523,-2.4223 -2.0285,-5.0007 -2.0285,-7.7351 0,-2.883 0.75047,-5.6174 2.2514,-8.2032 1.5158,-2.5858 3.5517,-4.592 6.1078,-6.0186 2.5709,-1.4266 5.2979,-2.1399 8.1809,-2.14 2.1251,3e-5 4.3691,0.46072 6.732,1.3821 1.3672,0.53502 2.2365,0.80252 2.6081,0.80249 0.47552,3e-5 0.88419,-0.17087 1.226,-0.5127 0.35663,-0.35663 0.58698,-0.91391 0.69103,-1.6718 h 0.86936" />
    <path
       inkscape:connector-curvature="0"
       id="path3951"
       d="m 389.07,490.39 0,12.305 0.60187,0 c 1.917,2e-5 3.3065,-0.60185 4.1685,-1.8056 0.86191,-1.2037 1.4118,-2.9796 1.6496,-5.3276 h 0.84707 v 15.827 h -0.84707 c -0.17835,-1.7238 -0.5573,-3.1356 -1.1368,-4.2353 -0.56473,-1.0997 -1.226,-1.8353 -1.9839,-2.2068 -0.75792,-0.38637 -1.8576,-0.57956 -3.2991,-0.57957 v 8.5153 c -1e-5,1.6644 0.0669,2.6824 0.20062,3.0539 0.1486,0.37152 0.41609,0.67617 0.80249,0.91394 0.38637,0.23777 1.0105,0.35666 1.8725,0.35666 h 1.8056 c 2.8235,0 5.0824,-0.65388 6.7766,-1.9616 1.709,-1.3078 2.935,-3.2991 3.6781,-5.9741 h 0.82478 l -1.3598,9.6075 h -26.125 v -0.82477 h 1.0031 c 0.87678,0 1.5827,-0.15604 2.1177,-0.46812 0.38638,-0.20805 0.68359,-0.56471 0.89165,-1.07 0.16346,-0.35666 0.2452,-1.2929 0.2452,-2.8087 v -19.884 c 0,-1.3672 -0.0371,-2.2068 -0.11145,-2.5189 -0.14862,-0.52011 -0.42354,-0.92135 -0.82478,-1.2037 -0.56472,-0.41608 -1.3375,-0.62413 -2.3183,-0.62416 h -1.0031 v -0.82478 h 25.301 v 8.9388 h -0.84707 c -0.43099,-2.1845 -1.0403,-3.7523 -1.8279,-4.7035 -0.77279,-0.95107 -1.8725,-1.6495 -3.2991,-2.0954 -0.83223,-0.26747 -2.3926,-0.40122 -4.6812,-0.40125 h -3.1208" />
    <path
       inkscape:connector-curvature="0"
       id="path3953"
       d="m 446.28,518.88 0,-0.98973 1.2037,0 c 1.0521,0 1.8546,-0.16049 2.4075,-0.48149 0.57065,-0.33883 0.98972,-0.79357 1.2572,-1.3642 0.16049,-0.37449 0.24074,-1.498 0.24074,-3.3704 v -23.861 c 0,-1.8546 -0.0981,-3.0138 -0.29424,-3.4774 -0.19617,-0.46363 -0.59742,-0.86487 -1.2037,-1.2037 -0.5885,-0.35663 -1.391,-0.53496 -2.4075,-0.53499 H 446.28 v -0.98974 h 16.237 c 4.3334,4e-5 7.8198,0.58853 10.459,1.7655 3.2278,1.4445 5.6709,3.6291 7.3294,6.5536 1.6763,2.9246 2.5144,6.2327 2.5145,9.9241 -4e-5,2.5501 -0.4102,4.9041 -1.2305,7.0619 -0.82036,2.14 -1.8814,3.9144 -3.1832,5.3232 -1.3018,1.391 -2.8087,2.5145 -4.5207,3.3704 -1.6942,0.83816 -3.7717,1.4891 -6.2326,1.9527 -1.0878,0.214 -2.7998,0.32099 -5.1359,0.32099 H 446.28 m 13.83,-34.213 0,28.301 c -1e-5,1.498 0.0713,2.4164 0.214,2.7552 0.14265,0.33883 0.38339,0.59741 0.72224,0.77574 0.48147,0.26749 1.177,0.40124 2.0865,0.40124 2.9781,0 5.2518,-1.0165 6.8211,-3.0494 2.1399,-2.7463 3.2099,-7.0084 3.21,-12.786 -3e-5,-4.6544 -0.73118,-8.3726 -2.1935,-11.155 -1.1592,-2.1756 -2.6482,-3.6557 -4.4672,-4.4404 -1.284,-0.55279 -3.415,-0.82028 -6.3931,-0.80248" />
    <path
       inkscape:connector-curvature="0"
       id="path3955"
       d="m 507.07,518.06 0,0.82477 -15.805,0 0,-0.82477 1.0031,0 c 0.87679,0 1.5827,-0.15604 2.1177,-0.46812 0.38638,-0.20805 0.6836,-0.56471 0.89166,-1.07 0.16346,-0.35666 0.24519,-1.2929 0.2452,-2.8087 v -19.884 c -10e-6,-1.5455 -0.0817,-2.5115 -0.2452,-2.8979 -0.16348,-0.38635 -0.49785,-0.72072 -1.0031,-1.0031 -0.49041,-0.29719 -1.1592,-0.4458 -2.0062,-0.44583 h -1.0031 v -0.82478 h 15.805 v 0.82478 h -1.0031 c -0.87681,3e-5 -1.5827,0.15607 -2.1177,0.46812 -0.3864,0.20808 -0.69105,0.56474 -0.91395,1.07 -0.16348,0.35669 -0.24521,1.2929 -0.2452,2.8087 v 19.884 c -1e-5,1.5455 0.0817,2.5115 0.2452,2.8979 0.17832,0.38639 0.51269,0.72819 1.0031,1.0254 0.50526,0.28236 1.1814,0.42354 2.0285,0.42354 h 1.0031" />
    <path
       inkscape:connector-curvature="0"
       id="path3957"
       d="m 525.43,505.11 0,8.4707 c -10e-6,1.6347 0.0966,2.6675 0.28979,3.0985 0.20804,0.4161 0.5647,0.75047 1.07,1.0031 0.50526,0.25263 1.4489,0.37895 2.831,0.37895 v 0.82477 h -15.47 v -0.82477 c 1.3969,0 2.3406,-0.12632 2.831,-0.37895 0.50526,-0.2675 0.85449,-0.6093 1.0477,-1.0254 0.20804,-0.4161 0.31207,-1.4415 0.31207,-3.0762 v -19.616 c 0,-1.6347 -0.10403,-2.6601 -0.31207,-3.0762 -0.1932,-0.43093 -0.54243,-0.77273 -1.0477,-1.0254 -0.50528,-0.2526 -1.4489,-0.37892 -2.831,-0.37895 v -0.82478 h 14.044 c 3.6558,3e-5 6.3307,0.25267 8.0249,0.75791 1.6941,0.5053 3.0762,1.4415 4.1462,2.8087 1.07,1.3524 1.605,2.9425 1.605,4.7703 -3e-5,2.2292 -0.80252,4.0719 -2.4075,5.5282 -1.0254,0.92139 -2.4595,1.6124 -4.3022,2.0731 l 7.267,10.232 c 0.95106,1.3226 1.6272,2.1474 2.0285,2.4743 0.60927,0.46069 1.3152,0.71333 2.1177,0.75791 v 0.82477 h -9.5184 l -9.7413,-13.776 h -1.9839 m 0,-14.824 0,13.241 1.2706,0 c 2.0656,2e-5 3.6112,-0.18574 4.6366,-0.55728 1.0254,-0.38637 1.8279,-1.07 2.4075,-2.0508 0.59442,-0.99566 0.89163,-2.2886 0.89165,-3.8787 -2e-5,-2.3034 -0.54244,-4.005 -1.6273,-5.1047 -1.07,-1.0997 -2.8013,-1.6495 -5.1939,-1.6496 h -2.3852" />
    <path
       inkscape:connector-curvature="0"
       id="path3959"
       d="m 563.94,490.39 0,12.305 0.60186,0 c 1.917,2e-5 3.3065,-0.60185 4.1685,-1.8056 0.86191,-1.2037 1.4118,-2.9796 1.6496,-5.3276 h 0.84707 v 15.827 h -0.84707 c -0.17835,-1.7238 -0.5573,-3.1356 -1.1369,-4.2353 -0.56473,-1.0997 -1.226,-1.8353 -1.9839,-2.2068 -0.75792,-0.38637 -1.8576,-0.57956 -3.2991,-0.57957 v 8.5153 c -2e-5,1.6644 0.0669,2.6824 0.20062,3.0539 0.14859,0.37152 0.41609,0.67617 0.80248,0.91394 0.38637,0.23777 1.0105,0.35666 1.8725,0.35666 h 1.8056 c 2.8235,0 5.0824,-0.65388 6.7766,-1.9616 1.709,-1.3078 2.935,-3.2991 3.6781,-5.9741 h 0.82478 l -1.3598,9.6075 h -26.125 v -0.82477 h 1.0031 c 0.87679,0 1.5827,-0.15604 2.1177,-0.46812 0.38638,-0.20805 0.6836,-0.56471 0.89165,-1.07 0.16347,-0.35666 0.2452,-1.2929 0.24521,-2.8087 v -19.884 c -10e-6,-1.3672 -0.0372,-2.2068 -0.11146,-2.5189 -0.14861,-0.52011 -0.42354,-0.92135 -0.82478,-1.2037 -0.56471,-0.41608 -1.3375,-0.62413 -2.3183,-0.62416 h -1.0031 v -0.82478 h 25.301 v 8.9388 h -0.84707 c -0.43099,-2.1845 -1.0403,-3.7523 -1.8279,-4.7035 -0.77279,-0.95107 -1.8725,-1.6495 -3.2991,-2.0954 -0.83223,-0.26747 -2.3926,-0.40122 -4.6812,-0.40125 h -3.1208" />
    <path
       inkscape:connector-curvature="0"
       id="path3961"
       d="m 617.67,487.96 0,10.477 -0.86936,0 c -0.65391,-2.7344 -1.8725,-4.8298 -3.6558,-6.2861 -1.7833,-1.4563 -3.8044,-2.1845 -6.0632,-2.1846 -1.8874,3e-5 -3.6186,0.54245 -5.1939,1.6273 -1.5753,1.0849 -2.727,2.5041 -3.4552,4.2576 -0.93624,2.244 -1.4044,4.7406 -1.4044,7.4899 -10e-6,2.7047 0.34179,5.1716 1.0254,7.4007 0.68359,2.2143 1.7536,3.8935 3.2099,5.0378 1.4564,1.1294 3.3437,1.6941 5.662,1.6941 1.9022,10e-6 3.6409,-0.4161 5.2162,-1.2483 1.5901,-0.8322 3.2619,-2.2663 5.0155,-4.3022 v 2.6081 c -1.6942,1.7684 -3.4626,3.0539 -5.3053,3.8564 -1.8279,0.78762 -3.9679,1.1814 -6.4199,1.1814 -3.2248,0 -6.093,-0.64644 -8.6044,-1.9393 -2.4966,-1.2929 -4.4285,-3.1505 -5.7957,-5.5728 -1.3523,-2.4223 -2.0285,-5.0007 -2.0285,-7.7351 -10e-6,-2.883 0.75047,-5.6174 2.2514,-8.2032 1.5158,-2.5858 3.5517,-4.592 6.1078,-6.0186 2.5709,-1.4266 5.2979,-2.1399 8.1809,-2.14 2.1251,3e-5 4.3691,0.46072 6.732,1.3821 1.3672,0.53502 2.2365,0.80252 2.6081,0.80249 0.47552,3e-5 0.88419,-0.17087 1.226,-0.5127 0.35663,-0.35663 0.58697,-0.91391 0.69103,-1.6718 h 0.86936" />
    <path
       inkscape:connector-curvature="0"
       id="path3963"
       d="m 654.19,488.65 0,8.1809 -0.80249,0 c -0.47557,-1.8873 -1.0031,-3.2396 -1.5827,-4.057 -0.5796,-0.83218 -1.3746,-1.4935 -2.3852,-1.9839 -0.56473,-0.26747 -1.553,-0.40122 -2.9647,-0.40125 h -2.2514 v 23.317 c -2e-5,1.5455 0.0817,2.5115 0.24521,2.8979 0.17831,0.38639 0.51268,0.72819 1.0031,1.0254 0.50525,0.28236 1.1888,0.42354 2.0508,0.42354 h 1.0031 v 0.82477 h -15.827 v -0.82477 h 1.0031 c 0.87678,0 1.5827,-0.15604 2.1177,-0.46812 0.38637,-0.20805 0.69102,-0.56471 0.91394,-1.07 0.16346,-0.35666 0.24519,-1.2929 0.2452,-2.8087 v -23.317 h -2.1845 c -2.036,3e-5 -3.5146,0.431 -4.436,1.2929 -1.2929,1.2038 -2.1102,2.9202 -2.452,5.1493 h -0.84707 v -8.1809 h 27.151" />
  </g>
  <g
     id="text3141"
     style="font-size:23.359478px;font-style:normal;font-variant:normal;font-weight:normal;font-stretch:normal;line-height:125%;letter-spacing:0px;word-spacing:0px;fill:#000000;font-family:Arial"
     font-weight="normal"
     font-size="23.359478px"
     font-style="normal"
     font-stretch="normal"
     line-height="125%"
     font-variant="normal"
     transform="translate(-182.9803,-188.05322)">
    <path
       inkscape:connector-curvature="0"
       id="path3904"
       d="m 194.81,451.28 c -2.1824,0 -3.9455,-0.44578 -5.2895,-1.3374 -1.344,-0.89157 -2.3553,-2.1092 -3.034,-3.6528 -0.66535,-1.5436 -0.99802,-3.0473 -0.99802,-4.5111 0,-2.9541 0.84499,-5.9282 2.535,-8.9223 1.69,-3.0074 3.9655,-5.4093 6.8265,-7.2057 2.8743,-1.8097 5.7087,-2.7146 8.5032,-2.7146 1.6367,2e-5 3.187,0.41254 4.6508,1.2376 1.477,0.82506 2.6214,1.9761 3.4332,3.4532 0.825,1.4771 1.2375,2.9675 1.2376,4.4712 -3e-5,3.3667 -1.0712,6.7467 -3.2136,10.14 -2.1424,3.38 -4.551,5.8285 -7.2257,7.3455 -2.0227,1.1311 -4.4978,1.6966 -7.4253,1.6966 m 7.8844,-26.707 c -1.0513,2e-5 -1.9495,0.19297 -2.6947,0.57885 -0.73191,0.37262 -1.4971,1.0047 -2.2955,1.8962 -0.79843,0.89159 -1.6102,2.1691 -2.4352,3.8324 -0.82505,1.6501 -1.6035,3.899 -2.3354,6.7466 -0.71858,2.8477 -1.0779,5.223 -1.0779,7.1259 -1e-5,1.6235 0.35262,2.8544 1.0579,3.6927 0.70526,0.82504 1.6101,1.2376 2.7146,1.2376 1.4638,0 2.708,-0.4857 3.7326,-1.4571 2.036,-1.9295 3.6927,-4.7572 4.9702,-8.4832 1.2908,-3.7392 1.9362,-7.066 1.9362,-9.9802 -2e-5,-1.823 -0.34601,-3.1404 -1.038,-3.9522 -0.67867,-0.82501 -1.5237,-1.2375 -2.535,-1.2376" />
    <path
       inkscape:connector-curvature="0"
       id="path3906"
       d="m 220.78,438.22 4.7192,-0.79842 0.85545,0 -0.64159,2.324 c 0.99802,-0.91247 1.8154,-1.5255 2.4523,-1.8392 0.63683,-0.32315 1.2689,-0.48474 1.8962,-0.48475 0.89345,1e-5 1.5826,0.34694 2.0673,1.0408 0.48474,0.68437 0.72712,1.5256 0.72714,2.5236 -2e-5,2.7279 -0.94576,5.147 -2.8372,7.2571 -1.6729,1.863 -3.4978,2.7945 -5.4749,2.7945 -0.35169,0 -0.6511,-0.0333 -0.89823,-0.0998 -0.24713,-0.0665 -0.59406,-0.21386 -1.0408,-0.44198 l -0.74139,2.5664 c -0.26614,0.93148 -0.39921,1.6396 -0.39921,2.1244 0,0.30415 0.10455,0.54177 0.31366,0.71287 0.20911,0.18059 0.69862,0.33267 1.4685,0.45624 l -0.12832,0.52753 h -7.6705 l 0.14257,-0.52753 c 0.60832,-0.019 1.1168,-0.21387 1.5256,-0.58456 0.39921,-0.3707 0.77466,-1.1691 1.1263,-2.3953 l 3.4788,-11.991 c 0.25664,-0.89346 0.38495,-1.5255 0.38496,-1.8962 -1e-5,-0.16157 -0.038,-0.29464 -0.11406,-0.3992 -0.0761,-0.11405 -0.19011,-0.19485 -0.34218,-0.24238 -0.15209,-0.0475 -0.49427,-0.0713 -1.0265,-0.0713 l 0.15683,-0.55604 m 2.2242,10.95 c 0.28514,0.46575 0.54178,0.77941 0.7699,0.941 0.22812,0.15208 0.49426,0.22812 0.79842,0.22812 0.30416,0 0.59881,-0.0808 0.88397,-0.24238 0.29464,-0.17109 0.65583,-0.50852 1.0836,-1.0123 0.42771,-0.50376 0.83643,-1.1501 1.2261,-1.939 0.3992,-0.78891 0.71762,-1.6824 0.95525,-2.6804 0.23762,-1.0075 0.35643,-1.9675 0.35644,-2.88 -1e-5,-0.73188 -0.13308,-1.2642 -0.39921,-1.5968 -0.25664,-0.33267 -0.57031,-0.499 -0.94099,-0.49902 -0.33269,2e-5 -0.64635,0.0856 -0.941,0.25664 -0.42773,0.24714 -0.9315,0.70813 -1.5113,1.383 l -2.2812,8.0412" />
    <path
       inkscape:connector-curvature="0"
       id="path3908"
       d="m 244.34,445.29 c -0.0856,0.61783 -0.12832,1.1264 -0.12832,1.5256 0,0.71287 0.20436,1.2832 0.61308,1.7109 0.41821,0.42772 0.97425,0.64158 1.6681,0.64158 0.66535,0 1.3307,-0.16158 1.996,-0.48475 0.67485,-0.32317 1.4543,-0.88872 2.3382,-1.6966 l 0.42773,0.38495 c -1.0931,1.3212 -2.1576,2.2622 -3.1937,2.823 -1.036,0.5608 -2.1814,0.84119 -3.4361,0.84119 -1.5873,0 -2.6852,-0.3802 -3.2935,-1.1406 -0.60832,-0.7604 -0.91248,-1.6396 -0.91248,-2.6376 0,-1.5588 0.45149,-3.1176 1.3545,-4.6765 0.91248,-1.5588 2.1481,-2.8087 3.707,-3.7497 1.5683,-0.94098 3.1414,-1.4115 4.7192,-1.4115 0.79841,1e-5 1.402,0.19011 1.8107,0.5703 0.40871,0.38021 0.61306,0.86021 0.61308,1.44 -2e-5,0.69388 -0.19962,1.3687 -0.59882,2.0246 -0.5513,0.89348 -1.2452,1.6159 -2.0816,2.1671 -0.83645,0.54179 -1.7727,0.95526 -2.8087,1.2404 -0.69387,0.19011 -1.6254,0.33268 -2.7945,0.42772 m 0.12832,-0.74138 c 0.83643,-0.12356 1.4828,-0.2899 1.939,-0.49902 0.46574,-0.21861 0.91722,-0.56078 1.3545,-1.0265 0.44673,-0.47524 0.83168,-1.0693 1.1549,-1.7822 0.32316,-0.72237 0.48474,-1.3972 0.48475,-2.0246 -1e-5,-0.26613 -0.0761,-0.47524 -0.22812,-0.62733 -0.14258,-0.15206 -0.32793,-0.2281 -0.55604,-0.22812 -0.45625,2e-5 -0.96952,0.31843 -1.5398,0.95526 -1.0456,1.1596 -1.9153,2.9038 -2.6091,5.2325" />
    <path
       inkscape:connector-curvature="0"
       id="path3910"
       d="m 266.68,437.42 -1.7679,6.1165 c 1.1881,-1.7869 2.0768,-3.0083 2.6662,-3.6642 0.86495,-0.95049 1.6111,-1.5968 2.2384,-1.939 0.62731,-0.34217 1.2166,-0.51326 1.7679,-0.51327 0.49424,10e-6 0.91721,0.18536 1.2689,0.55604 0.35167,0.3612 0.52752,0.83645 0.52753,1.4258 -1e-5,0.53229 -0.11407,1.1786 -0.34218,1.939 l -1.825,6.088 c -0.15209,0.53228 -0.22813,0.87921 -0.22812,1.0408 -10e-6,0.0951 0.0333,0.18059 0.0998,0.25663 0.076,0.076 0.15207,0.11406 0.22812,0.11406 0.095,0 0.19484,-0.038 0.29941,-0.11406 0.33266,-0.27564 0.67009,-0.66535 1.0123,-1.1691 0.0855,-0.13307 0.22336,-0.33268 0.41347,-0.59882 l 0.54178,0.32792 c -1.3972,2.3477 -2.8658,3.5216 -4.4056,3.5216 -0.58932,0 -1.0503,-0.15208 -1.383,-0.45624 -0.33268,-0.30415 -0.49902,-0.68435 -0.49901,-1.1406 -1e-5,-0.39921 0.11405,-0.99327 0.34218,-1.7822 l 1.7822,-6.088 c 0.12355,-0.3992 0.18533,-0.69386 0.18534,-0.88397 -10e-6,-0.10454 -0.0428,-0.19484 -0.12831,-0.27089 -0.0856,-0.0855 -0.18536,-0.1283 -0.29941,-0.12832 -0.3612,2e-5 -0.79843,0.24714 -1.3117,0.74139 -1.3117,1.2547 -2.5806,3.1224 -3.8068,5.6032 l -1.1691,4.2345 h -3.6357 l 2.6662,-9.1533 c 0.25663,-0.90296 0.38494,-1.5446 0.38495,-1.9248 -10e-6,-0.16157 -0.038,-0.29464 -0.11406,-0.39921 -0.0761,-0.11405 -0.19961,-0.19959 -0.3707,-0.25663 -0.17109,-0.0665 -0.49426,-0.0998 -0.96951,-0.0998 l 0.15684,-0.54179 4.8048,-0.84119 h 0.86971" />
    <path
       inkscape:connector-curvature="0"
       id="path3912"
       d="m 293.28,450.64 0.23952,-0.73853 c 1.3041,0 2.2888,-0.26614 2.9542,-0.79842 0.67866,-0.54559 1.2376,-1.5569 1.6767,-3.034 l 4.9103,-17.066 c 0.31936,-1.1178 0.47904,-2.0359 0.47905,-2.7545 -10e-6,-0.6121 -0.18631,-1.0645 -0.5589,-1.3573 -0.3726,-0.29272 -1.324,-0.48568 -2.8544,-0.57885 l 0.23953,-0.73854 h 9.2617 c 4.8836,3e-5 8.4033,0.9914 10.559,2.9741 2.169,1.9695 3.2535,4.7373 3.2536,8.3036 -3e-5,2.515 -0.49905,4.6242 -1.497,6.3275 -1.9562,3.3268 -4.2782,5.7353 -6.9662,7.2257 -2.688,1.4904 -6.1412,2.2356 -10.36,2.2356 h -11.338 m 16.907,-25.47 -5.9482,20.519 c -0.27945,0.9448 -0.41917,1.6235 -0.41917,2.036 0,0.3726 0.15303,0.67201 0.4591,0.89823 0.3992,0.30606 0.99136,0.45909 1.7765,0.45909 1.8763,0 3.553,-0.58551 5.03,-1.7565 1.8896,-1.5037 3.3267,-3.5263 4.3115,-6.068 0.998,-2.5416 1.497,-5.0633 1.497,-7.565 -2e-5,-1.8097 -0.28612,-3.3866 -0.8583,-4.7306 -0.57222,-1.344 -1.4571,-2.3686 -2.6547,-3.0739 -0.83836,-0.47903 -1.9029,-0.71855 -3.1937,-0.71858" />
    <path
       inkscape:connector-curvature="0"
       id="path3914"
       d="m 344.45,437.62 -2.766,9.4812 -0.28515,1.1548 c -0.0285,0.14258 -0.0428,0.24714 -0.0428,0.31367 -10e-6,0.11406 0.038,0.21386 0.11406,0.29941 0.0855,0.0855 0.17108,0.12831 0.25664,0.12831 0.19959,0 0.47523,-0.15208 0.82693,-0.45624 0.14256,-0.12356 0.48474,-0.56079 1.0265,-1.3117 l 0.49901,0.25664 c -0.67487,1.2356 -1.3972,2.1386 -2.1671,2.7089 -0.76041,0.5608 -1.5826,0.84119 -2.4665,0.84119 -0.5418,0 -0.95526,-0.13782 -1.2404,-0.41346 -0.28515,-0.28515 -0.42773,-0.64159 -0.42772,-1.0693 -10e-6,-0.3707 0.15207,-1.0598 0.45624,-2.0673 l 0.34218,-1.1549 c -1.1026,1.8915 -2.1624,3.2317 -3.1794,4.0206 -0.58932,0.45624 -1.2166,0.68436 -1.882,0.68436 -0.87446,0 -1.5065,-0.35643 -1.8962,-1.0693 -0.3897,-0.72238 -0.58455,-1.535 -0.58455,-2.438 0,-1.3402 0.40871,-2.8752 1.2261,-4.6052 0.81743,-1.7394 1.8915,-3.1366 3.2222,-4.1917 1.0931,-0.87445 2.1196,-1.3117 3.0796,-1.3117 0.53227,1e-5 0.96,0.15684 1.2832,0.4705 0.32316,0.30417 0.56078,0.86496 0.71287,1.6824 l 0.51327,-1.7537 3.379,-0.19961 m -4.5624,2.7089 c -1e-5,-0.7699 -0.11882,-1.3259 -0.35644,-1.6681 -0.1711,-0.23761 -0.40397,-0.35642 -0.69862,-0.35644 -0.29466,2e-5 -0.59882,0.14259 -0.91248,0.42773 -0.63684,0.58932 -1.326,1.787 -2.0673,3.5929 -0.73189,1.7964 -1.0978,3.3505 -1.0978,4.6622 0,0.50376 0.0808,0.86971 0.24238,1.0978 0.17108,0.21862 0.35643,0.32793 0.55604,0.32793 0.42772,0 0.8602,-0.24713 1.2974,-0.74139 0.62733,-0.70337 1.1929,-1.5636 1.6966,-2.5806 0.89347,-1.7869 1.3402,-3.3743 1.3402,-4.762" />
    <path
       inkscape:connector-curvature="0"
       id="path3916"
       d="m 359.59,433.95 -1.1406,3.878 1.8677,0 -0.49901,1.6396 -1.8392,0 -2.381,8.2694 c -0.15209,0.51327 -0.22813,0.90297 -0.22812,1.1691 -1e-5,0.12357 0.0428,0.23287 0.12832,0.32792 0.0855,0.0856 0.18059,0.12832 0.28515,0.12832 0.16158,0 0.32791,-0.0665 0.49901,-0.1996 0.43722,-0.33268 0.94574,-0.91248 1.5256,-1.7394 l 0.49901,0.31367 c -0.65585,1.1406 -1.3782,1.977 -2.1671,2.5093 -0.78892,0.53227 -1.5636,0.79841 -2.324,0.79841 -0.64634,0 -1.1501,-0.16158 -1.5113,-0.48475 -0.35169,-0.33267 -0.52753,-0.75089 -0.52753,-1.2547 0,-0.55129 0.12356,-1.2594 0.3707,-2.1244 l 2.2527,-7.7133 h -1.939 l 0.28515,-1.055 c 1.2166,-0.44673 2.2432,-0.9695 3.0796,-1.5683 0.83643,-0.5988 1.844,-1.5636 3.0226,-2.8943 h 0.74139" />
    <path
       inkscape:connector-curvature="0"
       id="path3918"
       d="m 379.47,437.62 -2.766,9.4812 -0.28515,1.1548 c -0.0285,0.14258 -0.0428,0.24714 -0.0428,0.31367 -1e-5,0.11406 0.038,0.21386 0.11406,0.29941 0.0855,0.0855 0.17108,0.12831 0.25664,0.12831 0.19959,0 0.47523,-0.15208 0.82693,-0.45624 0.14256,-0.12356 0.48474,-0.56079 1.0265,-1.3117 l 0.49901,0.25664 c -0.67487,1.2356 -1.3972,2.1386 -2.1671,2.7089 -0.76041,0.5608 -1.5826,0.84119 -2.4665,0.84119 -0.5418,0 -0.95526,-0.13782 -1.2404,-0.41346 -0.28515,-0.28515 -0.42773,-0.64159 -0.42772,-1.0693 -10e-6,-0.3707 0.15207,-1.0598 0.45624,-2.0673 l 0.34218,-1.1549 c -1.1026,1.8915 -2.1624,3.2317 -3.1794,4.0206 -0.58932,0.45624 -1.2166,0.68436 -1.882,0.68436 -0.87446,0 -1.5065,-0.35643 -1.8962,-1.0693 -0.3897,-0.72238 -0.58455,-1.535 -0.58455,-2.438 0,-1.3402 0.40871,-2.8752 1.2261,-4.6052 0.81743,-1.7394 1.8915,-3.1366 3.2222,-4.1917 1.0931,-0.87445 2.1196,-1.3117 3.0796,-1.3117 0.53227,1e-5 0.96,0.15684 1.2832,0.4705 0.32316,0.30417 0.56078,0.86496 0.71287,1.6824 l 0.51327,-1.7537 3.379,-0.19961 m -4.5624,2.7089 c -10e-6,-0.7699 -0.11882,-1.3259 -0.35644,-1.6681 -0.1711,-0.23761 -0.40397,-0.35642 -0.69862,-0.35644 -0.29466,2e-5 -0.59882,0.14259 -0.91248,0.42773 -0.63684,0.58932 -1.326,1.787 -2.0673,3.5929 -0.73189,1.7964 -1.0978,3.3505 -1.0978,4.6622 0,0.50376 0.0808,0.86971 0.24238,1.0978 0.17108,0.21862 0.35643,0.32793 0.55604,0.32793 0.42772,0 0.8602,-0.24713 1.2974,-0.74139 0.62733,-0.70337 1.1929,-1.5636 1.6966,-2.5806 0.89347,-1.7869 1.3402,-3.3743 1.3402,-4.762" />
    <path
       inkscape:connector-curvature="0"
       id="path3920"
       d="m 408.53,436.13 c 1.0455,1e-5 2.0721,0.2709 3.0796,0.81267 1.0075,0.5418 1.7917,1.3165 2.3525,2.324 0.56078,1.0075 0.84118,2.0531 0.8412,3.1366 -2e-5,1.7394 -0.61309,3.2222 -1.8392,4.4483 -1.2262,1.2262 -2.7042,1.8392 -4.4341,1.8392 -1.7394,0 -3.2222,-0.61307 -4.4483,-1.8392 -1.2262,-1.2261 -1.8392,-2.7089 -1.8392,-4.4483 0,-1.0931 0.2804,-2.1386 0.8412,-3.1366 0.56079,-1.0075 1.345,-1.7822 2.3525,-2.324 1.0075,-0.54177 2.0388,-0.81266 3.0939,-0.81267" />
    <path
       inkscape:connector-curvature="0"
       id="path3922"
       d="m 443.49,423.57 21.777,0 -2.0559,7.2856 -0.71858,0 c 0.0266,-0.38588 0.0399,-0.72521 0.0399,-1.018 -3e-5,-1.3839 -0.40589,-2.4551 -1.2176,-3.2136 -0.81175,-0.77178 -2.1824,-1.2109 -4.1119,-1.3174 l -6.0281,20.38 c -0.33269,1.1311 -0.49903,1.9694 -0.49901,2.515 -2e-5,0.50566 0.20624,0.91153 0.61877,1.2176 0.41251,0.29276 1.2508,0.45244 2.515,0.47906 l -0.17965,0.73853 h -13.433 l 0.23953,-0.73853 c 1.3706,0 2.3686,-0.25284 2.9941,-0.7585 0.62542,-0.51897 1.1976,-1.67 1.7166,-3.4532 l 6.0281,-20.38 c -2.0759,0.0666 -3.8125,0.519 -5.2097,1.3573 -1.3972,0.83836 -2.6747,2.2356 -3.8324,4.1917 h -0.77846 l 2.1358,-7.2856" />
    <path
       inkscape:connector-curvature="0"
       id="path3924"
       d="m 472.66,445.29 c -0.0856,0.61783 -0.12832,1.1264 -0.12832,1.5256 0,0.71287 0.20436,1.2832 0.61308,1.7109 0.41821,0.42772 0.97425,0.64158 1.6681,0.64158 0.66534,0 1.3307,-0.16158 1.996,-0.48475 0.67485,-0.32317 1.4543,-0.88872 2.3382,-1.6966 l 0.42773,0.38495 c -1.0931,1.3212 -2.1576,2.2622 -3.1937,2.823 -1.0361,0.5608 -2.1814,0.84119 -3.4361,0.84119 -1.5873,0 -2.6852,-0.3802 -3.2935,-1.1406 -0.60832,-0.7604 -0.91248,-1.6396 -0.91248,-2.6376 0,-1.5588 0.45149,-3.1176 1.3545,-4.6765 0.91248,-1.5588 2.1481,-2.8087 3.707,-3.7497 1.5683,-0.94098 3.1414,-1.4115 4.7192,-1.4115 0.79841,1e-5 1.402,0.19011 1.8107,0.5703 0.4087,0.38021 0.61306,0.86021 0.61307,1.44 -1e-5,0.69388 -0.19961,1.3687 -0.59881,2.0246 -0.5513,0.89348 -1.2452,1.6159 -2.0816,2.1671 -0.83645,0.54179 -1.7727,0.95526 -2.8087,1.2404 -0.69387,0.19011 -1.6254,0.33268 -2.7945,0.42772 m 0.12832,-0.74138 c 0.83643,-0.12356 1.4828,-0.2899 1.939,-0.49902 0.46573,-0.21861 0.91722,-0.56078 1.3545,-1.0265 0.44673,-0.47524 0.83168,-1.0693 1.1549,-1.7822 0.32316,-0.72237 0.48474,-1.3972 0.48475,-2.0246 -10e-6,-0.26613 -0.0761,-0.47524 -0.22812,-0.62733 -0.14258,-0.15206 -0.32793,-0.2281 -0.55604,-0.22812 -0.45625,2e-5 -0.96952,0.31843 -1.5398,0.95526 -1.0456,1.1596 -1.9153,2.9038 -2.6091,5.2325" />
    <path
       inkscape:connector-curvature="0"
       id="path3926"
       d="m 494.96,437.42 -1.825,6.1307 c 1.2261,-1.882 2.1196,-3.1509 2.6804,-3.8068 0.82693,-0.95999 1.5065,-1.5873 2.0388,-1.882 0.54178,-0.29464 1.0836,-0.44197 1.6254,-0.44198 0.61781,1e-5 1.0645,0.18536 1.3402,0.55604 0.27563,0.37071 0.41345,0.77942 0.41347,1.2262 -2e-5,0.46575 -0.12833,1.1501 -0.38495,2.0531 l -0.64159,2.2955 c 1.2356,-1.901 2.1244,-3.1652 2.6662,-3.7925 0.83642,-0.9695 1.5636,-1.6253 2.1814,-1.9675 0.4277,-0.24711 0.88394,-0.37068 1.3687,-0.37069 0.50374,10e-6 0.92196,0.1711 1.2547,0.51327 0.34215,0.33269 0.51324,0.76991 0.51327,1.3117 -3e-5,0.60833 -0.1426,1.3972 -0.42773,2.3667 l -1.5826,5.318 c -0.23764,0.78891 -0.35646,1.2974 -0.35644,1.5256 -2e-5,0.076 0.0285,0.14733 0.0855,0.21386 0.0665,0.0665 0.1378,0.0998 0.21386,0.0998 0.10454,10e-6 0.19483,-0.0333 0.27089,-0.0998 0.34216,-0.27564 0.70335,-0.6796 1.0836,-1.2119 0.0855,-0.11405 0.21384,-0.2899 0.38495,-0.52752 l 0.48476,0.31366 c -0.65587,1.2262 -1.3782,2.1244 -2.1671,2.6947 -0.77943,0.5703 -1.5018,0.85545 -2.1671,0.85545 -0.57982,0 -1.0456,-0.15684 -1.3972,-0.4705 -0.3517,-0.32317 -0.52755,-0.69862 -0.52753,-1.1263 -2e-5,-0.40871 0.1188,-1.0265 0.35644,-1.8535 l 1.6111,-5.5604 c 0.2186,-0.76989 0.32791,-1.2499 0.32792,-1.44 -10e-6,-0.0665 -0.0333,-0.1283 -0.0998,-0.18534 -0.0665,-0.0665 -0.13308,-0.0998 -0.1996,-0.0998 -0.12358,2e-5 -0.24715,0.0285 -0.3707,0.0856 -0.18061,0.0951 -0.46101,0.34219 -0.84119,0.74139 -0.37071,0.39922 -0.90774,1.1168 -1.6111,2.1529 -0.70338,1.0266 -1.1929,1.8297 -1.4685,2.4095 -0.26615,0.57981 -0.53229,1.3307 -0.79842,2.2527 l -0.8697,2.937 h -3.6072 l 2.6662,-9.3101 c 0.14257,-0.50375 0.21385,-0.85069 0.21386,-1.0408 -10e-6,-0.0665 -0.0333,-0.1283 -0.0998,-0.18534 -0.057,-0.057 -0.11882,-0.0855 -0.18535,-0.0856 -0.35169,1e-5 -0.90773,0.461 -1.6681,1.383 -1.1596,1.4258 -2.2147,3.1414 -3.1652,5.147 l -1.1548,4.0919 h -3.6357 l 2.6804,-9.1676 c 0.26614,-0.90297 0.39921,-1.5446 0.39921,-1.9248 0,-0.15206 -0.038,-0.28038 -0.11406,-0.38495 -0.076,-0.11405 -0.1996,-0.19959 -0.37069,-0.25663 -0.17109,-0.0665 -0.49902,-0.0998 -0.98377,-0.0998 l 0.14258,-0.54179 4.8618,-0.84119 h 0.85545" />
    <path
       inkscape:connector-curvature="0"
       id="path3928"
       d="m 517.83,438.22 4.7192,-0.79842 0.85545,0 -0.64158,2.324 c 0.99801,-0.91247 1.8154,-1.5255 2.4523,-1.8392 0.63683,-0.32315 1.2689,-0.48474 1.8962,-0.48475 0.89346,1e-5 1.5826,0.34694 2.0673,1.0408 0.48474,0.68437 0.72712,1.5256 0.72713,2.5236 -10e-6,2.7279 -0.94576,5.147 -2.8372,7.2571 -1.6729,1.863 -3.4978,2.7945 -5.4749,2.7945 -0.35169,0 -0.6511,-0.0333 -0.89822,-0.0998 -0.24714,-0.0665 -0.59407,-0.21386 -1.0408,-0.44198 l -0.74139,2.5664 c -0.26614,0.93148 -0.39921,1.6396 -0.39921,2.1244 0,0.30415 0.10455,0.54177 0.31367,0.71287 0.2091,0.18059 0.69861,0.33267 1.4685,0.45624 l -0.12832,0.52753 h -7.6705 l 0.14258,-0.52753 c 0.60832,-0.019 1.1168,-0.21387 1.5256,-0.58456 0.39921,-0.3707 0.77466,-1.1691 1.1263,-2.3953 l 3.4788,-11.991 c 0.25663,-0.89346 0.38495,-1.5255 0.38495,-1.8962 0,-0.16157 -0.038,-0.29464 -0.11406,-0.3992 -0.076,-0.11405 -0.1901,-0.19485 -0.34218,-0.24238 -0.15208,-0.0475 -0.49426,-0.0713 -1.0265,-0.0713 l 0.15683,-0.55604 m 2.2242,10.95 c 0.28515,0.46575 0.54178,0.77941 0.76991,0.941 0.22811,0.15208 0.49425,0.22812 0.79842,0.22812 0.30415,0 0.5988,-0.0808 0.88396,-0.24238 0.29465,-0.17109 0.65584,-0.50852 1.0836,-1.0123 0.42772,-0.50376 0.83643,-1.1501 1.2261,-1.939 0.39921,-0.78891 0.71762,-1.6824 0.95526,-2.6804 0.23761,-1.0075 0.35642,-1.9675 0.35643,-2.88 -10e-6,-0.73188 -0.13308,-1.2642 -0.39921,-1.5968 -0.25664,-0.33267 -0.5703,-0.499 -0.94099,-0.49902 -0.33268,2e-5 -0.64635,0.0856 -0.94099,0.25664 -0.42774,0.24714 -0.9315,0.70813 -1.5113,1.383 l -2.2812,8.0412" />
    <path
       inkscape:connector-curvature="0"
       id="path3930"
       d="m 547.69,437.42 -0.62733,4.4056 -0.52753,0 c -0.0761,-1.1406 -0.42774,-2.0388 -1.0551,-2.6947 -0.61783,-0.65583 -1.2832,-0.98376 -1.996,-0.98377 -0.43724,10e-6 -0.79843,0.12833 -1.0836,0.38495 -0.28516,0.25665 -0.42773,0.56556 -0.42773,0.92674 0,0.30417 0.0618,0.58932 0.18535,0.85545 0.12356,0.26615 0.3992,0.62734 0.82693,1.0836 1.5018,1.6159 2.4143,2.7279 2.7374,3.3362 0.32316,0.60833 0.48475,1.2594 0.48476,1.9533 -10e-6,0.7509 -0.19011,1.4638 -0.5703,2.1386 -0.38021,0.66535 -0.95051,1.2024 -1.7109,1.6111 -0.7509,0.39921 -1.5351,0.59881 -2.3525,0.59881 -0.55129,0 -1.2309,-0.1093 -2.0388,-0.32792 -0.53228,-0.15208 -0.93149,-0.22812 -1.1976,-0.22812 -0.23763,0 -0.42297,0.038 -0.55604,0.11406 -0.13307,0.0665 -0.2804,0.21386 -0.44198,0.44198 h -0.52753 l 0.69862,-4.7477 h 0.45624 c 0.33267,1.1501 0.64158,1.9723 0.92673,2.4666 0.29465,0.48475 0.68436,0.87446 1.1691,1.1691 0.48475,0.28515 0.95049,0.42773 1.3972,0.42772 0.52277,10e-6 0.95525,-0.16158 1.2974,-0.48475 0.34218,-0.33267 0.51327,-0.72713 0.51327,-1.1834 0,-0.44673 -0.11406,-0.87921 -0.34218,-1.2974 -0.21862,-0.41822 -0.73189,-1.0693 -1.5398,-1.9533 -1.1121,-1.2071 -1.844,-2.1386 -2.1956,-2.7945 -0.24713,-0.47524 -0.3707,-1.017 -0.3707,-1.6254 0,-1.0265 0.3707,-1.882 1.1121,-2.5664 0.75089,-0.68435 1.8012,-1.0265 3.1509,-1.0265 0.5893,1e-5 1.3117,0.10457 2.1671,0.31366 0.42772,0.10457 0.7699,0.15685 1.0265,0.15684 0.37069,1e-5 0.6701,-0.15682 0.89823,-0.4705 h 0.51327" />
    <path
       inkscape:connector-curvature="0"
       id="path3932"
       d="m 579.53,437.43 -2.3953,8.2038 c -0.34599,1.1577 -0.51898,2.0094 -0.51897,2.5549 -10e-6,0.50567 0.20625,0.91154 0.61877,1.2176 0.41251,0.30607 1.2708,0.4724 2.5749,0.49902 l -0.27945,0.73853 h -13.034 l 0.23953,-0.73853 c 1.3041,0 2.2555,-0.25284 2.8544,-0.7585 0.61212,-0.50567 1.171,-1.6368 1.6767,-3.3933 l 5.03,-17.366 c 0.27944,-0.97139 0.41916,-1.7365 0.41917,-2.2955 -10e-6,-0.53225 -0.173,-0.93811 -0.51897,-1.2176 -0.34599,-0.27942 -1.1511,-0.46572 -2.4152,-0.55889 l 0.1996,-0.73854 h 11.218 c 3.207,3e-5 5.4625,0.55892 6.7666,1.6767 1.3041,1.11778 1.9561,2.555 1.9561,4.3115 -2e-5,1.8497 -0.75852,3.5197 -2.2755,5.0101 -0.95813,0.93151 -2.6548,1.7366 -5.0899,2.4152 l 2.4352,8.2038 c 0.65202,2.1957 1.2176,3.5197 1.6966,3.9721 0.49234,0.45244 1.3041,0.69862 2.4352,0.73854 v 0.73853 h -8.4233 l -3.8324,-13.214 -0.65869,0.0399 c -0.14639,2e-5 -0.37261,-0.0133 -0.67866,-0.0399 m 0.27945,-1.1976 c 0.46573,0.0266 0.85829,0.0399 1.1777,0.0399 1.9428,2e-5 3.5396,-0.66533 4.7905,-1.996 1.2508,-1.3307 1.8763,-3.0739 1.8763,-5.2296 -2e-5,-1.2774 -0.3327,-2.2489 -0.99803,-2.9142 -0.66536,-0.66532 -1.5436,-0.99799 -2.6348,-0.99802 -0.26616,3e-5 -0.57887,0.007 -0.93814,0.02 l -3.2735,11.078" />
    <path
       inkscape:connector-curvature="0"
       id="path3934"
       d="m 605.82,445.29 c -0.0856,0.61783 -0.12832,1.1264 -0.12832,1.5256 0,0.71287 0.20436,1.2832 0.61308,1.7109 0.41821,0.42772 0.97425,0.64158 1.6681,0.64158 0.66534,0 1.3307,-0.16158 1.996,-0.48475 0.67485,-0.32317 1.4543,-0.88872 2.3382,-1.6966 l 0.42773,0.38495 c -1.0931,1.3212 -2.1576,2.2622 -3.1937,2.823 -1.0361,0.5608 -2.1814,0.84119 -3.4361,0.84119 -1.5873,0 -2.6852,-0.3802 -3.2935,-1.1406 -0.60832,-0.7604 -0.91248,-1.6396 -0.91248,-2.6376 0,-1.5588 0.45149,-3.1176 1.3545,-4.6765 0.91248,-1.5588 2.1481,-2.8087 3.707,-3.7497 1.5683,-0.94098 3.1414,-1.4115 4.7192,-1.4115 0.79841,1e-5 1.402,0.19011 1.8107,0.5703 0.4087,0.38021 0.61306,0.86021 0.61307,1.44 -10e-6,0.69388 -0.19961,1.3687 -0.59881,2.0246 -0.5513,0.89348 -1.2452,1.6159 -2.0816,2.1671 -0.83645,0.54179 -1.7727,0.95526 -2.8087,1.2404 -0.69387,0.19011 -1.6254,0.33268 -2.7945,0.42772 m 0.12832,-0.74138 c 0.83643,-0.12356 1.4828,-0.2899 1.939,-0.49902 0.46574,-0.21861 0.91722,-0.56078 1.3545,-1.0265 0.44673,-0.47524 0.83168,-1.0693 1.1549,-1.7822 0.32316,-0.72237 0.48474,-1.3972 0.48475,-2.0246 -10e-6,-0.26613 -0.0761,-0.47524 -0.22812,-0.62733 -0.14258,-0.15206 -0.32793,-0.2281 -0.55604,-0.22812 -0.45625,2e-5 -0.96952,0.31843 -1.5398,0.95526 -1.0456,1.1596 -1.9153,2.9038 -2.6091,5.2325 m 6.5157,-13.687 4.3913,0 -4.8048,4.9901 -1.2832,0 1.6966,-4.9901" />
    <path
       inkscape:connector-curvature="0"
       id="path3936"
       d="m 624.93,445.29 c -0.0856,0.61783 -0.12832,1.1264 -0.12831,1.5256 -10e-6,0.71287 0.20435,1.2832 0.61307,1.7109 0.41821,0.42772 0.97425,0.64158 1.6681,0.64158 0.66534,0 1.3307,-0.16158 1.996,-0.48475 0.67485,-0.32317 1.4543,-0.88872 2.3382,-1.6966 l 0.42773,0.38495 c -1.0931,1.3212 -2.1576,2.2622 -3.1937,2.823 -1.036,0.5608 -2.1814,0.84119 -3.4361,0.84119 -1.5873,0 -2.6852,-0.3802 -3.2935,-1.1406 -0.60832,-0.7604 -0.91248,-1.6396 -0.91248,-2.6376 0,-1.5588 0.45149,-3.1176 1.3545,-4.6765 0.91248,-1.5588 2.1481,-2.8087 3.707,-3.7497 1.5683,-0.94098 3.1414,-1.4115 4.7192,-1.4115 0.79841,1e-5 1.402,0.19011 1.8107,0.5703 0.40871,0.38021 0.61306,0.86021 0.61308,1.44 -2e-5,0.69388 -0.19962,1.3687 -0.59882,2.0246 -0.5513,0.89348 -1.2452,1.6159 -2.0816,2.1671 -0.83645,0.54179 -1.7727,0.95526 -2.8087,1.2404 -0.69387,0.19011 -1.6254,0.33268 -2.7945,0.42772 m 0.12832,-0.74138 c 0.83644,-0.12356 1.4828,-0.2899 1.939,-0.49902 0.46574,-0.21861 0.91722,-0.56078 1.3545,-1.0265 0.44673,-0.47524 0.83168,-1.0693 1.1549,-1.7822 0.32316,-0.72237 0.48474,-1.3972 0.48475,-2.0246 -1e-5,-0.26613 -0.0761,-0.47524 -0.22812,-0.62733 -0.14258,-0.15206 -0.32793,-0.2281 -0.55604,-0.22812 -0.45625,2e-5 -0.96952,0.31843 -1.5398,0.95526 -1.0456,1.1596 -1.9153,2.9038 -2.6091,5.2325" />
    <path
       inkscape:connector-curvature="0"
       id="path3938"
       d="m 648.71,430.87 -4.72,16.05 c -0.27565,0.9505 -0.41347,1.5446 -0.41346,1.7822 -10e-6,0.12356 0.038,0.22812 0.11406,0.31366 0.0855,0.0856 0.17583,0.12832 0.27089,0.12832 0.17108,0 0.33267,-0.0665 0.48475,-0.19961 0.45624,-0.37069 0.96475,-0.99802 1.5256,-1.882 l 0.55604,0.25664 c -0.90298,1.4448 -1.7917,2.476 -2.6662,3.0939 -0.59882,0.41822 -1.2357,0.62733 -1.9105,0.62733 -0.62733,0 -1.1263,-0.16633 -1.497,-0.49901 -0.3707,-0.34218 -0.55605,-0.75089 -0.55605,-1.2261 0,-0.35169 0.11406,-0.91723 0.34218,-1.6966 l 3.8495,-13.145 c 0.2091,-0.72237 0.31366,-1.2024 0.31366,-1.44 0,-0.2281 -0.0998,-0.4087 -0.29941,-0.54178 -0.26614,-0.19009 -0.6701,-0.27088 -1.2119,-0.24238 l 0.15683,-0.54179 4.8048,-0.84119 h 0.85545" />
  </g>
  <path
     style="fill:#000000"
     inkscape:connector-curvature="0"
     id="rect3153"
     d="m 0.9197,279.37678 464.59,0 0,4.8322 -464.59,0 z" />
  <path
     style="fill:url(#radialGradient4029);fill-opacity:1"
     inkscape:connector-curvature="0"
     id="rect3028"
     d="M 0.2497,0.17678 466.1497,0 l 0,66.862 -466.07,-0.24668 z" />
  <path
     style="fill:url(#radialGradient4049);fill-opacity:1"
     inkscape:connector-curvature="0"
     id="rect3028-5"
     d="m 0.0697,350.07678 466.07,-0.10158 -0.0597,57.562 -466.08,0 z" />
  <g
     id="text3024"
     style="font-size:30.24652481px;font-style:normal;font-variant:normal;font-weight:normal;font-stretch:normal;line-height:125%;letter-spacing:0px;word-spacing:0px;fill:#ffffff;font-family:Arial"
     font-weight="normal"
     font-size="30.24652481000000037px"
     font-style="normal"
     font-stretch="normal"
     line-height="125%"
     font-variant="normal"
     transform="translate(-182.9803,-188.05322)">
    <path
       inkscape:connector-curvature="0"
       id="path3966"
       d="m 220.25,556.32 0,7.8718 3.6479,0 c 0.83689,1e-5 1.4473,-0.18214 1.8313,-0.54645 0.39382,-0.37413 0.65474,-1.1076 0.78275,-2.2006 h 0.54644 v 6.7789 h -0.54644 c -0.01,-0.77781 -0.11324,-1.3489 -0.31015,-1.7132 -0.18708,-0.36429 -0.45292,-0.63505 -0.79751,-0.81228 -0.33478,-0.18707 -0.83691,-0.2806 -1.5064,-0.28061 h -3.6479 v 6.2915 c -1e-5,1.0141 0.064,1.6836 0.192,2.0086 0.0984,0.24615 0.30521,0.45783 0.62029,0.63506 0.43321,0.2363 0.88612,0.35445 1.3587,0.35445 h 0.72367 v 0.54645 h -8.5954 v -0.54645 h 0.7089 c 0.82705,0 1.4276,-0.24122 1.8018,-0.72367 0.2363,-0.31507 0.35445,-1.0732 0.35445,-2.2744 v -12.937 c 0,-1.0141 -0.064,-1.6836 -0.192,-2.0086 -0.0985,-0.24612 -0.3003,-0.45781 -0.60552,-0.63505 -0.42337,-0.23629 -0.87628,-0.35444 -1.3587,-0.35446 h -0.7089 v -0.54644 h 14.902 l 0.19199,4.4011 h -0.5169 c -0.25601,-0.93534 -0.55631,-1.6196 -0.9009,-2.0529 -0.33477,-0.44305 -0.75322,-0.76304 -1.2554,-0.95997 -0.49231,-0.1969 -1.2603,-0.29536 -2.3039,-0.29538 h -4.4159" />
    <path
       inkscape:connector-curvature="0"
       id="path3968"
       d="m 239.28,554.25 c 0.41352,2e-5 0.76305,0.14771 1.0486,0.44306 0.29537,0.28555 0.44305,0.63508 0.44306,1.0486 -1e-5,0.41354 -0.14769,0.76799 -0.44306,1.0634 -0.28554,0.2954 -0.63507,0.44308 -1.0486,0.44307 -0.41353,1e-5 -0.76798,-0.14767 -1.0634,-0.44307 -0.29538,-0.29536 -0.44307,-0.64981 -0.44307,-1.0634 0,-0.41351 0.14276,-0.76304 0.4283,-1.0486 0.29537,-0.29535 0.65474,-0.44304 1.0781,-0.44306 m 1.2258,7.0743 0,10.87 c 0,0.84675 0.0591,1.4129 0.17723,1.6984 0.12799,0.27568 0.31014,0.48244 0.54644,0.62029 0.24614,0.13784 0.68921,0.20676 1.3292,0.20676 v 0.53168 h -6.5721 v -0.53168 c 0.65967,0 1.1027,-0.064 1.3292,-0.192 0.22645,-0.12799 0.40368,-0.33968 0.53168,-0.63505 0.13784,-0.29538 0.20676,-0.86152 0.20676,-1.6984 v -5.2134 c 0,-1.467 -0.0443,-2.4172 -0.13292,-2.8504 -0.0689,-0.31506 -0.17723,-0.53166 -0.32491,-0.64983 -0.14769,-0.12798 -0.34953,-0.19198 -0.60553,-0.19199 -0.27568,10e-6 -0.61044,0.0738 -1.0043,0.22153 l -0.20677,-0.53168 4.0762,-1.6541 h 0.64983" />
    <path
       inkscape:connector-curvature="0"
       id="path3970"
       d="m 252.17,564.19 c 1.5852,-1.9101 3.0965,-2.8651 4.534,-2.8652 0.73843,10e-6 1.3735,0.18708 1.9052,0.56121 0.53166,0.36431 0.95503,0.96983 1.2701,1.8166 0.2166,0.59076 0.3249,1.4966 0.32492,2.7175 v 5.7746 c -2e-5,0.8566 0.0689,1.4375 0.20676,1.7427 0.10829,0.24615 0.28059,0.43814 0.51691,0.57599 0.24613,0.13784 0.69412,0.20676 1.344,0.20676 v 0.53168 h -6.6903 v -0.53168 h 0.28061 c 0.63012,0 1.0683,-0.0935 1.3144,-0.28061 0.25598,-0.19692 0.43321,-0.48245 0.53168,-0.85659 0.0394,-0.14769 0.0591,-0.61044 0.0591,-1.3883 v -5.5383 c -10e-6,-1.2307 -0.16246,-2.1218 -0.48737,-2.6732 -0.31508,-0.5612 -0.85168,-0.84181 -1.6098,-0.84182 -1.1717,10e-6 -2.3384,0.63999 -3.5002,1.92 v 7.1333 c 0,0.91567 0.0542,1.4818 0.16246,1.6984 0.13784,0.28553 0.32491,0.49721 0.56122,0.63505 0.24614,0.128 0.73843,0.192 1.4769,0.192 v 0.53168 h -6.6903 v -0.53168 h 0.29538 c 0.68921,0 1.152,-0.1723 1.3883,-0.51691 0.24614,-0.35445 0.36922,-1.024 0.36922,-2.0086 v -5.0214 c 0,-1.6246 -0.0394,-2.6141 -0.11815,-2.9685 -0.0689,-0.35444 -0.18215,-0.59567 -0.33968,-0.72368 -0.14769,-0.12798 -0.34953,-0.19198 -0.60552,-0.19199 -0.27569,1e-5 -0.60553,0.0738 -0.98952,0.22153 l -0.22153,-0.53168 4.0762,-1.6541 h 0.63506 v 2.8652" />
    <path
       inkscape:connector-curvature="0"
       id="path3972"
       d="m 275.02,573.31 c -1.3883,1.0732 -2.2596,1.6935 -2.6141,1.8609 -0.53168,0.24615 -1.0978,0.36922 -1.6984,0.36922 -0.93537,0 -1.7083,-0.31999 -2.3187,-0.95997 -0.6006,-0.63998 -0.9009,-1.4818 -0.9009,-2.5255 0,-0.65967 0.14769,-1.2307 0.44307,-1.7132 0.40368,-0.66951 1.1027,-1.2996 2.0972,-1.8904 1.0043,-0.59074 2.6682,-1.3095 4.9919,-2.1562 v -0.53168 c -10e-6,-1.3489 -0.21662,-2.2744 -0.64983,-2.7765 -0.42338,-0.50212 -1.0437,-0.75319 -1.8609,-0.75321 -0.6203,2e-5 -1.1126,0.1674 -1.4769,0.50214 -0.37415,0.33478 -0.56122,0.71876 -0.56122,1.152 l 0.0295,0.85659 c 0,0.45292 -0.11815,0.80245 -0.35445,1.0486 -0.22646,0.24615 -0.52676,0.36923 -0.9009,0.36922 -0.3643,10e-6 -0.6646,-0.12799 -0.90089,-0.38399 -0.22646,-0.25598 -0.33969,-0.60551 -0.33969,-1.0486 0,-0.84673 0.43322,-1.6246 1.2997,-2.3335 0.86643,-0.70889 2.0824,-1.0633 3.6479,-1.0634 1.2012,10e-6 2.1858,0.20185 2.9538,0.60552 0.58089,0.30523 1.0092,0.78276 1.2849,1.4326 0.17722,0.42339 0.26583,1.2898 0.26584,2.5993 v 4.5931 c -10e-6,1.2898 0.0246,2.0824 0.0738,2.3778 0.0492,0.28553 0.12798,0.47753 0.2363,0.57599 0.11814,0.0985 0.25106,0.14769 0.39875,0.14768 0.15753,1e-5 0.29537,-0.0344 0.41353,-0.10338 0.20675,-0.12799 0.60551,-0.48737 1.1963,-1.0781 v 0.82705 c -1.1028,1.4769 -2.1563,2.2153 -3.1605,2.2153 -0.48246,0 -0.86645,-0.16738 -1.152,-0.50214 -0.28554,-0.33475 -0.43322,-0.90581 -0.44306,-1.7132 m 0,-0.95997 0,-5.1543 c -1.4867,0.59076 -2.4467,1.0092 -2.8799,1.2553 -0.77783,0.43323 -1.3341,0.88614 -1.6689,1.3587 -0.33476,0.47261 -0.50214,0.98952 -0.50214,1.5507 0,0.70891 0.21169,1.2997 0.63506,1.7723 0.42337,0.46275 0.91074,0.69413 1.4621,0.69413 0.74828,0 1.7329,-0.49229 2.9538,-1.4769" />
    <path
       inkscape:connector-curvature="0"
       id="path3974"
       d="m 288.7,564.19 c 1.5852,-1.9101 3.0965,-2.8651 4.534,-2.8652 0.73843,10e-6 1.3735,0.18708 1.9052,0.56121 0.53166,0.36431 0.95503,0.96983 1.2701,1.8166 0.2166,0.59076 0.3249,1.4966 0.32492,2.7175 v 5.7746 c -2e-5,0.8566 0.0689,1.4375 0.20676,1.7427 0.10829,0.24615 0.28059,0.43814 0.51691,0.57599 0.24613,0.13784 0.69412,0.20676 1.344,0.20676 v 0.53168 h -6.6903 v -0.53168 h 0.28061 c 0.63012,0 1.0683,-0.0935 1.3144,-0.28061 0.25598,-0.19692 0.43321,-0.48245 0.53168,-0.85659 0.0394,-0.14769 0.0591,-0.61044 0.0591,-1.3883 v -5.5383 c -10e-6,-1.2307 -0.16246,-2.1218 -0.48737,-2.6732 -0.31508,-0.5612 -0.85167,-0.84181 -1.6098,-0.84182 -1.1717,10e-6 -2.3384,0.63999 -3.5002,1.92 v 7.1333 c 0,0.91567 0.0541,1.4818 0.16246,1.6984 0.13784,0.28553 0.32491,0.49721 0.56122,0.63505 0.24614,0.128 0.73843,0.192 1.4769,0.192 v 0.53168 h -6.6903 v -0.53168 h 0.29537 c 0.68921,0 1.152,-0.1723 1.3883,-0.51691 0.24614,-0.35445 0.36922,-1.024 0.36922,-2.0086 v -5.0214 c 0,-1.6246 -0.0394,-2.6141 -0.11815,-2.9685 -0.0689,-0.35444 -0.18215,-0.59567 -0.33968,-0.72368 -0.14769,-0.12798 -0.34953,-0.19198 -0.60552,-0.19199 -0.27569,1e-5 -0.60553,0.0738 -0.98951,0.22153 l -0.22154,-0.53168 4.0762,-1.6541 h 0.63505 v 2.8652" />
    <path
       inkscape:connector-curvature="0"
       id="path3976"
       d="m 315.37,570.12 c -0.3643,1.7821 -1.0781,3.1556 -2.1415,4.1205 -1.0634,0.95505 -2.24,1.4326 -3.5298,1.4326 -1.536,0 -2.875,-0.6449 -4.0171,-1.9347 -1.1421,-1.2898 -1.7132,-3.0325 -1.7132,-5.2282 0,-2.1267 0.63014,-3.8546 1.8904,-5.1838 1.2701,-1.3292 2.7913,-1.9938 4.5636,-1.9938 1.3292,1e-5 2.4221,0.35446 3.2787,1.0634 0.85658,0.69907 1.2849,1.4277 1.2849,2.1858 -2e-5,0.37415 -0.12309,0.67937 -0.36922,0.91566 -0.23632,0.22647 -0.57108,0.33969 -1.0043,0.33968 -0.58092,10e-6 -1.0191,-0.18706 -1.3144,-0.56121 -0.16739,-0.20675 -0.28061,-0.60059 -0.33968,-1.1815 -0.0492,-0.58089 -0.24616,-1.024 -0.59075,-1.3292 -0.34462,-0.29536 -0.82214,-0.44305 -1.4326,-0.44306 -0.98459,10e-6 -1.7772,0.36431 -2.3778,1.0929 -0.79752,0.96491 -1.1963,2.24 -1.1963,3.8251 0,1.6147 0.39383,3.0424 1.1815,4.283 0.79752,1.2307 1.8707,1.8461 3.2196,1.8461 0.96488,0 1.8313,-0.32984 2.5993,-0.98951 0.54151,-0.45291 1.0683,-1.275 1.5803,-2.4664 l 0.42829,0.20676" />
    <path
       inkscape:connector-curvature="0"
       id="path3978"
       d="m 323.57,566.82 c -0.01,2.0086 0.47752,3.5839 1.4621,4.726 0.98458,1.1421 2.1415,1.7132 3.4707,1.7132 0.88612,0 1.6541,-0.24123 2.3039,-0.72368 0.65967,-0.49229 1.211,-1.3292 1.6541,-2.5107 l 0.45783,0.29537 c -0.20677,1.3489 -0.80737,2.5796 -1.8018,3.6922 -0.99444,1.1027 -2.24,1.6541 -3.7365,1.6541 -1.6246,0 -3.0178,-0.63013 -4.1796,-1.8904 -1.152,-1.2701 -1.728,-2.9734 -1.728,-5.11 -1e-5,-2.3138 0.59075,-4.1156 1.7722,-5.4054 1.1914,-1.2996 2.683,-1.9495 4.475,-1.9495 1.5163,10e-6 2.7618,0.50215 3.7365,1.5064 0.97473,0.99444 1.4621,2.3286 1.4621,4.0023 h -9.3486 m 0,-0.85659 6.262,0 c -0.0492,-0.86642 -0.15262,-1.4769 -0.31014,-1.8313 -0.24616,-0.55136 -0.61538,-0.98457 -1.1077,-1.2996 -0.48246,-0.31506 -0.98952,-0.47259 -1.5212,-0.47261 -0.81721,2e-5 -1.5507,0.32001 -2.2006,0.95998 -0.63999,0.63014 -1.0141,1.5114 -1.1224,2.6436" />
    <path
       inkscape:connector-curvature="0"
       id="path3980"
       d="m 342.72,564.21 c 0.98458,-0.98458 1.5655,-1.5507 1.7427,-1.6984 0.44305,-0.37413 0.92058,-0.66458 1.4326,-0.87136 0.51198,-0.20675 1.019,-0.31013 1.5212,-0.31014 0.84673,10e-6 1.5753,0.24616 2.1858,0.73844 0.61043,0.4923 1.019,1.2061 1.2258,2.1415 1.0141,-1.1815 1.8707,-1.9544 2.5698,-2.3187 0.69904,-0.37413 1.4178,-0.5612 2.1562,-0.56121 0.71873,10e-6 1.3538,0.18708 1.9052,0.56121 0.56119,0.36431 1.0043,0.96491 1.3292,1.8018 0.21659,0.57107 0.32489,1.467 0.32492,2.6879 v 5.8189 c -3e-5,0.84675 0.064,1.4277 0.19199,1.7427 0.0984,0.21661 0.28059,0.40368 0.54645,0.56122 0.26581,0.14769 0.69903,0.22153 1.2996,0.22153 v 0.53168 h -6.6755 v -0.53168 h 0.28061 c 0.58089,0 1.0338,-0.11323 1.3587,-0.33968 0.22643,-0.15754 0.38889,-0.40861 0.48737,-0.75321 0.0394,-0.16738 0.059,-0.64491 0.0591,-1.4326 v -5.8189 c -2e-5,-1.1027 -0.13293,-1.8806 -0.39875,-2.3335 -0.38401,-0.63013 -0.99938,-0.94519 -1.8461,-0.94521 -0.52184,2e-5 -1.0486,0.13294 -1.5803,0.39876 -0.52184,0.25601 -1.1569,0.73845 -1.9052,1.4474 l -0.0295,0.16245 0.0295,0.63506 v 6.454 c -1e-5,0.92552 0.0492,1.5015 0.14769,1.728 0.10829,0.22646 0.30521,0.41845 0.59076,0.57599 0.28551,0.14769 0.77288,0.22153 1.4621,0.22153 v 0.53168 h -6.838 v -0.53168 c 0.74828,0 1.2603,-0.0886 1.536,-0.26584 0.28552,-0.17722 0.48244,-0.44306 0.59076,-0.79752 0.0492,-0.16737 0.0738,-0.65474 0.0738,-1.4621 v -5.8189 c -1e-5,-1.1027 -0.16247,-1.8953 -0.48737,-2.3778 -0.43323,-0.63012 -1.0388,-0.94519 -1.8166,-0.9452 -0.53169,10e-6 -1.0584,0.14278 -1.5803,0.42829 -0.81721,0.43323 -1.4474,0.9206 -1.8904,1.4621 v 7.2515 c -10e-6,0.88613 0.0591,1.4621 0.17722,1.728 0.12799,0.26584 0.31014,0.46768 0.54645,0.60552 0.24614,0.128 0.73843,0.192 1.4769,0.192 v 0.53168 h -6.6903 v -0.53168 c 0.62029,0 1.0535,-0.064 1.2996,-0.192 0.24615,-0.13784 0.43322,-0.34952 0.56122,-0.63505 0.12799,-0.29538 0.19199,-0.86152 0.19199,-1.6984 v -5.1691 c 0,-1.4867 -0.0443,-2.4467 -0.13292,-2.8799 -0.0689,-0.3249 -0.17723,-0.54643 -0.32491,-0.6646 -0.14769,-0.12798 -0.34953,-0.19198 -0.60552,-0.19199 -0.27569,10e-6 -0.60552,0.0738 -0.98951,0.22153 l -0.22153,-0.53168 4.0762,-1.6541 h 0.63506 v 2.8799" />
    <path
       inkscape:connector-curvature="0"
       id="path3982"
       d="m 368.49,566.82 c -0.01,2.0086 0.47752,3.5839 1.4621,4.726 0.98458,1.1421 2.1415,1.7132 3.4707,1.7132 0.88612,0 1.6541,-0.24123 2.3039,-0.72368 0.65967,-0.49229 1.211,-1.3292 1.6541,-2.5107 l 0.45783,0.29537 c -0.20677,1.3489 -0.80737,2.5796 -1.8018,3.6922 -0.99444,1.1027 -2.24,1.6541 -3.7365,1.6541 -1.6246,0 -3.0178,-0.63013 -4.1796,-1.8904 -1.152,-1.2701 -1.728,-2.9734 -1.728,-5.11 -10e-6,-2.3138 0.59075,-4.1156 1.7722,-5.4054 1.1914,-1.2996 2.683,-1.9495 4.475,-1.9495 1.5163,10e-6 2.7618,0.50215 3.7365,1.5064 0.97473,0.99444 1.4621,2.3286 1.4621,4.0023 h -9.3486 m 0,-0.85659 6.262,0 c -0.0492,-0.86642 -0.15262,-1.4769 -0.31014,-1.8313 -0.24616,-0.55136 -0.61538,-0.98457 -1.1077,-1.2996 -0.48246,-0.31506 -0.98952,-0.47259 -1.5212,-0.47261 -0.81721,2e-5 -1.5507,0.32001 -2.2006,0.95998 -0.63999,0.63014 -1.0141,1.5114 -1.1224,2.6436" />
    <path
       inkscape:connector-curvature="0"
       id="path3984"
       d="m 387.57,564.19 c 1.5852,-1.9101 3.0965,-2.8651 4.534,-2.8652 0.73843,10e-6 1.3735,0.18708 1.9052,0.56121 0.53167,0.36431 0.95504,0.96983 1.2701,1.8166 0.2166,0.59076 0.3249,1.4966 0.32492,2.7175 v 5.7746 c -2e-5,0.8566 0.0689,1.4375 0.20676,1.7427 0.10829,0.24615 0.28059,0.43814 0.51691,0.57599 0.24613,0.13784 0.69412,0.20676 1.344,0.20676 v 0.53168 h -6.6903 v -0.53168 h 0.2806 c 0.63013,0 1.0683,-0.0935 1.3144,-0.28061 0.25598,-0.19692 0.43321,-0.48245 0.53168,-0.85659 0.0394,-0.14769 0.0591,-0.61044 0.0591,-1.3883 v -5.5383 c -1e-5,-1.2307 -0.16247,-2.1218 -0.48737,-2.6732 -0.31508,-0.5612 -0.85168,-0.84181 -1.6098,-0.84182 -1.1717,10e-6 -2.3384,0.63999 -3.5002,1.92 v 7.1333 c 0,0.91567 0.0541,1.4818 0.16246,1.6984 0.13784,0.28553 0.32491,0.49721 0.56121,0.63505 0.24614,0.128 0.73844,0.192 1.4769,0.192 v 0.53168 h -6.6903 v -0.53168 h 0.29538 c 0.68921,0 1.152,-0.1723 1.3883,-0.51691 0.24614,-0.35445 0.36922,-1.024 0.36922,-2.0086 v -5.0214 c 0,-1.6246 -0.0394,-2.6141 -0.11815,-2.9685 -0.0689,-0.35444 -0.18215,-0.59567 -0.33968,-0.72368 -0.14769,-0.12798 -0.34954,-0.19198 -0.60553,-0.19199 -0.27568,1e-5 -0.60552,0.0738 -0.98951,0.22153 l -0.22153,-0.53168 4.0762,-1.6541 h 0.63506 v 2.8652" />
    <path
       inkscape:connector-curvature="0"
       id="path3986"
       d="m 406.68,557.28 0,4.4454 3.1605,0 0,1.0338 -3.1605,0 0,8.7727 c 0,0.87628 0.12307,1.467 0.36922,1.7722 0.25599,0.30523 0.5809,0.45784 0.97475,0.45784 0.3249,0 0.63997,-0.0985 0.9452,-0.29538 0.30521,-0.20676 0.54151,-0.50706 0.7089,-0.9009 h 0.57599 c -0.34462,0.9649 -0.83199,1.6935 -1.4621,2.1858 -0.63014,0.48244 -1.28,0.72367 -1.9495,0.72367 -0.45291,0 -0.89598,-0.12308 -1.3292,-0.36922 -0.43322,-0.25599 -0.75321,-0.61537 -0.95998,-1.0781 -0.20676,-0.4726 -0.31014,-1.1963 -0.31014,-2.171 v -9.0976 h -2.1415 v -0.48737 c 0.54152,-0.21659 1.0929,-0.58089 1.6541,-1.0929 0.57106,-0.52182 1.0781,-1.1372 1.5212,-1.8461 0.22645,-0.37413 0.54152,-1.0584 0.9452,-2.0529 h 0.45783" />
    <path
       inkscape:connector-curvature="0"
       id="path3988"
       d="m 443.52,565.88 0,5.8337 c 0,1.2603 0.13784,2.043 0.41353,2.3482 0.37414,0.43322 0.94027,0.64983 1.6984,0.64983 h 0.76798 v 0.54645 h -8.5807 v -0.54645 h 0.75321 c 0.84675,0 1.4523,-0.27568 1.8166,-0.82705 0.19691,-0.30522 0.29537,-1.0289 0.29537,-2.171 v -12.937 c 0,-1.2602 -0.13292,-2.043 -0.39876,-2.3482 -0.38399,-0.4332 -0.95505,-0.64981 -1.7132,-0.64983 h -0.75321 v -0.54644 h 7.3401 c 1.7919,2e-5 3.2048,0.18709 4.2386,0.56121 1.0338,0.36432 1.9052,0.98461 2.6141,1.8609 0.70889,0.8763 1.0633,1.915 1.0634,3.1162 -1e-5,1.6344 -0.54153,2.9636 -1.6246,3.9876 -1.0732,1.024 -2.5944,1.536 -4.5636,1.536 -0.48245,10e-6 -1.0043,-0.0344 -1.5655,-0.10338 -0.56122,-0.0689 -1.1618,-0.1723 -1.8018,-0.31015 m 0,-0.84182 c 0.52183,0.0985 0.98458,0.17231 1.3883,0.22153 0.40368,0.0492 0.74828,0.0738 1.0338,0.0738 1.024,10e-6 1.9052,-0.39382 2.6436,-1.1815 0.74827,-0.7975 1.1224,-1.8264 1.1224,-3.0867 -2e-5,-0.86642 -0.17724,-1.6689 -0.53168,-2.4073 -0.35446,-0.74827 -0.8566,-1.3046 -1.5064,-1.6689 -0.64984,-0.37413 -1.3883,-0.5612 -2.2153,-0.56122 -0.50215,2e-5 -1.147,0.0936 -1.9347,0.28061 v 8.3296" />
    <path
       inkscape:connector-curvature="0"
       id="path3990"
       d="m 466.76,573.31 c -1.3883,1.0732 -2.2596,1.6935 -2.6141,1.8609 -0.53169,0.24615 -1.0978,0.36922 -1.6984,0.36922 -0.93536,0 -1.7083,-0.31999 -2.3187,-0.95997 -0.6006,-0.63998 -0.9009,-1.4818 -0.9009,-2.5255 0,-0.65967 0.14769,-1.2307 0.44307,-1.7132 0.40368,-0.66951 1.1027,-1.2996 2.0972,-1.8904 1.0043,-0.59074 2.6682,-1.3095 4.9919,-2.1562 v -0.53168 c -10e-6,-1.3489 -0.21662,-2.2744 -0.64983,-2.7765 -0.42338,-0.50212 -1.0437,-0.75319 -1.8609,-0.75321 -0.6203,2e-5 -1.1126,0.1674 -1.4769,0.50214 -0.37415,0.33478 -0.56122,0.71876 -0.56122,1.152 l 0.0295,0.85659 c 0,0.45292 -0.11815,0.80245 -0.35445,1.0486 -0.22646,0.24615 -0.52676,0.36923 -0.9009,0.36922 -0.3643,10e-6 -0.6646,-0.12799 -0.9009,-0.38399 -0.22645,-0.25598 -0.33968,-0.60551 -0.33968,-1.0486 0,-0.84673 0.43322,-1.6246 1.2997,-2.3335 0.86643,-0.70889 2.0824,-1.0633 3.6479,-1.0634 1.2012,10e-6 2.1858,0.20185 2.9538,0.60552 0.58089,0.30523 1.0092,0.78276 1.2849,1.4326 0.17722,0.42339 0.26583,1.2898 0.26584,2.5993 v 4.5931 c -1e-5,1.2898 0.0246,2.0824 0.0738,2.3778 0.0492,0.28553 0.12799,0.47753 0.23631,0.57599 0.11813,0.0985 0.25105,0.14769 0.39875,0.14768 0.15753,1e-5 0.29537,-0.0344 0.41353,-0.10338 0.20675,-0.12799 0.60551,-0.48737 1.1963,-1.0781 v 0.82705 c -1.1028,1.4769 -2.1562,2.2153 -3.1605,2.2153 -0.48246,0 -0.86645,-0.16738 -1.152,-0.50214 -0.28554,-0.33475 -0.43323,-0.90581 -0.44306,-1.7132 m 0,-0.95997 0,-5.1543 c -1.4867,0.59076 -2.4467,1.0092 -2.8799,1.2553 -0.77783,0.43323 -1.3341,0.88614 -1.6689,1.3587 -0.33476,0.47261 -0.50214,0.98952 -0.50214,1.5507 0,0.70891 0.21169,1.2997 0.63506,1.7723 0.42337,0.46275 0.91074,0.69413 1.4621,0.69413 0.74828,0 1.7329,-0.49229 2.9538,-1.4769" />
    <path
       inkscape:connector-curvature="0"
       id="path3992"
       d="m 480.47,561.33 0,3.0424 c 1.1323,-2.0282 2.2941,-3.0424 3.4854,-3.0424 0.54151,10e-6 0.9895,0.16739 1.344,0.50214 0.35444,0.32492 0.53167,0.70399 0.53168,1.1372 -10e-6,0.384 -0.12801,0.70891 -0.38399,0.97474 -0.256,0.26585 -0.56122,0.39877 -0.91567,0.39875 -0.34461,2e-5 -0.73352,-0.16736 -1.1667,-0.50213 -0.42338,-0.3446 -0.73845,-0.5169 -0.94521,-0.51691 -0.17723,10e-6 -0.36922,0.0985 -0.57598,0.29537 -0.44307,0.40369 -0.9009,1.0683 -1.3735,1.9938 v 6.4835 c -1e-5,0.74829 0.0935,1.3144 0.28061,1.6984 0.12799,0.26584 0.35444,0.48738 0.67936,0.6646 0.32491,0.17723 0.79259,0.26584 1.403,0.26584 v 0.53168 h -6.9266 v -0.53168 c 0.68921,0 1.2012,-0.10831 1.536,-0.32492 0.24615,-0.15753 0.41845,-0.4086 0.51691,-0.7532 0.0492,-0.16738 0.0738,-0.64491 0.0739,-1.4326 v -5.2429 c -10e-6,-1.5753 -0.0345,-2.5107 -0.10339,-2.8061 -0.0591,-0.30521 -0.17722,-0.52674 -0.35445,-0.6646 -0.16738,-0.13783 -0.37906,-0.20675 -0.63506,-0.20676 -0.30522,10e-6 -0.64982,0.0738 -1.0338,0.22153 l -0.14769,-0.53168 4.091,-1.6541 h 0.62029" />
    <path
       inkscape:connector-curvature="0"
       id="path3994"
       d="m 494.54,557.28 0,4.4454 3.1605,0 0,1.0338 -3.1605,0 0,8.7727 c 0,0.87628 0.12307,1.467 0.36922,1.7722 0.25599,0.30523 0.5809,0.45784 0.97474,0.45784 0.32491,0 0.63998,-0.0985 0.94521,-0.29538 0.30521,-0.20676 0.54151,-0.50706 0.7089,-0.9009 h 0.57598 c -0.34461,0.9649 -0.83198,1.6935 -1.4621,2.1858 -0.63014,0.48244 -1.28,0.72367 -1.9495,0.72367 -0.45292,0 -0.89598,-0.12308 -1.3292,-0.36922 -0.43322,-0.25599 -0.75321,-0.61537 -0.95997,-1.0781 -0.20676,-0.4726 -0.31015,-1.1963 -0.31014,-2.171 v -9.0976 h -2.1415 v -0.48737 c 0.54152,-0.21659 1.0929,-0.58089 1.6541,-1.0929 0.57105,-0.52182 1.0781,-1.1372 1.5212,-1.8461 0.22645,-0.37413 0.54152,-1.0584 0.94521,-2.0529 h 0.45783" />
    <path
       inkscape:connector-curvature="0"
       id="path3996"
       d="m 506.44,554.25 c 0.41352,2e-5 0.76305,0.14771 1.0486,0.44306 0.29537,0.28555 0.44306,0.63508 0.44306,1.0486 0,0.41354 -0.14769,0.76799 -0.44306,1.0634 -0.28554,0.2954 -0.63507,0.44308 -1.0486,0.44307 -0.41353,1e-5 -0.76798,-0.14767 -1.0634,-0.44307 -0.29538,-0.29536 -0.44307,-0.64981 -0.44307,-1.0634 0,-0.41351 0.14277,-0.76304 0.4283,-1.0486 0.29537,-0.29535 0.65475,-0.44304 1.0781,-0.44306 m 1.2258,7.0743 0,10.87 c 0,0.84675 0.0591,1.4129 0.17723,1.6984 0.12799,0.27568 0.31014,0.48244 0.54644,0.62029 0.24614,0.13784 0.68921,0.20676 1.3292,0.20676 v 0.53168 h -6.5721 v -0.53168 c 0.65967,0 1.1027,-0.064 1.3292,-0.192 0.22645,-0.12799 0.40368,-0.33968 0.53168,-0.63505 0.13784,-0.29538 0.20676,-0.86152 0.20676,-1.6984 v -5.2134 c 0,-1.467 -0.0443,-2.4172 -0.13292,-2.8504 -0.0689,-0.31506 -0.17723,-0.53166 -0.32491,-0.64983 -0.14769,-0.12798 -0.34953,-0.19198 -0.60552,-0.19199 -0.27569,10e-6 -0.61045,0.0738 -1.0043,0.22153 l -0.20677,-0.53168 4.0762,-1.6541 h 0.64982" />
    <path
       inkscape:connector-curvature="0"
       id="path3998"
       d="m 526.88,570.12 c -0.36431,1.7821 -1.0781,3.1556 -2.1415,4.1205 -1.0634,0.95505 -2.24,1.4326 -3.5298,1.4326 -1.536,0 -2.875,-0.6449 -4.0171,-1.9347 -1.1421,-1.2898 -1.7132,-3.0325 -1.7132,-5.2282 0,-2.1267 0.63014,-3.8546 1.8904,-5.1838 1.2701,-1.3292 2.7913,-1.9938 4.5636,-1.9938 1.3292,1e-5 2.4221,0.35446 3.2787,1.0634 0.85658,0.69907 1.2849,1.4277 1.2849,2.1858 -2e-5,0.37415 -0.12309,0.67937 -0.36922,0.91566 -0.23632,0.22647 -0.57108,0.33969 -1.0043,0.33968 -0.58092,10e-6 -1.0191,-0.18706 -1.3144,-0.56121 -0.16739,-0.20675 -0.28061,-0.60059 -0.33968,-1.1815 -0.0492,-0.58089 -0.24616,-1.024 -0.59075,-1.3292 -0.34462,-0.29536 -0.82214,-0.44305 -1.4326,-0.44306 -0.98459,10e-6 -1.7772,0.36431 -2.3778,1.0929 -0.79752,0.96491 -1.1963,2.24 -1.1963,3.8251 0,1.6147 0.39383,3.0424 1.1815,4.283 0.79751,1.2307 1.8707,1.8461 3.2196,1.8461 0.96488,0 1.8313,-0.32984 2.5993,-0.98951 0.54151,-0.45291 1.0683,-1.275 1.5803,-2.4664 l 0.4283,0.20676" />
    <path
       inkscape:connector-curvature="0"
       id="path4000"
       d="m 536.24,554.25 c 0.41352,2e-5 0.76305,0.14771 1.0486,0.44306 0.29537,0.28555 0.44306,0.63508 0.44307,1.0486 -10e-6,0.41354 -0.1477,0.76799 -0.44307,1.0634 -0.28553,0.2954 -0.63506,0.44308 -1.0486,0.44307 -0.41353,1e-5 -0.76798,-0.14767 -1.0634,-0.44307 -0.29537,-0.29536 -0.44306,-0.64981 -0.44306,-1.0634 0,-0.41351 0.14276,-0.76304 0.4283,-1.0486 0.29537,-0.29535 0.65474,-0.44304 1.0781,-0.44306 m 1.2258,7.0743 0,10.87 c -10e-6,0.84675 0.0591,1.4129 0.17723,1.6984 0.12799,0.27568 0.31013,0.48244 0.54644,0.62029 0.24614,0.13784 0.68921,0.20676 1.3292,0.20676 v 0.53168 h -6.5721 v -0.53168 c 0.65968,0 1.1027,-0.064 1.3292,-0.192 0.22645,-0.12799 0.40367,-0.33968 0.53167,-0.63505 0.13784,-0.29538 0.20676,-0.86152 0.20677,-1.6984 v -5.2134 c -10e-6,-1.467 -0.0443,-2.4172 -0.13292,-2.8504 -0.0689,-0.31506 -0.17723,-0.53166 -0.32492,-0.64983 -0.14769,-0.12798 -0.34953,-0.19198 -0.60552,-0.19199 -0.27568,10e-6 -0.61044,0.0738 -1.0043,0.22153 l -0.20676,-0.53168 4.0762,-1.6541 h 0.64983" />
    <path
       inkscape:connector-curvature="0"
       id="path4002"
       d="m 544.21,563.07 4.1648,-1.6836 0.56122,0 0,3.1605 c 0.69905,-1.1913 1.3981,-2.0233 2.0972,-2.4959 0.70889,-0.48244 1.4522,-0.72366 2.2301,-0.72367 1.3587,1e-5 2.491,0.53169 3.3968,1.595 1.1126,1.2997 1.6689,2.9932 1.6689,5.0805 -10e-6,2.3335 -0.66953,4.2633 -2.0086,5.7894 -1.1028,1.2504 -2.491,1.8756 -4.1648,1.8756 -0.72861,0 -1.3587,-0.10338 -1.8904,-0.31014 -0.39384,-0.14769 -0.83691,-0.44307 -1.3292,-0.88613 v 4.1205 c -10e-6,0.92551 0.0541,1.5113 0.16245,1.7575 0.11815,0.25598 0.31507,0.45782 0.59075,0.60552 0.28553,0.14768 0.79751,0.22152 1.536,0.22153 v 0.54645 h -7.089 v -0.54645 h 0.36922 c 0.54152,0.01 1.0043,-0.0935 1.3883,-0.31015 0.18707,-0.10831 0.32984,-0.28553 0.4283,-0.53167 0.1083,-0.23631 0.16245,-0.84675 0.16245,-1.8313 v -12.79 c 0,-0.87627 -0.0394,-1.4326 -0.11815,-1.6689 -0.0788,-0.23629 -0.20676,-0.41352 -0.38399,-0.53168 -0.16738,-0.11814 -0.39876,-0.17721 -0.69413,-0.17722 -0.2363,10e-6 -0.5366,0.0689 -0.9009,0.20676 l -0.17722,-0.4726 m 4.726,2.3482 0,5.0509 c -10e-6,1.0929 0.0443,1.8116 0.13291,2.1562 0.13784,0.57106 0.4726,1.0732 1.0043,1.5064 0.54152,0.43322 1.2209,0.64982 2.0381,0.64982 0.98458,0 1.7821,-0.38398 2.3926,-1.152 0.7975,-1.0043 1.1963,-2.4172 1.1963,-4.2386 -10e-6,-2.0676 -0.45292,-3.6577 -1.3587,-4.7703 -0.63015,-0.76796 -1.3784,-1.152 -2.2449,-1.152 -0.47261,2e-5 -0.94029,0.11817 -1.403,0.35446 -0.35445,0.17723 -0.94028,0.70891 -1.7575,1.595" />
    <path
       inkscape:connector-curvature="0"
       id="path4004"
       d="m 571.97,573.31 c -1.3883,1.0732 -2.2596,1.6935 -2.6141,1.8609 -0.53168,0.24615 -1.0978,0.36922 -1.6984,0.36922 -0.93536,0 -1.7083,-0.31999 -2.3187,-0.95997 -0.60059,-0.63998 -0.90089,-1.4818 -0.90089,-2.5255 0,-0.65967 0.14768,-1.2307 0.44306,-1.7132 0.40368,-0.66951 1.1027,-1.2996 2.0972,-1.8904 1.0043,-0.59074 2.6682,-1.3095 4.9919,-2.1562 v -0.53168 c -10e-6,-1.3489 -0.21662,-2.2744 -0.64983,-2.7765 -0.42338,-0.50212 -1.0437,-0.75319 -1.8609,-0.75321 -0.62029,2e-5 -1.1126,0.1674 -1.4769,0.50214 -0.37415,0.33478 -0.56122,0.71876 -0.56121,1.152 l 0.0295,0.85659 c 0,0.45292 -0.11815,0.80245 -0.35445,1.0486 -0.22646,0.24615 -0.52675,0.36923 -0.90089,0.36922 -0.3643,10e-6 -0.6646,-0.12799 -0.9009,-0.38399 -0.22646,-0.25598 -0.33969,-0.60551 -0.33968,-1.0486 -10e-6,-0.84673 0.43321,-1.6246 1.2996,-2.3335 0.86643,-0.70889 2.0824,-1.0633 3.6479,-1.0634 1.2012,10e-6 2.1858,0.20185 2.9538,0.60552 0.5809,0.30523 1.0092,0.78276 1.2849,1.4326 0.17721,0.42339 0.26582,1.2898 0.26583,2.5993 v 4.5931 c -10e-6,1.2898 0.0246,2.0824 0.0738,2.3778 0.0492,0.28553 0.12798,0.47753 0.2363,0.57599 0.11814,0.0985 0.25106,0.14769 0.39876,0.14768 0.15752,1e-5 0.29536,-0.0344 0.41352,-0.10338 0.20676,-0.12799 0.60551,-0.48737 1.1963,-1.0781 v 0.82705 c -1.1028,1.4769 -2.1563,2.2153 -3.1605,2.2153 -0.48245,0 -0.86644,-0.16738 -1.152,-0.50214 -0.28554,-0.33475 -0.43323,-0.90581 -0.44307,-1.7132 m 0,-0.95997 0,-5.1543 c -1.4867,0.59076 -2.4467,1.0092 -2.8799,1.2553 -0.77783,0.43323 -1.3341,0.88614 -1.6689,1.3587 -0.33477,0.47261 -0.50215,0.98952 -0.50214,1.5507 -10e-6,0.70891 0.21168,1.2997 0.63506,1.7723 0.42336,0.46275 0.91073,0.69413 1.4621,0.69413 0.74828,0 1.7329,-0.49229 2.9538,-1.4769" />
    <path
       inkscape:connector-curvature="0"
       id="path4006"
       d="m 585.65,557.28 0,4.4454 3.1605,0 0,1.0338 -3.1605,0 0,8.7727 c -10e-6,0.87628 0.12307,1.467 0.36922,1.7722 0.25598,0.30523 0.5809,0.45784 0.97474,0.45784 0.32491,0 0.63997,-0.0985 0.9452,-0.29538 0.30522,-0.20676 0.54152,-0.50706 0.70891,-0.9009 h 0.57598 c -0.34461,0.9649 -0.83198,1.6935 -1.4621,2.1858 -0.63015,0.48244 -1.28,0.72367 -1.9495,0.72367 -0.45291,0 -0.89597,-0.12308 -1.3292,-0.36922 -0.43322,-0.25599 -0.75321,-0.61537 -0.95997,-1.0781 -0.20677,-0.4726 -0.31015,-1.1963 -0.31015,-2.171 v -9.0976 h -2.1415 v -0.48737 c 0.54152,-0.21659 1.0929,-0.58089 1.6541,-1.0929 0.57106,-0.52182 1.0781,-1.1372 1.5212,-1.8461 0.22645,-0.37413 0.54152,-1.0584 0.9452,-2.0529 h 0.45784" />
    <path
       inkscape:connector-curvature="0"
       id="path4008"
       d="m 597.55,554.25 c 0.41352,2e-5 0.76305,0.14771 1.0486,0.44306 0.29537,0.28555 0.44306,0.63508 0.44307,1.0486 -10e-6,0.41354 -0.1477,0.76799 -0.44307,1.0634 -0.28553,0.2954 -0.63506,0.44308 -1.0486,0.44307 -0.41353,1e-5 -0.76798,-0.14767 -1.0634,-0.44307 -0.29538,-0.29536 -0.44306,-0.64981 -0.44306,-1.0634 0,-0.41351 0.14276,-0.76304 0.42829,-1.0486 0.29538,-0.29535 0.65475,-0.44304 1.0781,-0.44306 m 1.2258,7.0743 0,10.87 c -10e-6,0.84675 0.0591,1.4129 0.17723,1.6984 0.12799,0.27568 0.31013,0.48244 0.54644,0.62029 0.24614,0.13784 0.68921,0.20676 1.3292,0.20676 v 0.53168 h -6.5721 v -0.53168 c 0.65968,0 1.1027,-0.064 1.3292,-0.192 0.22645,-0.12799 0.40367,-0.33968 0.53167,-0.63505 0.13784,-0.29538 0.20676,-0.86152 0.20677,-1.6984 v -5.2134 c -1e-5,-1.467 -0.0443,-2.4172 -0.13292,-2.8504 -0.0689,-0.31506 -0.17723,-0.53166 -0.32492,-0.64983 -0.14769,-0.12798 -0.34953,-0.19198 -0.60552,-0.19199 -0.27568,10e-6 -0.61044,0.0738 -1.0043,0.22153 l -0.20676,-0.53168 4.0762,-1.6541 h 0.64983" />
    <path
       inkscape:connector-curvature="0"
       id="path4010"
       d="m 611.78,562.79 0,8.8908 c 0,1.2603 0.13784,2.0578 0.41353,2.3926 0.36429,0.43322 0.85166,0.64983 1.4621,0.64983 h 1.2258 v 0.53168 h -8.0785 v -0.53168 h 0.60552 c 0.39384,0 0.75321,-0.0985 1.0781,-0.29538 0.32491,-0.19691 0.54644,-0.46275 0.66459,-0.79751 0.128,-0.33476 0.19199,-0.98459 0.192,-1.9495 v -8.8908 h -2.6288 v -1.0634 h 2.6288 v -0.88613 c -10e-6,-1.3489 0.2166,-2.491 0.64983,-3.4264 0.43321,-0.93534 1.0929,-1.6886 1.979,-2.2596 0.89596,-0.58088 1.9002,-0.87133 3.0128,-0.87136 1.0338,3e-5 1.9839,0.33478 2.8504,1.0043 0.57105,0.44309 0.85658,0.9403 0.85659,1.4916 -1e-5,0.2954 -0.128,0.576 -0.38398,0.84183 -0.25601,0.25601 -0.53169,0.384 -0.82706,0.38398 -0.22646,2e-5 -0.46769,-0.0787 -0.72367,-0.2363 -0.24616,-0.16736 -0.55138,-0.51689 -0.91567,-1.0486 -0.3643,-0.54151 -0.69906,-0.9058 -1.0043,-1.0929 -0.30524,-0.18706 -0.64492,-0.28059 -1.019,-0.28061 -0.45292,2e-5 -0.83691,0.12309 -1.152,0.36922 -0.31507,0.23632 -0.54153,0.61046 -0.67937,1.1224 -0.13784,0.50216 -0.20676,1.8067 -0.20676,3.9137 v 0.97475 h 3.4854 v 1.0634 h -3.4854" />
  </g>
  <g
     id="text3052"
     style="font-size:30.24652481px;font-style:normal;font-variant:normal;font-weight:normal;font-stretch:normal;line-height:125%;letter-spacing:0px;word-spacing:0px;fill:#ffffff;font-family:Arial"
     font-weight="normal"
     font-size="30.24652481000000037px"
     font-style="normal"
     font-stretch="normal"
     line-height="125%"
     font-variant="normal"
     transform="translate(-182.9803,-188.05322)">
    <path
       inkscape:connector-curvature="0"
       id="path3116"
       d="m 309.78,231.92 c -6.912,0 -8.448,-4.128 -8.448,-12.48 0,-8.304 1.584,-12.864 8.448,-12.864 6.864,0 8.448,4.608 8.448,12.864 0,8.544 -1.488,12.48 -8.448,12.48 m 0,4.512 c 10.32,0 13.296,-5.664 13.296,-16.992 0,-11.088 -3.024,-17.376 -13.296,-17.376 -10.272,0 -13.248,6.336 -13.248,17.376 0,11.136 2.976,16.992 13.248,16.992" />
    <path
       inkscape:connector-curvature="0"
       id="path3118"
       d="m 343.87,227.95 c 5.544,0 8.208,-3.24 8.208,-8.784 0,-5.544 -2.664,-8.244 -8.208,-8.244 h -9.072 v 24.984 h 3.492 v -7.956 h 5.58 m -5.58,-3.348 0,-10.332 5.58,0 c 3.204,0 4.644,1.548 4.644,4.896 0,3.348 -1.44,5.436 -4.644,5.436 h -5.58" />
    <path
       inkscape:connector-curvature="0"
       id="path3120"
       d="m 362.92,235.91 15.372,0 0,-3.348 -11.916,0 0,-7.524 9.756,0 0,-3.276 -9.756,0 0,-7.488 11.916,0 0,-3.348 -15.372,0 0,24.984" />
    <path
       inkscape:connector-curvature="0"
       id="path3122"
       d="m 403.34,235.91 3.852,0 -4.392,-9.936 c 2.88,-1.152 4.248,-3.42 4.248,-7.236 0,-5.508 -2.664,-7.812 -8.172,-7.812 h -9.324 v 24.984 h 3.492 v -9 h 6.3 l 3.996,9 m 0.108,-17.1 c 0,2.88 -1.152,4.788 -4.536,4.788 h -5.868 v -9.36 h 5.832 c 3.096,0 4.572,1.476 4.572,4.572" />
    <path
       inkscape:connector-curvature="0"
       id="path3124"
       d="m 416.25,235.91 3.492,0 1.548,-5.616 9.72,0 1.62,5.58 3.528,0 -6.336,-24.948 -7.164,0 -6.408,24.984 m 9.072,-21.744 1.764,0 3.204,12.78 -8.244,0 3.276,-12.78" />
    <path
       inkscape:connector-curvature="0"
       id="path3126"
       d="m 443.36,214.27 7.272,0 0,21.636 3.528,0 0,-21.636 7.2,0 0,-3.348 -18,0 0,3.348" />
    <path
       inkscape:connector-curvature="0"
       id="path3128"
       d="m 470.49,235.91 3.492,0 0,-24.984 -3.492,0 0,24.984" />
    <path
       inkscape:connector-curvature="0"
       id="path3130"
       d="m 495.02,232.92 c -5.184,0 -6.336,-3.096 -6.336,-9.36 0,-6.228 1.188,-9.648 6.336,-9.648 5.148,0 6.336,3.456 6.336,9.648 0,6.408 -1.116,9.36 -6.336,9.36 m 0,3.384 c 7.74,0 9.972,-4.248 9.972,-12.744 0,-8.316 -2.268,-13.032 -9.972,-13.032 -7.704,0 -9.936,4.752 -9.936,13.032 0,8.352 2.232,12.744 9.936,12.744" />
    <path
       inkscape:connector-curvature="0"
       id="path3132"
       d="m 516.14,235.91 3.492,0 0,-20.736 0.72,0 9.072,20.736 5.76,0 0,-24.984 -3.492,0 0,20.736 -0.72,0 -8.928,-20.736 -5.904,0 0,24.984" />
  </g>
</svg>
