<svg id="svg2" xmlns:rdf="http://www.w3.org/1999/02/22-rdf-syntax-ns#" xmlns="http://www.w3.org/2000/svg" height="82" width="466" version="1.1" xmlns:cc="http://creativecommons.org/ns#" xmlns:dc="http://purl.org/dc/elements/1.1/">
<g id="layer1" transform="translate(0,-970.36218)">
<path id="path4819-5-1-9-7-8-7-82-5" d="m428,971c4.46,0,8.15,3.67,8.15,8.1,0,2.74-1.41,5.19-3.54,6.65,0.0715,0.201,0.124,0.406,0.146,0.627l0.243,2.27,10.2,11,0.631,0.771,0.0485,0.964,0.485,15.2c0.0537,1.48-1.13,2.69-2.62,2.75-1.49,0.053-2.71-1.08-2.77-2.55l-0.437-14.3-4.56-4.92,5.58,51.2c0.161,1.46-0.904,2.78-2.38,2.94-1.47,0.16-2.8-0.898-2.96-2.36l-2.85-26.7-3.54,8.59-1.62,16.7c-0.0591,0.976-0.661,1.85-1.55,2.27-0.892,0.414-1.93,0.292-2.72-0.289-0.792-0.581-1.2-1.54-1.07-2.51l1.72-17.7s7.68-15.6,7.74-15.7l-1.06-10.2-1.12,4.39-0.146,0.482-0.243,0.386-8.01,11.7c-0.491,0.89-1.45,1.44-2.47,1.4-1.02-0.043-1.92-0.663-2.33-1.59-0.413-0.928-0.266-2.02,0.388-2.8l7.67-11.2,4.46-17.7,0.0971-0.434-0.146-1.16c-4.19-0.304-7.57-3.82-7.57-8.05-0.00001-4.43,3.7-8.1,8.15-8.1z" style="stroke-linejoin:miter;fill-rule:evenodd;stroke:#000080;stroke-linecap:round;stroke-miterlimit:4;stroke-dasharray:none;stroke-width:0.5;fill:#888888;">
<title id="title4006-3">affluence3</title>
</path>
<rect id="rect3114-0" style="stroke:#000080;stroke-miterlimit:4;stroke-dasharray:none;stroke-width:0.5;fill:#888888;" transform="matrix(0,1,-1,0,0,0)" height="84.5" width="7.58" y="-96.8" x="1040"/>
<path id="path3943" style="stroke-linejoin:round;stroke-dashoffset:0;stroke:#000080;stroke-linecap:round;stroke-miterlimit:4;stroke-dasharray:none;stroke-width:0.62373829;fill:#888888;" transform="matrix(1.6319,0.04047379,-0.16954637,0.38956411,18.084072,946.15952)" d="M58.9,103,7.7,109,28.7,61.5z"/>
<g id="g3988" transform="translate(0,85.640977)">
<rect id="rect3114" style="stroke:#000080;stroke-miterlimit:4;stroke-dasharray:none;stroke-width:0.5;fill:#888888;" height="49.5" width="7.5" y="906" x="20.2"/>
<rect id="rect3114-6" style="stroke:#000080;stroke-miterlimit:4;stroke-dasharray:none;stroke-width:0.5;fill:#888888;" height="49.5" width="7.5" y="906" x="40.2"/>
<rect id="rect3114-6-5" style="stroke:#000080;stroke-miterlimit:4;stroke-dasharray:none;stroke-width:0.5;fill:#888888;" height="49.5" width="7.5" y="906" x="60.2"/>
<rect id="rect3114-6-1" style="stroke:#000080;stroke-miterlimit:4;stroke-dasharray:none;stroke-width:0.5;fill:#888888;" height="49.5" width="7.5" y="906" x="80.2"/>
</g>
<g id="g4037" style="stroke:#000080;stroke-dasharray:none;stroke-miterlimit:4;stroke-width:0.5;fill:#cccccf;" transform="translate(8,85.640977)">
<path id="path3998" d="m203,887c-31.6-0.0854-58,4.09-97.3,7.62l14,14.4c53.2-24.5,138-16,191-7.34l-8.73,8.13c17.4-0.51,61.7,1.81,61.7,1.81-27.2-7.47-25.8-6.32-51.1-11.7l-0.825,0.765c-49-10-81-14-109-14z" style="stroke-linejoin:miter;stroke:#000080;stroke-linecap:butt;stroke-miterlimit:4;stroke-dasharray:none;stroke-width:0.5;fill:#cccccf;"/>
<path id="path3998-5" d="m287,966c31.6,0.0854,58-4.09,97.3-7.62l-14-14.4c-53.2,24.5-138,16-191,7.34l8.73-8.13c-17.4,0.51-61.7-1.81-61.7-1.81,27.2,7.47,25.8,6.32,51.1,11.7l0.825-0.765c48.4,10.2,80.4,13.6,108,13.7z" style="stroke-linejoin:miter;stroke:#000080;stroke-linecap:butt;stroke-miterlimit:4;stroke-dasharray:none;stroke-width:0.5;fill:#cccccf;"/>
</g>
</g>
</svg>
