<svg id="svg3201" xmlns:rdf="http://www.w3.org/1999/02/22-rdf-syntax-ns#" xmlns="http://www.w3.org/2000/svg" height="431" width="492" version="1.1" xmlns:cc="http://creativecommons.org/ns#" xmlns:xlink="http://www.w3.org/1999/xlink" xmlns:dc="http://purl.org/dc/elements/1.1/">
<defs id="defs3203">
<radialGradient id="radialGradient3719" gradientUnits="userSpaceOnUse" cy="417" cx="246" gradientTransform="matrix(1.0479955,-0.0034165,0.00193298,0.59293216,-11.131286,154.94135)" r="233">
<stop id="stop3221" style="stop-color:#424242;" offset="0"/>
<stop id="stop3223" style="stop-color:#424242;stop-opacity:0;" offset="1"/>
</radialGradient>
<radialGradient id="radialGradient3722" gradientUnits="userSpaceOnUse" cy="32.3" cx="246" gradientTransform="matrix(1.0511408,-0.00256246,0.00193606,0.79418441,-11.258139,7.4445843)" r="233">
<stop id="stop3206" style="stop-color:#424242;" offset="0"/>
<stop id="stop3208" style="stop-color:#424242;stop-opacity:0;" offset="1"/>
</radialGradient>
<linearGradient id="linearGradient3759" y2="156" gradientUnits="userSpaceOnUse" x2="1.78" y1="155" x1="224">
<stop id="stop3211" style="stop-color:#013397;" offset="0"/>
<stop id="stop3213" style="stop-color:#013397;stop-opacity:0;" offset="1"/>
</linearGradient>
<radialGradient id="radialGradient3762" gradientUnits="userSpaceOnUse" cy="156" cx="274" gradientTransform="matrix(2.2281232,-0.01757331,0.02494898,3.1632825,-333.07445,-335.45097)" r="99.5">
<stop id="stop3216" stop-color="#e2011c" offset="0"/>
<stop id="stop3218" stop-color="#e2011c" stop-opacity="0" offset="1"/>
</radialGradient>
</defs>
<text id="text3225" style="font-size:4.83944416px;font-family:Arial;letter-spacing:0px;font-style:normal;word-spacing:0px;font-stretch:normal;font-variant:normal;font-weight:normal;line-height:125%;fill:#000000;" xml:space="preserve" font-size="4.83944416px" font-style="normal" font-stretch="normal" font-variant="normal" y="462.25305" x="373.49182" font-weight="normal" line-height="125%"><tspan id="tspan3227" y="462.25305" x="373.49182"/></text>
<rect id="rect3229" style="fill:#ffffff;" height="166" width="491" y="70.7" x="0.288"/>
<path id="path3231" style="fill:url(#radialGradient3762);" d="m281,237,0.745-1.92c1.27-3.48,2.58-6.13,4.46-9.05,2.01-3.08,6.41-7.63,8.24-8.51,2.25-1.07,5.06-1.45,8.52-1.14,2.98,0.259,12.1,1.75,15.8,2.59,2.81,0.632,6.91,0.692,8.84,0.13,3.73-1.09,5.93-3.18,6.98-6.63,0.803-2.64,0.796-5.04-0.0211-6.65-1.1-2.15-0.91-2.71,1.75-5.26,1.32-1.26,2.4-2.43,2.4-2.59,0.0112-0.853-1.82-4.27-2.28-4.29-0.288-0.004-0.856-0.279-1.27-0.608l-0.74-0.599,1.58-0.81c2.16-1.11,3.77-2.82,3.77-4.03,0-0.523-0.455-1.8-1.01-2.85-1.07-2.01-1.35-3.93-0.753-5.04,0.397-0.743,1.09-1.06,4.44-2.03,2.83-0.818,3.85-1.65,4.25-3.45,0.345-1.54,0.175-2.53-0.75-4.38-0.754-1.51-5.66-9.02-7.09-10.9-1.92-2.47-4.26-6.73-4.95-9.02-0.682-2.26-0.687-2.39-0.189-5.31,1.05-6.17,0.437-11.3-2.55-21.3-2.23-7.42-2.82-9.22-3.51-10.7-1.26-2.51-1.09-3.1,1.49-5.21,1.23-1.01,2.39-2.1,2.55-2.41,0.78-1.46-0.0918-4.27-1.57-5.07-0.938-0.502-1.46-0.157-2.42,1.59-0.722,1.33-1,1.58-1.77,1.58-1.26,0-1.48-0.528-0.675-1.61,0.936-1.27,0.862-1.47-0.609-1.67-1.1-0.148-1.68-0.578-4.07-3.01-3.2-3.26-5.35-4.76-9.64-6.73-1.96-0.903-2.65-1.33-1.93-1.2,0.614,0.108,2.79,0.28,4.82,0.382,5.92,0.298,7.37-0.486,8.74-4.75,0.937-2.89,1.38-4.23-0.764-6.26l-7.89-7.42h179v166h-210z"/>
<path id="path3233" style="fill:url(#linearGradient3759);" d="m130,237c-1.29-0.135-2.4-0.193-2.48-0.27-0.135-0.135,1.32-1.07,7.97-5.12,2.13-1.3,3.01-1.99,2.71-2.15-0.241-0.129-2.1-0.332-4.14-0.454-3.02-0.179-3.89-0.128-4.79,0.282-0.599,0.275-2.99,1-5.32,1.61-5.76,1.51-7.7,2.55-9.55,5.12l-0.691,0.991h-114v-167h226l-4.37,2.85c-2.41,1.19-5.2,2.85-6.22,3.68-3.43,2.83-8.05,9.26-9.2,12.8-0.424,1.31-0.808,1.79-2.11,2.68-1.98,1.35-4.36,3.94-6.33,6.88-2.67,3.99-7.77,13-8.77,15.5-1.55,3.87-1.41,6.82,0.88,18.4,1.01,5.1,2.1,10.3,2.43,11.5,0.325,1.23,0.682,3.31,0.792,4.63,0.196,2.35,0.349,2.86,1.73,5.75,0.377,0.791,0.685,1.69,0.685,1.99-0.00063,0.306,0.286,0.736,0.637,0.955,0.364,0.228,0.639,0.745,0.639,1.2,0,0.553,0.727,1.6,2.32,3.36,3.65,4.01,6.29,7.77,6.29,8.96,0,0.977-1.44,1.22-3.74,0.66-2.7-0.666-4.91-2.1-8.31-5.41-1.45-1.41-2.64-2.35-2.64-2.11,0,0.251,0.993,1.56,2.21,2.91,2.42,2.68,2.8,3.42,2.27,4.39-0.457,0.854-1.57,1.1-3.07,0.687-1.73-0.479-2.75,0.189-2.47,1.63,0.175,0.878,0.128,0.982-0.368,0.791-0.98-0.377-3.12-0.807-5.06-1.02-1.77-0.191-1.9-0.269-2.98-1.76-0.813-1.13-1.45-1.66-2.3-1.89-3.17-0.89-11.1-2.26-16.4-2.84-9.3-1.02-11.5-1.11-16-0.574-3.42,0.407-4.35,0.646-6.23,1.59-3.31,1.69-9.07,6.97-9.07,8.34,0,0.639,1.27,0.414,2.71-0.483,4.39-2.72,19.4-6.56,26.8-6.85,3.66-0.141,3.46,0.0343-0.929,0.821-1.21,0.217-4.08,0.954-6.39,1.64-2.3,0.682-6.26,1.73-8.8,2.33-2.54,0.603-5.41,1.38-6.39,1.73l-1.75,0.631,2.71,0.0297c13.8,0.151,29.6,4.54,36,10,2.75,2.36,3.77,2.65,7.83,2.22,5.56-0.586,12.8-3.24,15.9-5.87,1.37-1.14,2.5-1.59,2.49-1-0.003,1.04-1.82,6.65-2.61,8.04-0.875,1.55-0.925,1.77-0.469,2.11,0.28,0.205,0.429,0.453,0.33,0.552-0.0983,0.0984,0.119,0.273,0.483,0.389,1.05,0.332,0.784,0.654-0.888,1.09-1.63,0.418-2.92,1.15-2.92,1.66,0,0.166,0.224,0.302,0.498,0.302,0.82,0,0.208,0.573-0.863,0.808-0.734,0.161-0.88,0.293-0.555,0.499,0.319,0.202,0.33,0.281,0.0425,0.285-0.22,0.002-0.399,0.329-0.399,0.725,0,0.494-0.302,0.854-0.957,1.14-1.59,0.708-1.15,1.09,1.04,0.886,1.1-0.103,1.78-0.102,1.52,0.002-0.264,0.104-2.06,0.917-3.99,1.8-1.93,0.89-4.44,1.94-5.58,2.34-1.29,0.454-2.12,0.932-2.18,1.27-0.112,0.538,0.489,0.52,1.99-0.0594,0.28-0.108,0.504-0.0721,0.5,0.0785s-3.32,2.07-7.39,4.26c-4.06,2.2-7.86,4.46-8.44,5.03-0.584,0.571-1.33,1.04-1.66,1.04-0.331,0-0.763,0.363-0.968,0.814-0.621,1.36-0.492,1.53,0.986,1.28,2.2-0.377,3.2-0.357,3.35,0.0691,0.0788,0.23-0.129,0.399-0.489,0.399-0.344,0-0.798,0.207-1.01,0.46-0.21,0.253-0.764,0.504-1.23,0.559-0.544,0.0632-1.08,0.464-1.49,1.12-0.354,0.559-0.93,1.09-1.28,1.18-0.351,0.0902,0.152,0.105,1.12,0.0335,14.4-1.07,17-1.6,22.8-4.54,4.94-2.5,10.1-6.23,13.7-9.96,1.05-1.08,2.02-1.95,2.15-1.95,0.496,0,0.227,1.79-0.506,3.37-1.27,2.72-3.93,5.23-9.39,8.87-2.75,1.83-5.73,3.56-6.61,3.83-2.74,0.864-7.17,1.78-11.8,2.46-15.1,2.18-20.9,3.84-26.6,7.63-0.959,0.634-1.96,1.12-2.24,1.07-0.271-0.046-0.995,0.345-1.6,0.869-1.72,1.48-0.475,1.22,3.1-0.618,3.66-1.89,5.38-2.18,2.49-0.432-3.54,2.15-6.24,3.5-8.89,3.5h-14.2zm-18.8-18.5c0.574-0.24,2.47-1.31,4.22-2.36,1.75-1.06,3.82-2.22,4.61-2.58,0.791-0.359,3.02-1.36,4.95-2.24,4.05-1.83,9.98-3.55,10.3-3,0.12,0.194,1,0.408,1.96,0.476,1.35,0.0941,1.58,0.18,1.03,0.376-0.395,0.139-0.719,0.381-0.719,0.536,0,0.578,2.99,0.404,4.24-0.246,0.493-0.255,1.6-0.548,2.48-0.651,1.08-0.128,1.58-0.334,1.58-0.65,0-0.361,0.274-0.417,1.25-0.251,1.34,0.227,4.23-0.319,12-2.27,5.27-1.32,9.25-2.65,12.8-4.25l2.53-1.16-2.53-1.63c-6.17-3.96-12.3-6.39-26-10.2-2.37-0.661-4.45-1.34-4.63-1.52-0.212-0.21-0.104-0.241,0.319-0.0883,1.36,0.488,2.4,0.582,2.4,0.216,0-0.474-1.03-0.855-3.05-1.13-1.85-0.253-3.04-0.804-1.75-0.813,1.98-0.0125-1.42-1.28-5.26-1.94-2.83-0.492-3-0.597-1.82-1.17,1.03-0.499,2.14-2.39,1.85-3.15-0.247-0.645-0.556-0.578-2.09,0.45-2.96,1.98-5.66,5.23-7.18,8.61-0.868,1.93-0.568,2.11,3.89,2.3,3.66,0.156,3.72,0.171,2.78,0.674-0.527,0.283-1.58,0.611-2.34,0.728-2.6,0.398-4.04,1.64-2.75,2.35,0.382,0.214,0.23,0.395-0.708,0.842-1.05,0.502-1.13,0.608-0.621,0.892,0.316,0.177,1.23,0.269,2.04,0.205,1.12-0.0892,1.64,0.0316,2.17,0.512l0.706,0.629-1.41,0.899c-0.779,0.494-1.66,1.36-1.96,1.92-0.298,0.564-1.37,1.9-2.37,2.98-1.01,1.08-1.84,2.18-1.84,2.47,0,0.284-1.48,1.7-3.27,3.13-4.84,3.87-6.94,6.01-6.94,7.03,0,0.542-0.273,1.03-0.754,1.35-1.51,0.991-2.3,2.13-1.47,2.13,0.182,0,0.799-0.196,1.37-0.436zm37.4-3.74c1.19-0.16,2.59-0.531,3.08-0.824l0.903-0.534-1.54-0.768-1.54-0.768-1.54,0.624c-0.845,0.343-2.02,0.804-2.61,1.03-2.35,0.892-2.66,2.09-0.452,1.76,0.834-0.125,2.49-0.357,3.69-0.516zm-53.6-14c7.11-7.44,12.1-11.8,18.5-16.3,2.16-1.5,3.69-2.37,3.77-2.14,0.207,0.621,1.13,0.438,2.65-0.521,1.73-1.1,2.61-2.22,4.77-6.13,2.25-4.05,3.09-5.08,6.34-7.57,1.52-1.17,3.75-2.91,4.96-3.88,1.75-1.39,2.17-1.6,2.03-1.06-0.112,0.426-0.0345,0.694,0.199,0.694,0.725,0,4.14-1.46,4.26-1.82,0.188-0.565-3.28-1.15-5.85-0.983-1.97,0.127-2.67,0.356-5.12,1.68-5.75,3.1-9.9,6.46-17.8,14.4-5.71,5.71-10.2,9.53-12.5,10.7-0.74,0.354-1.3,1.1-2.2,2.91-1.74,3.55-4.85,8.62-7.82,12.8-2.8,3.91-3.4,5.26-1.22,2.75,0.746-0.859,3.01-3.29,5.02-5.4zm71.1,34.9c8.55-1.77,9.49-1.91,15.5-2.17,6.73-0.296,7.59-0.47,11.6-2.37,1.3-0.61,1.8-0.721,1.98-0.434,0.313,0.501,2.51-0.696,6.81-3.7,1.75-1.23,4.24-2.81,5.52-3.49,1.93-1.04,2.51-1.22,3.44-1.05,0.99,0.186,1.29,0.0652,2.54-1.05,3.5-3.08,6.49-4.52,9.48-4.52,0.889-0.003,1.19,0.129,1.19,0.51,0,0.325,0.175,0.445,0.479,0.329,0.89-0.342,0.487,0.0491-1.8,1.75-2.65,1.96-2.39,2.55,0.305,0.69,2.61-1.8,2.62-1.8,2.62-1.08,0,0.416-0.982,1.46-2.8,2.98-4.13,3.44-7.04,6.29-11.5,11.2l-3.98,4.26h-50.6l9.1-1.83zm0.0798-65c0.307-0.0803,0.811-0.0803,1.12,0,0.307,0.0803,0.0558,0.146-0.558,0.146s-0.865-0.0658-0.558-0.146z"/>
<path id="path3235" style="fill:#7f7f7f;" d="m315,158c-1.39-0.211-0.674-0.729,1.01-0.729,1.69,0,2.59-0.65,2.59-1.88,0-0.579-0.126-0.675-0.667-0.503-0.467,0.148-0.799,0.0235-1.11-0.415-0.287-0.41-0.979-0.699-1.99-0.834-1.83-0.242-4.77-2.01-4.24-2.53,0.18-0.18,1.12-0.394,2.08-0.474,1.67-0.138,1.77-0.202,2.11-1.22,0.252-0.766,0.604-1.14,1.21-1.28,0.47-0.111,1.21-0.532,1.65-0.936,0.439-0.404,1.88-1.44,3.19-2.3,2.22-1.45,3.59-2.99,3.09-3.47-0.516-0.517-5.31-1.08-7.57-0.888-2.62,0.223-7.13,1.17-9.01,1.9-1.94,0.747-1.37,0.0965,1.29-1.48,3.59-2.13,10.5-4.12,14.4-4.12,1.49,0,6.45,1.17,7.04,1.67,1.16,0.96-0.105,4.34-2.26,6.02l-0.897,0.703,0.738,0.787,0.738,0.787-0.754,0.612c-0.415,0.337-0.983,0.612-1.27,0.612-0.28,0-0.971,0.45-1.54,0.998-0.872,0.845-0.984,1.12-0.734,1.77,0.194,0.511,0.175,1.01-0.0551,1.44-0.215,0.402-0.269,1.32-0.139,2.35,0.265,2.12-0.117,2.88-1.67,3.31-1.15,0.32-5.36,0.382-7.19,0.106z"/>
<g id="g3237" style="font-size:50.75975418px;font-family:Arial;letter-spacing:0px;font-style:normal;word-spacing:0px;font-stretch:normal;font-variant:normal;font-weight:normal;line-height:125%;fill:#000000;" transform="matrix(1.0473901,0,0,1.0635402,-193.09957,-198.06719)" line-height="125%" font-stretch="normal" font-size="50.75975418px" font-variant="normal" font-weight="normal" font-style="normal">
<path id="path3239" d="m200,485,0,14.9,1.04,0c1.6,0.00002,2.92-0.241,3.93-0.722,1.02-0.481,1.87-1.29,2.57-2.43,0.713-1.14,1.18-2.68,1.39-4.63h0.936v18.2h-0.936c-0.339-3.44-1.27-5.71-2.78-6.79-1.5-1.11-3.2-1.66-5.11-1.66h-0.79v11.1c-0.00002,1.85,0.0981,3.01,0.294,3.48,0.214,0.464,0.615,0.874,1.2,1.23,0.606,0.339,1.42,0.508,2.43,0.508h1.2v0.99h-19v-0.99h1.2c1.05,0,1.9-0.187,2.54-0.562,0.464-0.25,0.82-0.678,1.07-1.28,0.196-0.428,0.294-1.55,0.294-3.37v-23.9c-0.00001-1.85-0.0981-3.01-0.294-3.48-0.196-0.464-0.597-0.865-1.2-1.2-0.588-0.357-1.39-0.535-2.41-0.535h-1.2v-0.99h30.6v10.4h-1.1c-0.25-2.44-0.892-4.25-1.93-5.43-1.02-1.18-2.5-2.01-4.44-2.49-1.07-0.267-3.05-0.401-5.94-0.401h-3.37"/>
<path id="path3241" d="m236,505,0,8.47c-0.00001,1.63,0.0966,2.67,0.29,3.1,0.208,0.416,0.565,0.75,1.07,1,0.505,0.253,1.45,0.379,2.83,0.379v0.825h-15.5v-0.825c1.4,0,2.34-0.126,2.83-0.379,0.505-0.268,0.854-0.609,1.05-1.03,0.208-0.416,0.312-1.44,0.312-3.08v-19.6c-0.00001-1.63-0.104-2.66-0.312-3.08-0.193-0.431-0.542-0.773-1.05-1.03-0.505-0.253-1.45-0.379-2.83-0.379v-0.825h14c3.66,0.00003,6.33,0.253,8.02,0.758s3.08,1.44,4.15,2.81c1.07,1.35,1.6,2.94,1.6,4.77-0.00003,2.23-0.803,4.07-2.41,5.53-1.03,0.921-2.46,1.61-4.3,2.07l7.27,10.2c0.951,1.32,1.63,2.15,2.03,2.47,0.609,0.461,1.32,0.713,2.12,0.758v0.825h-9.52l-9.74-13.8h-1.98m0-14.8,0,13.2,1.27,0c2.07,0.00002,3.61-0.186,4.64-0.557,1.03-0.386,1.83-1.07,2.41-2.05,0.594-0.996,0.892-2.29,0.892-3.88-0.00002-2.3-0.542-4-1.63-5.1-1.07-1.1-2.8-1.65-5.19-1.65h-2.39"/>
<path id="path3243" d="m281,510-10.7,0-1.27,2.94c-0.416,0.981-0.624,1.79-0.624,2.43,0,0.847,0.342,1.47,1.03,1.87,0.401,0.238,1.39,0.416,2.96,0.535v0.825h-10.1v-0.825c1.08-0.163,1.98-0.609,2.68-1.34,0.698-0.743,1.56-2.27,2.59-4.57l10.8-24.1h0.424l10.9,24.8c1.04,2.35,1.89,3.83,2.56,4.44,0.505,0.461,1.22,0.728,2.14,0.802v0.825h-14.6v-0.825h0.602c1.17,0,2-0.163,2.47-0.49,0.327-0.238,0.49-0.58,0.49-1.03-0.00002-0.267-0.0446-0.542-0.134-0.825-0.0297-0.134-0.253-0.691-0.669-1.67l-1.6-3.77m-0.758-1.65-4.5-10.4-4.64,10.4,9.14,0"/>
<path id="path3245" d="m312,489,14.9,18.7,0-13c-0.00003-1.81-0.26-3.04-0.78-3.68-0.713-0.862-1.91-1.28-3.59-1.25v-0.825h9.99v0.825c-1.28,0.164-2.14,0.379-2.59,0.646-0.431,0.253-0.773,0.676-1.03,1.27-0.238,0.58-0.357,1.58-0.357,3.01v25.2h-0.758l-20.4-25.2v19.2c-0.00001,1.74,0.394,2.91,1.18,3.52,0.802,0.609,1.72,0.914,2.74,0.914h0.713v0.825h-10.7v-0.825c1.66-0.0149,2.82-0.357,3.48-1.03,0.654-0.669,0.981-1.81,0.981-3.41v-21.3l-0.646-0.802c-0.639-0.802-1.2-1.33-1.69-1.58-0.49-0.253-1.2-0.394-2.12-0.424v-0.825h10.7"/>
<path id="path3247" d="m369,488,0,10.5-0.869,0c-0.654-2.73-1.87-4.83-3.66-6.29-1.78-1.46-3.8-2.18-6.06-2.18-1.89,0.00003-3.62,0.542-5.19,1.63-1.58,1.08-2.73,2.5-3.46,4.26-0.936,2.24-1.4,4.74-1.4,7.49-0.00001,2.7,0.342,5.17,1.03,7.4,0.684,2.21,1.75,3.89,3.21,5.04,1.46,1.13,3.34,1.69,5.66,1.69,1.9,0.00001,3.64-0.416,5.22-1.25,1.59-0.832,3.26-2.27,5.02-4.3v2.61c-1.69,1.77-3.46,3.05-5.31,3.86-1.83,0.788-3.97,1.18-6.42,1.18-3.22,0-6.09-0.646-8.6-1.94-2.5-1.29-4.43-3.15-5.8-5.57-1.35-2.42-2.03-5-2.03-7.74,0-2.88,0.75-5.62,2.25-8.2,1.52-2.59,3.55-4.59,6.11-6.02,2.57-1.43,5.3-2.14,8.18-2.14,2.13,0.00003,4.37,0.461,6.73,1.38,1.37,0.535,2.24,0.803,2.61,0.802,0.476,0.00003,0.884-0.171,1.23-0.513,0.357-0.357,0.587-0.914,0.691-1.67h0.869"/>
<path id="path3249" d="m389,490,0,12.3,0.602,0c1.92,0.00002,3.31-0.602,4.17-1.81,0.862-1.2,1.41-2.98,1.65-5.33h0.847v15.8h-0.847c-0.178-1.72-0.557-3.14-1.14-4.24-0.565-1.1-1.23-1.84-1.98-2.21-0.758-0.386-1.86-0.58-3.3-0.58v8.52c-0.00001,1.66,0.0669,2.68,0.201,3.05,0.149,0.372,0.416,0.676,0.802,0.914s1.01,0.357,1.87,0.357h1.81c2.82,0,5.08-0.654,6.78-1.96,1.71-1.31,2.94-3.3,3.68-5.97h0.825l-1.36,9.61h-26.1v-0.825h1c0.877,0,1.58-0.156,2.12-0.468,0.386-0.208,0.684-0.565,0.892-1.07,0.163-0.357,0.245-1.29,0.245-2.81v-19.9c0-1.37-0.0371-2.21-0.111-2.52-0.149-0.52-0.424-0.921-0.825-1.2-0.565-0.416-1.34-0.624-2.32-0.624h-1v-0.825h25.3v8.94h-0.847c-0.431-2.18-1.04-3.75-1.83-4.7-0.773-0.951-1.87-1.65-3.3-2.1-0.832-0.267-2.39-0.401-4.68-0.401h-3.12"/>
<path id="path3251" d="m446,519,0-0.99,1.2,0c1.05,0,1.85-0.16,2.41-0.481,0.571-0.339,0.99-0.794,1.26-1.36,0.16-0.374,0.241-1.5,0.241-3.37v-23.9c0-1.85-0.0981-3.01-0.294-3.48-0.196-0.464-0.597-0.865-1.2-1.2-0.588-0.357-1.39-0.535-2.41-0.535h-0.72v-0.99h16.2c4.33,0.00004,7.82,0.589,10.5,1.77,3.23,1.44,5.67,3.63,7.33,6.55,1.68,2.92,2.51,6.23,2.51,9.92-0.00004,2.55-0.41,4.9-1.23,7.06-0.82,2.14-1.88,3.91-3.18,5.32-1.3,1.39-2.81,2.51-4.52,3.37-1.69,0.838-3.77,1.49-6.23,1.95-1.09,0.214-2.8,0.321-5.14,0.321h-17.7m13.8-34.2,0,28.3c-0.00001,1.5,0.0713,2.42,0.214,2.76,0.143,0.339,0.383,0.597,0.722,0.776,0.481,0.267,1.18,0.401,2.09,0.401,2.98,0,5.25-1.02,6.82-3.05,2.14-2.75,3.21-7.01,3.21-12.8-0.00003-4.65-0.731-8.37-2.19-11.2-1.16-2.18-2.65-3.66-4.47-4.44-1.28-0.553-3.42-0.82-6.39-0.802"/>
<path id="path3253" d="m507,518,0,0.825-15.8,0,0-0.825,1,0c0.877,0,1.58-0.156,2.12-0.468,0.386-0.208,0.684-0.565,0.892-1.07,0.163-0.357,0.245-1.29,0.245-2.81v-19.9c-0.00001-1.55-0.0817-2.51-0.245-2.9-0.163-0.386-0.498-0.721-1-1-0.49-0.297-1.16-0.446-2.01-0.446h-1v-0.825h15.8v0.825h-1c-0.877,0.00003-1.58,0.156-2.12,0.468-0.386,0.208-0.691,0.565-0.914,1.07-0.163,0.357-0.245,1.29-0.245,2.81v19.9c-0.00001,1.55,0.0817,2.51,0.245,2.9,0.178,0.386,0.513,0.728,1,1.03,0.505,0.282,1.18,0.424,2.03,0.424h1"/>
<path id="path3255" d="m525,505,0,8.47c-0.00001,1.63,0.0966,2.67,0.29,3.1,0.208,0.416,0.565,0.75,1.07,1,0.505,0.253,1.45,0.379,2.83,0.379v0.825h-15.5v-0.825c1.4,0,2.34-0.126,2.83-0.379,0.505-0.268,0.854-0.609,1.05-1.03,0.208-0.416,0.312-1.44,0.312-3.08v-19.6c0-1.63-0.104-2.66-0.312-3.08-0.193-0.431-0.542-0.773-1.05-1.03-0.505-0.253-1.45-0.379-2.83-0.379v-0.825h14c3.66,0.00003,6.33,0.253,8.02,0.758s3.08,1.44,4.15,2.81c1.07,1.35,1.6,2.94,1.6,4.77-0.00003,2.23-0.803,4.07-2.41,5.53-1.03,0.921-2.46,1.61-4.3,2.07l7.27,10.2c0.951,1.32,1.63,2.15,2.03,2.47,0.609,0.461,1.32,0.713,2.12,0.758v0.825h-9.52l-9.74-13.8h-1.98m0-14.8,0,13.2,1.27,0c2.07,0.00002,3.61-0.186,4.64-0.557,1.03-0.386,1.83-1.07,2.41-2.05,0.594-0.996,0.892-2.29,0.892-3.88-0.00002-2.3-0.542-4-1.63-5.1-1.07-1.1-2.8-1.65-5.19-1.65h-2.39"/>
<path id="path3257" d="m564,490,0,12.3,0.602,0c1.92,0.00002,3.31-0.602,4.17-1.81,0.862-1.2,1.41-2.98,1.65-5.33h0.847v15.8h-0.847c-0.178-1.72-0.557-3.14-1.14-4.24-0.565-1.1-1.23-1.84-1.98-2.21-0.758-0.386-1.86-0.58-3.3-0.58v8.52c-0.00002,1.66,0.0669,2.68,0.201,3.05,0.149,0.372,0.416,0.676,0.802,0.914s1.01,0.357,1.87,0.357h1.81c2.82,0,5.08-0.654,6.78-1.96,1.71-1.31,2.94-3.3,3.68-5.97h0.825l-1.36,9.61h-26.1v-0.825h1c0.877,0,1.58-0.156,2.12-0.468,0.386-0.208,0.684-0.565,0.892-1.07,0.163-0.357,0.245-1.29,0.245-2.81v-19.9c-0.00001-1.37-0.0372-2.21-0.111-2.52-0.149-0.52-0.424-0.921-0.825-1.2-0.565-0.416-1.34-0.624-2.32-0.624h-1v-0.825h25.3v8.94h-0.847c-0.431-2.18-1.04-3.75-1.83-4.7-0.773-0.951-1.87-1.65-3.3-2.1-0.832-0.267-2.39-0.401-4.68-0.401h-3.12"/>
<path id="path3259" d="m618,488,0,10.5-0.869,0c-0.654-2.73-1.87-4.83-3.66-6.29-1.78-1.46-3.8-2.18-6.06-2.18-1.89,0.00003-3.62,0.542-5.19,1.63-1.58,1.08-2.73,2.5-3.46,4.26-0.936,2.24-1.4,4.74-1.4,7.49-0.00001,2.7,0.342,5.17,1.03,7.4,0.684,2.21,1.75,3.89,3.21,5.04,1.46,1.13,3.34,1.69,5.66,1.69,1.9,0.00001,3.64-0.416,5.22-1.25,1.59-0.832,3.26-2.27,5.02-4.3v2.61c-1.69,1.77-3.46,3.05-5.31,3.86-1.83,0.788-3.97,1.18-6.42,1.18-3.22,0-6.09-0.646-8.6-1.94-2.5-1.29-4.43-3.15-5.8-5.57-1.35-2.42-2.03-5-2.03-7.74-0.00001-2.88,0.75-5.62,2.25-8.2,1.52-2.59,3.55-4.59,6.11-6.02,2.57-1.43,5.3-2.14,8.18-2.14,2.13,0.00003,4.37,0.461,6.73,1.38,1.37,0.535,2.24,0.803,2.61,0.802,0.476,0.00003,0.884-0.171,1.23-0.513,0.357-0.357,0.587-0.914,0.691-1.67h0.869"/>
<path id="path3261" d="m654,489,0,8.18-0.802,0c-0.476-1.89-1-3.24-1.58-4.06-0.58-0.832-1.37-1.49-2.39-1.98-0.565-0.267-1.55-0.401-2.96-0.401h-2.25v23.3c-0.00002,1.55,0.0817,2.51,0.245,2.9,0.178,0.386,0.513,0.728,1,1.03,0.505,0.282,1.19,0.424,2.05,0.424h1v0.825h-15.8v-0.825h1c0.877,0,1.58-0.156,2.12-0.468,0.386-0.208,0.691-0.565,0.914-1.07,0.163-0.357,0.245-1.29,0.245-2.81v-23.3h-2.18c-2.04,0.00003-3.51,0.431-4.44,1.29-1.29,1.2-2.11,2.92-2.45,5.15h-0.847v-8.18h27.2"/>
</g>
<g id="g3263" style="font-size:23.359478px;font-family:Arial;letter-spacing:0px;font-style:normal;word-spacing:0px;font-stretch:normal;font-variant:normal;font-weight:normal;line-height:125%;fill:#000000;" transform="matrix(1.0554343,0,0,1.0554343,-193.09957,-198.06719)" font-size="23.359478px" line-height="125%" font-stretch="normal" font-variant="normal" font-weight="normal" font-style="normal">
<path id="path3265" d="m195,451c-2.18,0-3.95-0.446-5.29-1.34-1.34-0.892-2.36-2.11-3.03-3.65-0.665-1.54-0.998-3.05-0.998-4.51,0-2.95,0.845-5.93,2.54-8.92,1.69-3.01,3.97-5.41,6.83-7.21,2.87-1.81,5.71-2.71,8.5-2.71,1.64,0.00002,3.19,0.413,4.65,1.24,1.48,0.825,2.62,1.98,3.43,3.45,0.825,1.48,1.24,2.97,1.24,4.47-0.00003,3.37-1.07,6.75-3.21,10.1-2.14,3.38-4.55,5.83-7.23,7.35-2.02,1.13-4.5,1.7-7.43,1.7m7.88-26.7c-1.05,0.00002-1.95,0.193-2.69,0.579-0.732,0.373-1.5,1-2.3,1.9-0.798,0.892-1.61,2.17-2.44,3.83-0.825,1.65-1.6,3.9-2.34,6.75-0.719,2.85-1.08,5.22-1.08,7.13-0.00001,1.62,0.353,2.85,1.06,3.69,0.705,0.825,1.61,1.24,2.71,1.24,1.46,0,2.71-0.486,3.73-1.46,2.04-1.93,3.69-4.76,4.97-8.48,1.29-3.74,1.94-7.07,1.94-9.98-0.00002-1.82-0.346-3.14-1.04-3.95-0.679-0.825-1.52-1.24-2.54-1.24"/>
<path id="path3267" d="m221,438,4.72-0.798,0.855,0-0.642,2.32c0.998-0.912,1.82-1.53,2.45-1.84,0.637-0.323,1.27-0.485,1.9-0.485,0.893,0.00001,1.58,0.347,2.07,1.04,0.485,0.684,0.727,1.53,0.727,2.52-0.00002,2.73-0.946,5.15-2.84,7.26-1.67,1.86-3.5,2.79-5.47,2.79-0.352,0-0.651-0.0333-0.898-0.0998s-0.594-0.214-1.04-0.442l-0.741,2.57c-0.266,0.931-0.399,1.64-0.399,2.12,0,0.304,0.105,0.542,0.314,0.713,0.209,0.181,0.699,0.333,1.47,0.456l-0.128,0.528h-7.67l0.143-0.528c0.608-0.019,1.12-0.214,1.53-0.585,0.399-0.371,0.775-1.17,1.13-2.4l3.48-12c0.257-0.893,0.385-1.53,0.385-1.9-0.00001-0.162-0.038-0.295-0.114-0.399-0.0761-0.114-0.19-0.195-0.342-0.242-0.152-0.0475-0.494-0.0713-1.03-0.0713l0.157-0.556m2.22,11c0.285,0.466,0.542,0.779,0.77,0.941,0.228,0.152,0.494,0.228,0.798,0.228s0.599-0.0808,0.884-0.242c0.295-0.171,0.656-0.509,1.08-1.01,0.428-0.504,0.836-1.15,1.23-1.94,0.399-0.789,0.718-1.68,0.955-2.68,0.238-1.01,0.356-1.97,0.356-2.88-0.00001-0.732-0.133-1.26-0.399-1.6-0.257-0.333-0.57-0.499-0.941-0.499-0.333,0.00002-0.646,0.0856-0.941,0.257-0.428,0.247-0.932,0.708-1.51,1.38l-2.28,8.04"/>
<path id="path3269" d="m244,445c-0.0856,0.618-0.128,1.13-0.128,1.53,0,0.713,0.204,1.28,0.613,1.71,0.418,0.428,0.974,0.642,1.67,0.642,0.665,0,1.33-0.162,2-0.485,0.675-0.323,1.45-0.889,2.34-1.7l0.428,0.385c-1.09,1.32-2.16,2.26-3.19,2.82-1.04,0.561-2.18,0.841-3.44,0.841-1.59,0-2.69-0.38-3.29-1.14-0.608-0.76-0.912-1.64-0.912-2.64,0-1.56,0.451-3.12,1.35-4.68,0.912-1.56,2.15-2.81,3.71-3.75,1.57-0.941,3.14-1.41,4.72-1.41,0.798,0.00001,1.4,0.19,1.81,0.57,0.409,0.38,0.613,0.86,0.613,1.44-0.00002,0.694-0.2,1.37-0.599,2.02-0.551,0.893-1.25,1.62-2.08,2.17-0.836,0.542-1.77,0.955-2.81,1.24-0.694,0.19-1.63,0.333-2.79,0.428m0.128-0.741c0.836-0.124,1.48-0.29,1.94-0.499,0.466-0.219,0.917-0.561,1.35-1.03,0.447-0.475,0.832-1.07,1.15-1.78,0.323-0.722,0.485-1.4,0.485-2.02-0.00001-0.266-0.0761-0.475-0.228-0.627-0.143-0.152-0.328-0.228-0.556-0.228-0.456,0.00002-0.97,0.318-1.54,0.955-1.05,1.16-1.92,2.9-2.61,5.23"/>
<path id="path3271" d="m267,437-1.77,6.12c1.19-1.79,2.08-3.01,2.67-3.66,0.865-0.95,1.61-1.6,2.24-1.94,0.627-0.342,1.22-0.513,1.77-0.513,0.494,0.00001,0.917,0.185,1.27,0.556,0.352,0.361,0.528,0.836,0.528,1.43-0.00001,0.532-0.114,1.18-0.342,1.94l-1.82,6.09c-0.152,0.532-0.228,0.879-0.228,1.04-0.00001,0.0951,0.0333,0.181,0.0998,0.257,0.076,0.076,0.152,0.114,0.228,0.114,0.095,0,0.195-0.038,0.299-0.114,0.333-0.276,0.67-0.665,1.01-1.17,0.0855-0.133,0.223-0.333,0.413-0.599l0.542,0.328c-1.4,2.35-2.87,3.52-4.41,3.52-0.589,0-1.05-0.152-1.38-0.456-0.333-0.304-0.499-0.684-0.499-1.14-0.00001-0.399,0.114-0.993,0.342-1.78l1.78-6.09c0.124-0.399,0.185-0.694,0.185-0.884-0.00001-0.105-0.0428-0.195-0.128-0.271-0.0856-0.0855-0.185-0.128-0.299-0.128-0.361,0.00002-0.798,0.247-1.31,0.741-1.31,1.25-2.58,3.12-3.81,5.6l-1.17,4.23h-3.64l2.67-9.15c0.257-0.903,0.385-1.54,0.385-1.92-0.00001-0.162-0.038-0.295-0.114-0.399-0.0761-0.114-0.2-0.2-0.371-0.257-0.171-0.0665-0.494-0.0998-0.97-0.0998l0.157-0.542,4.8-0.841h0.87"/>
<path id="path3273" d="m293,451,0.24-0.739c1.3,0,2.29-0.266,2.95-0.798,0.679-0.546,1.24-1.56,1.68-3.03l4.91-17.1c0.319-1.12,0.479-2.04,0.479-2.75-0.00001-0.612-0.186-1.06-0.559-1.36-0.373-0.293-1.32-0.486-2.85-0.579l0.24-0.739h9.26c4.88,0.00003,8.4,0.991,10.6,2.97,2.17,1.97,3.25,4.74,3.25,8.3-0.00003,2.52-0.499,4.62-1.5,6.33-1.96,3.33-4.28,5.74-6.97,7.23s-6.14,2.24-10.4,2.24h-11.3m16.9-25.5-5.95,20.5c-0.279,0.945-0.419,1.62-0.419,2.04,0,0.373,0.153,0.672,0.459,0.898,0.399,0.306,0.991,0.459,1.78,0.459,1.88,0,3.55-0.586,5.03-1.76,1.89-1.5,3.33-3.53,4.31-6.07,0.998-2.54,1.5-5.06,1.5-7.56-0.00002-1.81-0.286-3.39-0.858-4.73s-1.46-2.37-2.65-3.07c-0.838-0.479-1.9-0.719-3.19-0.719"/>
<path id="path3275" d="m344,438-2.77,9.48-0.285,1.15c-0.0285,0.143-0.0428,0.247-0.0428,0.314-0.00001,0.114,0.038,0.214,0.114,0.299,0.0855,0.0855,0.171,0.128,0.257,0.128,0.2,0,0.475-0.152,0.827-0.456,0.143-0.124,0.485-0.561,1.03-1.31l0.499,0.257c-0.675,1.24-1.4,2.14-2.17,2.71-0.76,0.561-1.58,0.841-2.47,0.841-0.542,0-0.955-0.138-1.24-0.413-0.285-0.285-0.428-0.642-0.428-1.07-0.00001-0.371,0.152-1.06,0.456-2.07l0.342-1.15c-1.1,1.89-2.16,3.23-3.18,4.02-0.589,0.456-1.22,0.684-1.88,0.684-0.874,0-1.51-0.356-1.9-1.07-0.39-0.722-0.585-1.54-0.585-2.44,0-1.34,0.409-2.88,1.23-4.61,0.817-1.74,1.89-3.14,3.22-4.19,1.09-0.874,2.12-1.31,3.08-1.31,0.532,0.00001,0.96,0.157,1.28,0.47,0.323,0.304,0.561,0.865,0.713,1.68l0.513-1.75,3.38-0.2m-4.56,2.71c-0.00001-0.77-0.119-1.33-0.356-1.67-0.171-0.238-0.404-0.356-0.699-0.356-0.295,0.00002-0.599,0.143-0.912,0.428-0.637,0.589-1.33,1.79-2.07,3.59-0.732,1.8-1.1,3.35-1.1,4.66,0,0.504,0.0808,0.87,0.242,1.1,0.171,0.219,0.356,0.328,0.556,0.328,0.428,0,0.86-0.247,1.3-0.741,0.627-0.703,1.19-1.56,1.7-2.58,0.893-1.79,1.34-3.37,1.34-4.76"/>
<path id="path3277" d="m360,434-1.14,3.88,1.87,0-0.499,1.64-1.84,0-2.38,8.27c-0.152,0.513-0.228,0.903-0.228,1.17-0.00001,0.124,0.0428,0.233,0.128,0.328,0.0855,0.0856,0.181,0.128,0.285,0.128,0.162,0,0.328-0.0665,0.499-0.2,0.437-0.333,0.946-0.912,1.53-1.74l0.499,0.314c-0.656,1.14-1.38,1.98-2.17,2.51-0.789,0.532-1.56,0.798-2.32,0.798-0.646,0-1.15-0.162-1.51-0.485-0.352-0.333-0.528-0.751-0.528-1.25,0-0.551,0.124-1.26,0.371-2.12l2.25-7.71h-1.94l0.285-1.06c1.22-0.447,2.24-0.97,3.08-1.57,0.836-0.599,1.84-1.56,3.02-2.89h0.741"/>
<path id="path3279" d="m379,438-2.77,9.48-0.285,1.15c-0.0285,0.143-0.0428,0.247-0.0428,0.314-0.00001,0.114,0.038,0.214,0.114,0.299,0.0855,0.0855,0.171,0.128,0.257,0.128,0.2,0,0.475-0.152,0.827-0.456,0.143-0.124,0.485-0.561,1.03-1.31l0.499,0.257c-0.675,1.24-1.4,2.14-2.17,2.71-0.76,0.561-1.58,0.841-2.47,0.841-0.542,0-0.955-0.138-1.24-0.413-0.285-0.285-0.428-0.642-0.428-1.07-0.00001-0.371,0.152-1.06,0.456-2.07l0.342-1.15c-1.1,1.89-2.16,3.23-3.18,4.02-0.589,0.456-1.22,0.684-1.88,0.684-0.874,0-1.51-0.356-1.9-1.07-0.39-0.722-0.585-1.54-0.585-2.44,0-1.34,0.409-2.88,1.23-4.61,0.817-1.74,1.89-3.14,3.22-4.19,1.09-0.874,2.12-1.31,3.08-1.31,0.532,0.00001,0.96,0.157,1.28,0.47,0.323,0.304,0.561,0.865,0.713,1.68l0.513-1.75,3.38-0.2m-4.56,2.71c-0.00001-0.77-0.119-1.33-0.356-1.67-0.171-0.238-0.404-0.356-0.699-0.356-0.295,0.00002-0.599,0.143-0.912,0.428-0.637,0.589-1.33,1.79-2.07,3.59-0.732,1.8-1.1,3.35-1.1,4.66,0,0.504,0.0808,0.87,0.242,1.1,0.171,0.219,0.356,0.328,0.556,0.328,0.428,0,0.86-0.247,1.3-0.741,0.627-0.703,1.19-1.56,1.7-2.58,0.893-1.79,1.34-3.37,1.34-4.76"/>
<path id="path3281" d="m409,436c1.05,0.00001,2.07,0.271,3.08,0.813s1.79,1.32,2.35,2.32c0.561,1.01,0.841,2.05,0.841,3.14-0.00002,1.74-0.613,3.22-1.84,4.45s-2.7,1.84-4.43,1.84c-1.74,0-3.22-0.613-4.45-1.84s-1.84-2.71-1.84-4.45c0-1.09,0.28-2.14,0.841-3.14,0.561-1.01,1.34-1.78,2.35-2.32,1.01-0.542,2.04-0.813,3.09-0.813"/>
<path id="path3283" d="m443,424,21.8,0-2.06,7.29-0.719,0c0.0266-0.386,0.0399-0.725,0.0399-1.02-0.00003-1.38-0.406-2.46-1.22-3.21-0.812-0.772-2.18-1.21-4.11-1.32l-6.03,20.4c-0.333,1.13-0.499,1.97-0.499,2.52-0.00002,0.506,0.206,0.912,0.619,1.22,0.413,0.293,1.25,0.452,2.52,0.479l-0.18,0.739h-13.4l0.24-0.739c1.37,0,2.37-0.253,2.99-0.758,0.625-0.519,1.2-1.67,1.72-3.45l6.03-20.4c-2.08,0.0666-3.81,0.519-5.21,1.36-1.4,0.838-2.67,2.24-3.83,4.19h-0.778l2.14-7.29"/>
<path id="path3285" d="m473,445c-0.0856,0.618-0.128,1.13-0.128,1.53,0,0.713,0.204,1.28,0.613,1.71,0.418,0.428,0.974,0.642,1.67,0.642,0.665,0,1.33-0.162,2-0.485,0.675-0.323,1.45-0.889,2.34-1.7l0.428,0.385c-1.09,1.32-2.16,2.26-3.19,2.82-1.04,0.561-2.18,0.841-3.44,0.841-1.59,0-2.69-0.38-3.29-1.14-0.608-0.76-0.912-1.64-0.912-2.64,0-1.56,0.451-3.12,1.35-4.68,0.912-1.56,2.15-2.81,3.71-3.75,1.57-0.941,3.14-1.41,4.72-1.41,0.798,0.00001,1.4,0.19,1.81,0.57,0.409,0.38,0.613,0.86,0.613,1.44-0.00001,0.694-0.2,1.37-0.599,2.02-0.551,0.893-1.25,1.62-2.08,2.17-0.836,0.542-1.77,0.955-2.81,1.24-0.694,0.19-1.63,0.333-2.79,0.428m0.128-0.741c0.836-0.124,1.48-0.29,1.94-0.499,0.466-0.219,0.917-0.561,1.35-1.03,0.447-0.475,0.832-1.07,1.15-1.78,0.323-0.722,0.485-1.4,0.485-2.02-0.00001-0.266-0.0761-0.475-0.228-0.627-0.143-0.152-0.328-0.228-0.556-0.228-0.456,0.00002-0.97,0.318-1.54,0.955-1.05,1.16-1.92,2.9-2.61,5.23"/>
<path id="path3287" d="m495,437-1.82,6.13c1.23-1.88,2.12-3.15,2.68-3.81,0.827-0.96,1.51-1.59,2.04-1.88,0.542-0.295,1.08-0.442,1.63-0.442,0.618,0.00001,1.06,0.185,1.34,0.556,0.276,0.371,0.413,0.779,0.413,1.23-0.00002,0.466-0.128,1.15-0.385,2.05l-0.642,2.3c1.24-1.9,2.12-3.17,2.67-3.79,0.836-0.97,1.56-1.63,2.18-1.97,0.428-0.247,0.884-0.371,1.37-0.371,0.504,0.00001,0.922,0.171,1.25,0.513,0.342,0.333,0.513,0.77,0.513,1.31-0.00003,0.608-0.143,1.4-0.428,2.37l-1.58,5.32c-0.238,0.789-0.356,1.3-0.356,1.53-0.00002,0.076,0.0285,0.147,0.0855,0.214,0.0665,0.0665,0.138,0.0998,0.214,0.0998,0.105,0.00001,0.195-0.0333,0.271-0.0998,0.342-0.276,0.703-0.68,1.08-1.21,0.0855-0.114,0.214-0.29,0.385-0.528l0.485,0.314c-0.656,1.23-1.38,2.12-2.17,2.69-0.779,0.57-1.5,0.855-2.17,0.855-0.58,0-1.05-0.157-1.4-0.47-0.352-0.323-0.528-0.699-0.528-1.13-0.00002-0.409,0.119-1.03,0.356-1.85l1.61-5.56c0.219-0.77,0.328-1.25,0.328-1.44-0.00001-0.0665-0.0333-0.128-0.0998-0.185-0.0665-0.0665-0.133-0.0998-0.2-0.0998-0.124,0.00002-0.247,0.0285-0.371,0.0856-0.181,0.0951-0.461,0.342-0.841,0.741-0.371,0.399-0.908,1.12-1.61,2.15-0.703,1.03-1.19,1.83-1.47,2.41-0.266,0.58-0.532,1.33-0.798,2.25l-0.87,2.94h-3.61l2.67-9.31c0.143-0.504,0.214-0.851,0.214-1.04-0.00001-0.0665-0.0333-0.128-0.0998-0.185-0.057-0.057-0.119-0.0855-0.185-0.0856-0.352,0.00001-0.908,0.461-1.67,1.38-1.16,1.43-2.21,3.14-3.17,5.15l-1.15,4.09h-3.64l2.68-9.17c0.266-0.903,0.399-1.54,0.399-1.92,0-0.152-0.038-0.28-0.114-0.385-0.076-0.114-0.2-0.2-0.371-0.257-0.171-0.0665-0.499-0.0998-0.984-0.0998l0.143-0.542,4.86-0.841h0.855"/>
<path id="path3289" d="m518,438,4.72-0.798,0.855,0-0.642,2.32c0.998-0.912,1.82-1.53,2.45-1.84,0.637-0.323,1.27-0.485,1.9-0.485,0.893,0.00001,1.58,0.347,2.07,1.04,0.485,0.684,0.727,1.53,0.727,2.52-0.00001,2.73-0.946,5.15-2.84,7.26-1.67,1.86-3.5,2.79-5.47,2.79-0.352,0-0.651-0.0333-0.898-0.0998s-0.594-0.214-1.04-0.442l-0.741,2.57c-0.266,0.931-0.399,1.64-0.399,2.12,0,0.304,0.105,0.542,0.314,0.713,0.209,0.181,0.699,0.333,1.47,0.456l-0.128,0.528h-7.67l0.143-0.528c0.608-0.019,1.12-0.214,1.53-0.585,0.399-0.371,0.775-1.17,1.13-2.4l3.48-12c0.257-0.893,0.385-1.53,0.385-1.9,0-0.162-0.038-0.295-0.114-0.399-0.076-0.114-0.19-0.195-0.342-0.242-0.152-0.0475-0.494-0.0713-1.03-0.0713l0.157-0.556m2.22,11c0.285,0.466,0.542,0.779,0.77,0.941,0.228,0.152,0.494,0.228,0.798,0.228s0.599-0.0808,0.884-0.242c0.295-0.171,0.656-0.509,1.08-1.01,0.428-0.504,0.836-1.15,1.23-1.94,0.399-0.789,0.718-1.68,0.955-2.68,0.238-1.01,0.356-1.97,0.356-2.88-0.00001-0.732-0.133-1.26-0.399-1.6-0.257-0.333-0.57-0.499-0.941-0.499-0.333,0.00002-0.646,0.0856-0.941,0.257-0.428,0.247-0.932,0.708-1.51,1.38l-2.28,8.04"/>
<path id="path3291" d="m548,437-0.627,4.41-0.528,0c-0.0761-1.14-0.428-2.04-1.06-2.69-0.618-0.656-1.28-0.984-2-0.984-0.437,0.00001-0.798,0.128-1.08,0.385-0.285,0.257-0.428,0.566-0.428,0.927,0,0.304,0.0618,0.589,0.185,0.855,0.124,0.266,0.399,0.627,0.827,1.08,1.5,1.62,2.41,2.73,2.74,3.34,0.323,0.608,0.485,1.26,0.485,1.95-0.00001,0.751-0.19,1.46-0.57,2.14-0.38,0.665-0.951,1.2-1.71,1.61-0.751,0.399-1.54,0.599-2.35,0.599-0.551,0-1.23-0.109-2.04-0.328-0.532-0.152-0.931-0.228-1.2-0.228-0.238,0-0.423,0.038-0.556,0.114-0.133,0.0665-0.28,0.214-0.442,0.442h-0.528l0.699-4.75h0.456c0.333,1.15,0.642,1.97,0.927,2.47,0.295,0.485,0.684,0.874,1.17,1.17,0.485,0.285,0.95,0.428,1.4,0.428,0.523,0.00001,0.955-0.162,1.3-0.485,0.342-0.333,0.513-0.727,0.513-1.18,0-0.447-0.114-0.879-0.342-1.3-0.219-0.418-0.732-1.07-1.54-1.95-1.11-1.21-1.84-2.14-2.2-2.79-0.247-0.475-0.371-1.02-0.371-1.63,0-1.03,0.371-1.88,1.11-2.57,0.751-0.684,1.8-1.03,3.15-1.03,0.589,0.00001,1.31,0.105,2.17,0.314,0.428,0.105,0.77,0.157,1.03,0.157,0.371,0.00001,0.67-0.157,0.898-0.47h0.513"/>
<path id="path3293" d="m580,437-2.4,8.2c-0.346,1.16-0.519,2.01-0.519,2.55-0.00001,0.506,0.206,0.912,0.619,1.22,0.413,0.306,1.27,0.472,2.57,0.499l-0.279,0.739h-13l0.24-0.739c1.3,0,2.26-0.253,2.85-0.758,0.612-0.506,1.17-1.64,1.68-3.39l5.03-17.4c0.279-0.971,0.419-1.74,0.419-2.3-0.00001-0.532-0.173-0.938-0.519-1.22-0.346-0.279-1.15-0.466-2.42-0.559l0.2-0.739h11.2c3.21,0.00003,5.46,0.559,6.77,1.68,1.3,1.12,1.96,2.56,1.96,4.31-0.00002,1.85-0.759,3.52-2.28,5.01-0.958,0.932-2.65,1.74-5.09,2.42l2.44,8.2c0.652,2.2,1.22,3.52,1.7,3.97,0.492,0.452,1.3,0.699,2.44,0.739v0.739h-8.42l-3.83-13.2-0.659,0.0399c-0.146,0.00002-0.373-0.0133-0.679-0.0399m0.279-1.2c0.466,0.0266,0.858,0.0399,1.18,0.0399,1.94,0.00002,3.54-0.665,4.79-2,1.25-1.33,1.88-3.07,1.88-5.23-0.00002-1.28-0.333-2.25-0.998-2.91-0.665-0.665-1.54-0.998-2.63-0.998-0.266,0.00003-0.579,0.007-0.938,0.02l-3.27,11.1"/>
<path id="path3295" d="m606,445c-0.0856,0.618-0.128,1.13-0.128,1.53,0,0.713,0.204,1.28,0.613,1.71,0.418,0.428,0.974,0.642,1.67,0.642,0.665,0,1.33-0.162,2-0.485,0.675-0.323,1.45-0.889,2.34-1.7l0.428,0.385c-1.09,1.32-2.16,2.26-3.19,2.82-1.04,0.561-2.18,0.841-3.44,0.841-1.59,0-2.69-0.38-3.29-1.14-0.608-0.76-0.912-1.64-0.912-2.64,0-1.56,0.451-3.12,1.35-4.68,0.912-1.56,2.15-2.81,3.71-3.75,1.57-0.941,3.14-1.41,4.72-1.41,0.798,0.00001,1.4,0.19,1.81,0.57,0.409,0.38,0.613,0.86,0.613,1.44-0.00001,0.694-0.2,1.37-0.599,2.02-0.551,0.893-1.25,1.62-2.08,2.17-0.836,0.542-1.77,0.955-2.81,1.24-0.694,0.19-1.63,0.333-2.79,0.428m0.128-0.741c0.836-0.124,1.48-0.29,1.94-0.499,0.466-0.219,0.917-0.561,1.35-1.03,0.447-0.475,0.832-1.07,1.15-1.78,0.323-0.722,0.485-1.4,0.485-2.02-0.00001-0.266-0.0761-0.475-0.228-0.627-0.143-0.152-0.328-0.228-0.556-0.228-0.456,0.00002-0.97,0.318-1.54,0.955-1.05,1.16-1.92,2.9-2.61,5.23m6.52-13.7,4.39,0-4.8,4.99-1.28,0,1.7-4.99"/>
<path id="path3297" d="m625,445c-0.0856,0.618-0.128,1.13-0.128,1.53-0.00001,0.713,0.204,1.28,0.613,1.71,0.418,0.428,0.974,0.642,1.67,0.642,0.665,0,1.33-0.162,2-0.485,0.675-0.323,1.45-0.889,2.34-1.7l0.428,0.385c-1.09,1.32-2.16,2.26-3.19,2.82-1.04,0.561-2.18,0.841-3.44,0.841-1.59,0-2.69-0.38-3.29-1.14-0.608-0.76-0.912-1.64-0.912-2.64,0-1.56,0.451-3.12,1.35-4.68,0.912-1.56,2.15-2.81,3.71-3.75,1.57-0.941,3.14-1.41,4.72-1.41,0.798,0.00001,1.4,0.19,1.81,0.57,0.409,0.38,0.613,0.86,0.613,1.44-0.00002,0.694-0.2,1.37-0.599,2.02-0.551,0.893-1.25,1.62-2.08,2.17-0.836,0.542-1.77,0.955-2.81,1.24-0.694,0.19-1.63,0.333-2.79,0.428m0.128-0.741c0.836-0.124,1.48-0.29,1.94-0.499,0.466-0.219,0.917-0.561,1.35-1.03,0.447-0.475,0.832-1.07,1.15-1.78,0.323-0.722,0.485-1.4,0.485-2.02-0.00001-0.266-0.0761-0.475-0.228-0.627-0.143-0.152-0.328-0.228-0.556-0.228-0.456,0.00002-0.97,0.318-1.54,0.955-1.05,1.16-1.92,2.9-2.61,5.23"/>
<path id="path3299" d="m649,431-4.72,16c-0.276,0.95-0.413,1.54-0.413,1.78-0.00001,0.124,0.038,0.228,0.114,0.314,0.0855,0.0856,0.176,0.128,0.271,0.128,0.171,0,0.333-0.0665,0.485-0.2,0.456-0.371,0.965-0.998,1.53-1.88l0.556,0.257c-0.903,1.44-1.79,2.48-2.67,3.09-0.599,0.418-1.24,0.627-1.91,0.627-0.627,0-1.13-0.166-1.5-0.499-0.371-0.342-0.556-0.751-0.556-1.23,0-0.352,0.114-0.917,0.342-1.7l3.85-13.1c0.209-0.722,0.314-1.2,0.314-1.44,0-0.228-0.0998-0.409-0.299-0.542-0.266-0.19-0.67-0.271-1.21-0.242l0.157-0.542,4.8-0.841h0.855"/>
</g>
<path id="path3301" style="fill:#000000;" d="m0.995,295,491,0,0,5.1-491,0z"/>
<path id="path3303" style="fill:url(#radialGradient3722);" d="M0.288,0.597,492,0.411v70.6l-492-0.219z"/>
<path id="path3305" style="fill:url(#radialGradient3719);" d="m0.0977,370,492-0.108-0.063,60.8-492,0z"/>
<g id="g3307" style="font-size:30.24652481px;font-family:Arial;letter-spacing:0px;font-style:normal;word-spacing:0px;font-stretch:normal;font-variant:normal;font-weight:normal;line-height:125%;fill:#ffffff;" transform="matrix(1.0554343,0,0,1.0554343,-193.09957,-198.06719)" font-size="30.24652481000000037px" line-height="125%" font-stretch="normal" font-variant="normal" font-weight="normal" font-style="normal">
<path id="path3309" d="m220,556,0,7.87,3.65,0c0.837,0.00001,1.45-0.182,1.83-0.546,0.394-0.374,0.655-1.11,0.783-2.2h0.546v6.78h-0.546c-0.01-0.778-0.113-1.35-0.31-1.71-0.187-0.364-0.453-0.635-0.798-0.812-0.335-0.187-0.837-0.281-1.51-0.281h-3.65v6.29c-0.00001,1.01,0.064,1.68,0.192,2.01,0.0984,0.246,0.305,0.458,0.62,0.635,0.433,0.236,0.886,0.354,1.36,0.354h0.724v0.546h-8.6v-0.61h1c0.827,0,1.43-0.241,1.8-0.724,0.236-0.315,0.354-1.07,0.354-2.27v-12.9c0-1.01-0.064-1.68-0.192-2.01-0.0985-0.246-0.3-0.458-0.606-0.635-0.423-0.236-0.876-0.354-1.36-0.354h-0.709v-0.546h14.9l0.192,4.4h-0.517c-0.256-0.935-0.556-1.62-0.901-2.05-0.335-0.443-0.753-0.763-1.26-0.96-0.492-0.197-1.26-0.295-2.3-0.295h-4.42"/>
<path id="path3311" d="m239,554c0.414,0.00002,0.763,0.148,1.05,0.443,0.295,0.286,0.443,0.635,0.443,1.05-0.00001,0.414-0.148,0.768-0.443,1.06-0.286,0.295-0.635,0.443-1.05,0.443-0.414,0.00001-0.768-0.148-1.06-0.443-0.295-0.295-0.443-0.65-0.443-1.06,0-0.414,0.143-0.763,0.428-1.05,0.295-0.295,0.655-0.443,1.08-0.443m1.23,7.07,0,10.9c0,0.847,0.0591,1.41,0.177,1.7,0.128,0.276,0.31,0.482,0.546,0.62,0.246,0.138,0.689,0.207,1.33,0.207v0.532h-6.57v-0.532c0.66,0,1.1-0.064,1.33-0.192,0.226-0.128,0.404-0.34,0.532-0.635,0.138-0.295,0.207-0.862,0.207-1.7v-5.21c0-1.47-0.0443-2.42-0.133-2.85-0.0689-0.315-0.177-0.532-0.325-0.65-0.148-0.128-0.35-0.192-0.606-0.192-0.276,0.00001-0.61,0.0738-1,0.222l-0.207-0.532,4.08-1.65h0.65"/>
<path id="path3313" d="m252,564c1.59-1.91,3.1-2.87,4.53-2.87,0.738,0.00001,1.37,0.187,1.91,0.561,0.532,0.364,0.955,0.97,1.27,1.82,0.217,0.591,0.325,1.5,0.325,2.72v5.77c-0.00002,0.857,0.0689,1.44,0.207,1.74,0.108,0.246,0.281,0.438,0.517,0.576,0.246,0.138,0.694,0.207,1.34,0.207v0.532h-6.69v-0.532h0.281c0.63,0,1.07-0.0935,1.31-0.281,0.256-0.197,0.433-0.482,0.532-0.857,0.0394-0.148,0.0591-0.61,0.0591-1.39v-5.54c-0.00001-1.23-0.162-2.12-0.487-2.67-0.315-0.561-0.852-0.842-1.61-0.842-1.17,0.00001-2.34,0.64-3.5,1.92v7.13c0,0.916,0.0542,1.48,0.162,1.7,0.138,0.286,0.325,0.497,0.561,0.635,0.246,0.128,0.738,0.192,1.48,0.192v0.532h-6.69v-0.532h0.295c0.689,0,1.15-0.172,1.39-0.517,0.246-0.354,0.369-1.02,0.369-2.01v-5.02c0-1.62-0.0394-2.61-0.118-2.97-0.0689-0.354-0.182-0.596-0.34-0.724-0.148-0.128-0.35-0.192-0.606-0.192-0.276,0.00001-0.606,0.0738-0.99,0.222l-0.222-0.532,4.08-1.65h0.635v2.87"/>
<path id="path3315" d="m275,573c-1.39,1.07-2.26,1.69-2.61,1.86-0.532,0.246-1.1,0.369-1.7,0.369-0.935,0-1.71-0.32-2.32-0.96-0.601-0.64-0.901-1.48-0.901-2.53,0-0.66,0.148-1.23,0.443-1.71,0.404-0.67,1.1-1.3,2.1-1.89,1-0.591,2.67-1.31,4.99-2.16v-0.532c-0.00001-1.35-0.217-2.27-0.65-2.78-0.423-0.502-1.04-0.753-1.86-0.753-0.62,0.00002-1.11,0.167-1.48,0.502-0.374,0.335-0.561,0.719-0.561,1.15l0.0295,0.857c0,0.453-0.118,0.802-0.354,1.05-0.226,0.246-0.527,0.369-0.901,0.369-0.364,0.00001-0.665-0.128-0.901-0.384-0.226-0.256-0.34-0.606-0.34-1.05,0-0.847,0.433-1.62,1.3-2.33,0.866-0.709,2.08-1.06,3.65-1.06,1.2,0.00001,2.19,0.202,2.95,0.606,0.581,0.305,1.01,0.783,1.28,1.43,0.177,0.423,0.266,1.29,0.266,2.6v4.59c-0.00001,1.29,0.0246,2.08,0.0738,2.38,0.0492,0.286,0.128,0.478,0.236,0.576,0.118,0.0985,0.251,0.148,0.399,0.148,0.158,0.00001,0.295-0.0344,0.414-0.103,0.207-0.128,0.606-0.487,1.2-1.08v0.827c-1.1,1.48-2.16,2.22-3.16,2.22-0.482,0-0.866-0.167-1.15-0.502-0.286-0.335-0.433-0.906-0.443-1.71m0-0.96,0-5.15c-1.49,0.591-2.45,1.01-2.88,1.26-0.778,0.433-1.33,0.886-1.67,1.36-0.335,0.473-0.502,0.99-0.502,1.55,0,0.709,0.212,1.3,0.635,1.77,0.423,0.463,0.911,0.694,1.46,0.694,0.748,0,1.73-0.492,2.95-1.48"/>
<path id="path3317" d="m289,564c1.59-1.91,3.1-2.87,4.53-2.87,0.738,0.00001,1.37,0.187,1.91,0.561,0.532,0.364,0.955,0.97,1.27,1.82,0.217,0.591,0.325,1.5,0.325,2.72v5.77c-0.00002,0.857,0.0689,1.44,0.207,1.74,0.108,0.246,0.281,0.438,0.517,0.576,0.246,0.138,0.694,0.207,1.34,0.207v0.532h-6.69v-0.532h0.281c0.63,0,1.07-0.0935,1.31-0.281,0.256-0.197,0.433-0.482,0.532-0.857,0.0394-0.148,0.0591-0.61,0.0591-1.39v-5.54c-0.00001-1.23-0.162-2.12-0.487-2.67-0.315-0.561-0.852-0.842-1.61-0.842-1.17,0.00001-2.34,0.64-3.5,1.92v7.13c0,0.916,0.0541,1.48,0.162,1.7,0.138,0.286,0.325,0.497,0.561,0.635,0.246,0.128,0.738,0.192,1.48,0.192v0.532h-6.69v-0.532h0.295c0.689,0,1.15-0.172,1.39-0.517,0.246-0.354,0.369-1.02,0.369-2.01v-5.02c0-1.62-0.0394-2.61-0.118-2.97-0.0689-0.354-0.182-0.596-0.34-0.724-0.148-0.128-0.35-0.192-0.606-0.192-0.276,0.00001-0.606,0.0738-0.99,0.222l-0.222-0.532,4.08-1.65h0.635v2.87"/>
<path id="path3319" d="m315,570c-0.364,1.78-1.08,3.16-2.14,4.12-1.06,0.955-2.24,1.43-3.53,1.43-1.54,0-2.88-0.645-4.02-1.93-1.14-1.29-1.71-3.03-1.71-5.23,0-2.13,0.63-3.85,1.89-5.18,1.27-1.33,2.79-1.99,4.56-1.99,1.33,0.00001,2.42,0.354,3.28,1.06,0.857,0.699,1.28,1.43,1.28,2.19-0.00002,0.374-0.123,0.679-0.369,0.916-0.236,0.226-0.571,0.34-1,0.34-0.581,0.00001-1.02-0.187-1.31-0.561-0.167-0.207-0.281-0.601-0.34-1.18-0.0492-0.581-0.246-1.02-0.591-1.33-0.345-0.295-0.822-0.443-1.43-0.443-0.985,0.00001-1.78,0.364-2.38,1.09-0.798,0.965-1.2,2.24-1.2,3.83,0,1.61,0.394,3.04,1.18,4.28,0.798,1.23,1.87,1.85,3.22,1.85,0.965,0,1.83-0.33,2.6-0.99,0.542-0.453,1.07-1.28,1.58-2.47l0.428,0.207"/>
<path id="path3321" d="m324,567c-0.01,2.01,0.478,3.58,1.46,4.73,0.985,1.14,2.14,1.71,3.47,1.71,0.886,0,1.65-0.241,2.3-0.724,0.66-0.492,1.21-1.33,1.65-2.51l0.458,0.295c-0.207,1.35-0.807,2.58-1.8,3.69-0.994,1.1-2.24,1.65-3.74,1.65-1.62,0-3.02-0.63-4.18-1.89-1.15-1.27-1.73-2.97-1.73-5.11-0.00001-2.31,0.591-4.12,1.77-5.41,1.19-1.3,2.68-1.95,4.48-1.95,1.52,0.00001,2.76,0.502,3.74,1.51,0.975,0.994,1.46,2.33,1.46,4h-9.35m0-0.857,6.26,0c-0.0492-0.866-0.153-1.48-0.31-1.83-0.246-0.551-0.615-0.985-1.11-1.3-0.482-0.315-0.99-0.473-1.52-0.473-0.817,0.00002-1.55,0.32-2.2,0.96-0.64,0.63-1.01,1.51-1.12,2.64"/>
<path id="path3323" d="m343,564c0.985-0.985,1.57-1.55,1.74-1.7,0.443-0.374,0.921-0.665,1.43-0.871,0.512-0.207,1.02-0.31,1.52-0.31,0.847,0.00001,1.58,0.246,2.19,0.738s1.02,1.21,1.23,2.14c1.01-1.18,1.87-1.95,2.57-2.32,0.699-0.374,1.42-0.561,2.16-0.561,0.719,0.00001,1.35,0.187,1.91,0.561,0.561,0.364,1,0.965,1.33,1.8,0.217,0.571,0.325,1.47,0.325,2.69v5.82c-0.00003,0.847,0.064,1.43,0.192,1.74,0.0984,0.217,0.281,0.404,0.546,0.561,0.266,0.148,0.699,0.222,1.3,0.222v0.532h-6.68v-0.532h0.281c0.581,0,1.03-0.113,1.36-0.34,0.226-0.158,0.389-0.409,0.487-0.753,0.0394-0.167,0.059-0.645,0.0591-1.43v-5.82c-0.00002-1.1-0.133-1.88-0.399-2.33-0.384-0.63-0.999-0.945-1.85-0.945-0.522,0.00002-1.05,0.133-1.58,0.399-0.522,0.256-1.16,0.738-1.91,1.45l-0.0295,0.162,0.0295,0.635v6.45c-0.00001,0.926,0.0492,1.5,0.148,1.73,0.108,0.226,0.305,0.418,0.591,0.576,0.286,0.148,0.773,0.222,1.46,0.222v0.532h-6.84v-0.532c0.748,0,1.26-0.0886,1.54-0.266,0.286-0.177,0.482-0.443,0.591-0.798,0.0492-0.167,0.0738-0.655,0.0738-1.46v-5.82c-0.00001-1.1-0.162-1.9-0.487-2.38-0.433-0.63-1.04-0.945-1.82-0.945-0.532,0.00001-1.06,0.143-1.58,0.428-0.817,0.433-1.45,0.921-1.89,1.46v7.25c-0.00001,0.886,0.0591,1.46,0.177,1.73,0.128,0.266,0.31,0.468,0.546,0.606,0.246,0.128,0.738,0.192,1.48,0.192v0.532h-6.69v-0.532c0.62,0,1.05-0.064,1.3-0.192,0.246-0.138,0.433-0.35,0.561-0.635,0.128-0.295,0.192-0.862,0.192-1.7v-5.17c0-1.49-0.0443-2.45-0.133-2.88-0.0689-0.325-0.177-0.546-0.325-0.665-0.148-0.128-0.35-0.192-0.606-0.192-0.276,0.00001-0.606,0.0738-0.99,0.222l-0.222-0.532,4.08-1.65h0.635v2.88"/>
<path id="path3325" d="m368,567c-0.01,2.01,0.478,3.58,1.46,4.73,0.985,1.14,2.14,1.71,3.47,1.71,0.886,0,1.65-0.241,2.3-0.724,0.66-0.492,1.21-1.33,1.65-2.51l0.458,0.295c-0.207,1.35-0.807,2.58-1.8,3.69-0.994,1.1-2.24,1.65-3.74,1.65-1.62,0-3.02-0.63-4.18-1.89-1.15-1.27-1.73-2.97-1.73-5.11-0.00001-2.31,0.591-4.12,1.77-5.41,1.19-1.3,2.68-1.95,4.48-1.95,1.52,0.00001,2.76,0.502,3.74,1.51,0.975,0.994,1.46,2.33,1.46,4h-9.35m0-0.857,6.26,0c-0.0492-0.866-0.153-1.48-0.31-1.83-0.246-0.551-0.615-0.985-1.11-1.3-0.482-0.315-0.99-0.473-1.52-0.473-0.817,0.00002-1.55,0.32-2.2,0.96-0.64,0.63-1.01,1.51-1.12,2.64"/>
<path id="path3327" d="m388,564c1.59-1.91,3.1-2.87,4.53-2.87,0.738,0.00001,1.37,0.187,1.91,0.561,0.532,0.364,0.955,0.97,1.27,1.82,0.217,0.591,0.325,1.5,0.325,2.72v5.77c-0.00002,0.857,0.0689,1.44,0.207,1.74,0.108,0.246,0.281,0.438,0.517,0.576,0.246,0.138,0.694,0.207,1.34,0.207v0.532h-6.69v-0.532h0.281c0.63,0,1.07-0.0935,1.31-0.281,0.256-0.197,0.433-0.482,0.532-0.857,0.0394-0.148,0.0591-0.61,0.0591-1.39v-5.54c-0.00001-1.23-0.162-2.12-0.487-2.67-0.315-0.561-0.852-0.842-1.61-0.842-1.17,0.00001-2.34,0.64-3.5,1.92v7.13c0,0.916,0.0541,1.48,0.162,1.7,0.138,0.286,0.325,0.497,0.561,0.635,0.246,0.128,0.738,0.192,1.48,0.192v0.532h-6.69v-0.532h0.295c0.689,0,1.15-0.172,1.39-0.517,0.246-0.354,0.369-1.02,0.369-2.01v-5.02c0-1.62-0.0394-2.61-0.118-2.97-0.0689-0.354-0.182-0.596-0.34-0.724-0.148-0.128-0.35-0.192-0.606-0.192-0.276,0.00001-0.606,0.0738-0.99,0.222l-0.222-0.532,4.08-1.65h0.635v2.87"/>
<path id="path3329" d="m407,557,0,4.45,3.16,0,0,1.03-3.16,0,0,8.77c0,0.876,0.123,1.47,0.369,1.77,0.256,0.305,0.581,0.458,0.975,0.458,0.325,0,0.64-0.0985,0.945-0.295,0.305-0.207,0.542-0.507,0.709-0.901h0.576c-0.345,0.965-0.832,1.69-1.46,2.19-0.63,0.482-1.28,0.724-1.95,0.724-0.453,0-0.896-0.123-1.33-0.369-0.433-0.256-0.753-0.615-0.96-1.08-0.207-0.473-0.31-1.2-0.31-2.17v-9.1h-2.14v-0.487c0.542-0.217,1.09-0.581,1.65-1.09,0.571-0.522,1.08-1.14,1.52-1.85,0.226-0.374,0.542-1.06,0.945-2.05h0.458"/>
<path id="path3331" d="m444,566,0,5.83c0,1.26,0.138,2.04,0.414,2.35,0.374,0.433,0.94,0.65,1.7,0.65h0.768v0.546h-8.58v-0.546h0.753c0.847,0,1.45-0.276,1.82-0.827,0.197-0.305,0.295-1.03,0.295-2.17v-12.9c0-1.26-0.133-2.04-0.399-2.35-0.384-0.433-0.955-0.65-1.71-0.65h-0.753v-0.546h7.34c1.79,0.00002,3.2,0.187,4.24,0.561,1.03,0.364,1.91,0.985,2.61,1.86,0.709,0.876,1.06,1.92,1.06,3.12-0.00001,1.63-0.542,2.96-1.62,3.99-1.07,1.02-2.59,1.54-4.56,1.54-0.482,0.00001-1-0.0344-1.57-0.103-0.561-0.0689-1.16-0.172-1.8-0.31m0-0.842c0.522,0.0985,0.985,0.172,1.39,0.222,0.404,0.0492,0.748,0.0738,1.03,0.0738,1.02,0.00001,1.91-0.394,2.64-1.18,0.748-0.798,1.12-1.83,1.12-3.09-0.00002-0.866-0.177-1.67-0.532-2.41-0.354-0.748-0.857-1.3-1.51-1.67-0.65-0.374-1.39-0.561-2.22-0.561-0.502,0.00002-1.15,0.0936-1.93,0.281v8.33"/>
<path id="path3333" d="m467,573c-1.39,1.07-2.26,1.69-2.61,1.86-0.532,0.246-1.1,0.369-1.7,0.369-0.935,0-1.71-0.32-2.32-0.96-0.601-0.64-0.901-1.48-0.901-2.53,0-0.66,0.148-1.23,0.443-1.71,0.404-0.67,1.1-1.3,2.1-1.89,1-0.591,2.67-1.31,4.99-2.16v-0.532c-0.00001-1.35-0.217-2.27-0.65-2.78-0.423-0.502-1.04-0.753-1.86-0.753-0.62,0.00002-1.11,0.167-1.48,0.502-0.374,0.335-0.561,0.719-0.561,1.15l0.0295,0.857c0,0.453-0.118,0.802-0.354,1.05-0.226,0.246-0.527,0.369-0.901,0.369-0.364,0.00001-0.665-0.128-0.901-0.384-0.226-0.256-0.34-0.606-0.34-1.05,0-0.847,0.433-1.62,1.3-2.33,0.866-0.709,2.08-1.06,3.65-1.06,1.2,0.00001,2.19,0.202,2.95,0.606,0.581,0.305,1.01,0.783,1.28,1.43,0.177,0.423,0.266,1.29,0.266,2.6v4.59c-0.00001,1.29,0.0246,2.08,0.0738,2.38,0.0492,0.286,0.128,0.478,0.236,0.576,0.118,0.0985,0.251,0.148,0.399,0.148,0.158,0.00001,0.295-0.0344,0.414-0.103,0.207-0.128,0.606-0.487,1.2-1.08v0.827c-1.1,1.48-2.16,2.22-3.16,2.22-0.482,0-0.866-0.167-1.15-0.502-0.286-0.335-0.433-0.906-0.443-1.71m0-0.96,0-5.15c-1.49,0.591-2.45,1.01-2.88,1.26-0.778,0.433-1.33,0.886-1.67,1.36-0.335,0.473-0.502,0.99-0.502,1.55,0,0.709,0.212,1.3,0.635,1.77,0.423,0.463,0.911,0.694,1.46,0.694,0.748,0,1.73-0.492,2.95-1.48"/>
<path id="path3335" d="m480,561,0,3.04c1.13-2.03,2.29-3.04,3.49-3.04,0.542,0.00001,0.99,0.167,1.34,0.502,0.354,0.325,0.532,0.704,0.532,1.14-0.00001,0.384-0.128,0.709-0.384,0.975s-0.561,0.399-0.916,0.399c-0.345,0.00002-0.734-0.167-1.17-0.502-0.423-0.345-0.738-0.517-0.945-0.517-0.177,0.00001-0.369,0.0985-0.576,0.295-0.443,0.404-0.901,1.07-1.37,1.99v6.48c-0.00001,0.748,0.0935,1.31,0.281,1.7,0.128,0.266,0.354,0.487,0.679,0.665,0.325,0.177,0.793,0.266,1.4,0.266v0.532h-6.93v-0.532c0.689,0,1.2-0.108,1.54-0.325,0.246-0.158,0.418-0.409,0.517-0.753,0.0492-0.167,0.0738-0.645,0.0739-1.43v-5.24c-0.00001-1.58-0.0345-2.51-0.103-2.81-0.0591-0.305-0.177-0.527-0.354-0.665-0.167-0.138-0.379-0.207-0.635-0.207-0.305,0.00001-0.65,0.0738-1.03,0.222l-0.148-0.532,4.09-1.65h0.62"/>
<path id="path3337" d="m495,557,0,4.45,3.16,0,0,1.03-3.16,0,0,8.77c0,0.876,0.123,1.47,0.369,1.77,0.256,0.305,0.581,0.458,0.975,0.458,0.325,0,0.64-0.0985,0.945-0.295,0.305-0.207,0.542-0.507,0.709-0.901h0.576c-0.345,0.965-0.832,1.69-1.46,2.19-0.63,0.482-1.28,0.724-1.95,0.724-0.453,0-0.896-0.123-1.33-0.369-0.433-0.256-0.753-0.615-0.96-1.08-0.207-0.473-0.31-1.2-0.31-2.17v-9.1h-2.14v-0.487c0.542-0.217,1.09-0.581,1.65-1.09,0.571-0.522,1.08-1.14,1.52-1.85,0.226-0.374,0.542-1.06,0.945-2.05h0.458"/>
<path id="path3339" d="m506,554c0.414,0.00002,0.763,0.148,1.05,0.443,0.295,0.286,0.443,0.635,0.443,1.05,0,0.414-0.148,0.768-0.443,1.06-0.286,0.295-0.635,0.443-1.05,0.443-0.414,0.00001-0.768-0.148-1.06-0.443-0.295-0.295-0.443-0.65-0.443-1.06,0-0.414,0.143-0.763,0.428-1.05,0.295-0.295,0.655-0.443,1.08-0.443m1.23,7.07,0,10.9c0,0.847,0.0591,1.41,0.177,1.7,0.128,0.276,0.31,0.482,0.546,0.62,0.246,0.138,0.689,0.207,1.33,0.207v0.532h-6.57v-0.532c0.66,0,1.1-0.064,1.33-0.192,0.226-0.128,0.404-0.34,0.532-0.635,0.138-0.295,0.207-0.862,0.207-1.7v-5.21c0-1.47-0.0443-2.42-0.133-2.85-0.0689-0.315-0.177-0.532-0.325-0.65-0.148-0.128-0.35-0.192-0.606-0.192-0.276,0.00001-0.61,0.0738-1,0.222l-0.207-0.532,4.08-1.65h0.65"/>
<path id="path3341" d="m527,570c-0.364,1.78-1.08,3.16-2.14,4.12-1.06,0.955-2.24,1.43-3.53,1.43-1.54,0-2.88-0.645-4.02-1.93-1.14-1.29-1.71-3.03-1.71-5.23,0-2.13,0.63-3.85,1.89-5.18,1.27-1.33,2.79-1.99,4.56-1.99,1.33,0.00001,2.42,0.354,3.28,1.06,0.857,0.699,1.28,1.43,1.28,2.19-0.00002,0.374-0.123,0.679-0.369,0.916-0.236,0.226-0.571,0.34-1,0.34-0.581,0.00001-1.02-0.187-1.31-0.561-0.167-0.207-0.281-0.601-0.34-1.18-0.0492-0.581-0.246-1.02-0.591-1.33-0.345-0.295-0.822-0.443-1.43-0.443-0.985,0.00001-1.78,0.364-2.38,1.09-0.798,0.965-1.2,2.24-1.2,3.83,0,1.61,0.394,3.04,1.18,4.28,0.798,1.23,1.87,1.85,3.22,1.85,0.965,0,1.83-0.33,2.6-0.99,0.542-0.453,1.07-1.28,1.58-2.47l0.428,0.207"/>
<path id="path3343" d="m536,554c0.414,0.00002,0.763,0.148,1.05,0.443,0.295,0.286,0.443,0.635,0.443,1.05-0.00001,0.414-0.148,0.768-0.443,1.06-0.286,0.295-0.635,0.443-1.05,0.443-0.414,0.00001-0.768-0.148-1.06-0.443-0.295-0.295-0.443-0.65-0.443-1.06,0-0.414,0.143-0.763,0.428-1.05,0.295-0.295,0.655-0.443,1.08-0.443m1.23,7.07,0,10.9c-0.00001,0.847,0.0591,1.41,0.177,1.7,0.128,0.276,0.31,0.482,0.546,0.62,0.246,0.138,0.689,0.207,1.33,0.207v0.532h-6.57v-0.532c0.66,0,1.1-0.064,1.33-0.192,0.226-0.128,0.404-0.34,0.532-0.635,0.138-0.295,0.207-0.862,0.207-1.7v-5.21c-0.00001-1.47-0.0443-2.42-0.133-2.85-0.0689-0.315-0.177-0.532-0.325-0.65-0.148-0.128-0.35-0.192-0.606-0.192-0.276,0.00001-0.61,0.0738-1,0.222l-0.207-0.532,4.08-1.65h0.65"/>
<path id="path3345" d="m544,563,4.16-1.68,0.561,0,0,3.16c0.699-1.19,1.4-2.02,2.1-2.5,0.709-0.482,1.45-0.724,2.23-0.724,1.36,0.00001,2.49,0.532,3.4,1.6,1.11,1.3,1.67,2.99,1.67,5.08-0.00001,2.33-0.67,4.26-2.01,5.79-1.1,1.25-2.49,1.88-4.16,1.88-0.729,0-1.36-0.103-1.89-0.31-0.394-0.148-0.837-0.443-1.33-0.886v4.12c-0.00001,0.926,0.0541,1.51,0.162,1.76,0.118,0.256,0.315,0.458,0.591,0.606,0.286,0.148,0.798,0.222,1.54,0.222v0.546h-7.09v-0.546h0.369c0.542,0.01,1-0.0935,1.39-0.31,0.187-0.108,0.33-0.286,0.428-0.532,0.108-0.236,0.162-0.847,0.162-1.83v-12.8c0-0.876-0.0394-1.43-0.118-1.67-0.0788-0.236-0.207-0.414-0.384-0.532-0.167-0.118-0.399-0.177-0.694-0.177-0.236,0.00001-0.537,0.0689-0.901,0.207l-0.177-0.473m4.73,2.35,0,5.05c-0.00001,1.09,0.0443,1.81,0.133,2.16,0.138,0.571,0.473,1.07,1,1.51,0.542,0.433,1.22,0.65,2.04,0.65,0.985,0,1.78-0.384,2.39-1.15,0.798-1,1.2-2.42,1.2-4.24-0.00001-2.07-0.453-3.66-1.36-4.77-0.63-0.768-1.38-1.15-2.24-1.15-0.473,0.00002-0.94,0.118-1.4,0.354-0.354,0.177-0.94,0.709-1.76,1.6"/>
<path id="path3347" d="m572,573c-1.39,1.07-2.26,1.69-2.61,1.86-0.532,0.246-1.1,0.369-1.7,0.369-0.935,0-1.71-0.32-2.32-0.96-0.601-0.64-0.901-1.48-0.901-2.53,0-0.66,0.148-1.23,0.443-1.71,0.404-0.67,1.1-1.3,2.1-1.89,1-0.591,2.67-1.31,4.99-2.16v-0.532c-0.00001-1.35-0.217-2.27-0.65-2.78-0.423-0.502-1.04-0.753-1.86-0.753-0.62,0.00002-1.11,0.167-1.48,0.502-0.374,0.335-0.561,0.719-0.561,1.15l0.0295,0.857c0,0.453-0.118,0.802-0.354,1.05-0.226,0.246-0.527,0.369-0.901,0.369-0.364,0.00001-0.665-0.128-0.901-0.384-0.226-0.256-0.34-0.606-0.34-1.05-0.00001-0.847,0.433-1.62,1.3-2.33,0.866-0.709,2.08-1.06,3.65-1.06,1.2,0.00001,2.19,0.202,2.95,0.606,0.581,0.305,1.01,0.783,1.28,1.43,0.177,0.423,0.266,1.29,0.266,2.6v4.59c-0.00001,1.29,0.0246,2.08,0.0738,2.38,0.0492,0.286,0.128,0.478,0.236,0.576,0.118,0.0985,0.251,0.148,0.399,0.148,0.158,0.00001,0.295-0.0344,0.414-0.103,0.207-0.128,0.606-0.487,1.2-1.08v0.827c-1.1,1.48-2.16,2.22-3.16,2.22-0.482,0-0.866-0.167-1.15-0.502-0.286-0.335-0.433-0.906-0.443-1.71m0-0.96,0-5.15c-1.49,0.591-2.45,1.01-2.88,1.26-0.778,0.433-1.33,0.886-1.67,1.36-0.335,0.473-0.502,0.99-0.502,1.55-0.00001,0.709,0.212,1.3,0.635,1.77,0.423,0.463,0.911,0.694,1.46,0.694,0.748,0,1.73-0.492,2.95-1.48"/>
<path id="path3349" d="m586,557,0,4.45,3.16,0,0,1.03-3.16,0,0,8.77c-0.00001,0.876,0.123,1.47,0.369,1.77,0.256,0.305,0.581,0.458,0.975,0.458,0.325,0,0.64-0.0985,0.945-0.295,0.305-0.207,0.542-0.507,0.709-0.901h0.576c-0.345,0.965-0.832,1.69-1.46,2.19-0.63,0.482-1.28,0.724-1.95,0.724-0.453,0-0.896-0.123-1.33-0.369-0.433-0.256-0.753-0.615-0.96-1.08-0.207-0.473-0.31-1.2-0.31-2.17v-9.1h-2.14v-0.487c0.542-0.217,1.09-0.581,1.65-1.09,0.571-0.522,1.08-1.14,1.52-1.85,0.226-0.374,0.542-1.06,0.945-2.05h0.458"/>
<path id="path3351" d="m598,554c0.414,0.00002,0.763,0.148,1.05,0.443,0.295,0.286,0.443,0.635,0.443,1.05-0.00001,0.414-0.148,0.768-0.443,1.06-0.286,0.295-0.635,0.443-1.05,0.443-0.414,0.00001-0.768-0.148-1.06-0.443-0.295-0.295-0.443-0.65-0.443-1.06,0-0.414,0.143-0.763,0.428-1.05,0.295-0.295,0.655-0.443,1.08-0.443m1.23,7.07,0,10.9c-0.00001,0.847,0.0591,1.41,0.177,1.7,0.128,0.276,0.31,0.482,0.546,0.62,0.246,0.138,0.689,0.207,1.33,0.207v0.532h-6.57v-0.532c0.66,0,1.1-0.064,1.33-0.192,0.226-0.128,0.404-0.34,0.532-0.635,0.138-0.295,0.207-0.862,0.207-1.7v-5.21c-0.00001-1.47-0.0443-2.42-0.133-2.85-0.0689-0.315-0.177-0.532-0.325-0.65-0.148-0.128-0.35-0.192-0.606-0.192-0.276,0.00001-0.61,0.0738-1,0.222l-0.207-0.532,4.08-1.65h0.65"/>
<path id="path3353" d="m612,563,0,8.89c0,1.26,0.138,2.06,0.414,2.39,0.364,0.433,0.852,0.65,1.46,0.65h1.23v0.532h-8.08v-0.532h0.606c0.394,0,0.753-0.0985,1.08-0.295,0.325-0.197,0.546-0.463,0.665-0.798,0.128-0.335,0.192-0.985,0.192-1.95v-8.89h-2.63v-1.06h2.63v-0.886c-0.00001-1.35,0.217-2.49,0.65-3.43,0.433-0.935,1.09-1.69,1.98-2.26,0.896-0.581,1.9-0.871,3.01-0.871,1.03,0.00003,1.98,0.335,2.85,1,0.571,0.443,0.857,0.94,0.857,1.49-0.00001,0.295-0.128,0.576-0.384,0.842-0.256,0.256-0.532,0.384-0.827,0.384-0.226,0.00002-0.468-0.0787-0.724-0.236-0.246-0.167-0.551-0.517-0.916-1.05-0.364-0.542-0.699-0.906-1-1.09-0.305-0.187-0.645-0.281-1.02-0.281-0.453,0.00002-0.837,0.123-1.15,0.369-0.315,0.236-0.542,0.61-0.679,1.12-0.138,0.502-0.207,1.81-0.207,3.91v0.975h3.49v1.06h-3.49"/>
</g>
<g id="g3355" style="font-size:30.24652481px;font-family:Arial;letter-spacing:0px;font-style:normal;word-spacing:0px;font-stretch:normal;font-variant:normal;font-weight:normal;line-height:125%;fill:#ffffff;" transform="matrix(1.0554343,0,0,1.0554343,-193.09957,-198.06719)" font-size="30.24652481000000037px" line-height="125%" font-stretch="normal" font-variant="normal" font-weight="normal" font-style="normal">
<path id="path3357" d="m310,232c-6.91,0-8.45-4.13-8.45-12.5,0-8.3,1.58-12.9,8.45-12.9,6.86,0,8.45,4.61,8.45,12.9,0,8.54-1.49,12.5-8.45,12.5m0,4.51c10.3,0,13.3-5.66,13.3-17,0-11.1-3.02-17.4-13.3-17.4s-13.2,6.34-13.2,17.4,2.98,17,13.2,17"/>
<path id="path3359" d="m344,228c5.54,0,8.21-3.24,8.21-8.78s-2.66-8.24-8.21-8.24h-9.07v25h3.49v-7.96h6m-5.58-3.35,0-10.3,5.58,0c3.2,0,4.64,1.55,4.64,4.9s-1.44,5.44-4.64,5.44h-5.58"/>
<path id="path3361" d="m363,236,15.4,0,0-3.35-11.9,0,0-7.52,9.76,0,0-3.28-9.76,0,0-7.49,11.9,0,0-3.35-15.4,0,0,25"/>
<path id="path3363" d="m403,236,3.85,0-4.39-9.94c2.88-1.15,4.25-3.42,4.25-7.24,0-5.51-2.66-7.81-8.17-7.81h-9.32v25h3.49v-9h6.3l4,9m0.108-17.1c0,2.88-1.15,4.79-4.54,4.79h-5.87v-9.36h5.83c3.1,0,4.57,1.48,4.57,4.57"/>
<path id="path3365" d="m416,236,3.49,0,1.55-5.62,9.72,0,1.62,5.58,3.53,0-6.34-24.9-7.16,0-6.41,25m9.07-21.7,1.76,0,3.2,12.8-8.24,0,3.28-12.8"/>
<path id="path3367" d="m443,214,7.27,0,0,21.6,3.53,0,0-21.6,7.2,0,0-3.35-18,0,0,3.35"/>
<path id="path3369" d="m470,236,3.49,0,0-25-3.49,0,0,25"/>
<path id="path3371" d="m495,233c-5.18,0-6.34-3.1-6.34-9.36,0-6.23,1.19-9.65,6.34-9.65s6.34,3.46,6.34,9.65c0,6.41-1.12,9.36-6.34,9.36m0,3.38c7.74,0,9.97-4.25,9.97-12.7,0-8.32-2.27-13-9.97-13s-9.94,4.75-9.94,13c0,8.35,2.23,12.7,9.94,12.7"/>
<path id="path3373" d="m516,236,3.49,0,0-20.7,0.72,0,9.07,20.7,5.76,0,0-25-3.49,0,0,20.7-0.72,0-8.93-20.7-5.9,0,0,25"/>
</g>
</svg>
